v -0.48684123158454895 -0.27840960025787354 1.0756144523620605
v -0.2923470139503479 -0.2685944437980652 1.0737693309783936
v -0.12039176374673843 -0.2669195532798767 1.0705980062484741
v 0.049909912049770355 -0.2669362723827362 1.0603218078613281
v 0.21814194321632385 -0.26144522428512573 1.0517545938491821
v 0.38257932662963867 -0.2585735619068146 1.038573145866394
v -0.3616430163383484 -0.2648576498031616 1.0735235214233398
v -0.18915140628814697 -0.26411572098731995 1.071481466293335
v -0.01739107072353363 -0.2623865008354187 1.0658915042877197
v 0.15228953957557678 -0.260386198759079 1.0550991296768188
v 0.3180098235607147 -0.2559511959552765 1.043715476989746
v -0.4304059147834778 -0.26272767782211304 1.0729713439941406
v -0.25735411047935486 -0.2613716721534729 1.072393774986267
v -0.08462211489677429 -0.2605747580528259 1.0689778327941895
v 0.08528939634561539 -0.25965943932533264 1.0568957328796387
v 0.25303715467453003 -0.2545459568500519 1.0488150119781494
v 0.41594693064689636 -0.2536098062992096 1.0364910364151
v -0.3256673216819763 -0.260024756193161 1.0733200311660767
v -0.15325820446014404 -0.2592543065547943 1.071030616760254
v 0.017672182992100716 -0.2581357955932617 1.0630884170532227
v 0.1869339644908905 -0.25492537021636963 1.0530846118927002
v 0.35157737135887146 -0.2508181631565094 1.040529489517212
v -0.3940385580062866 -0.25807085633277893 1.0732468366622925
v -0.2221813201904297 -0.2567667067050934 1.071467638015747
v -0.04958495497703552 -0.25612136721611023 1.0672589540481567
v 0.1206236481666565 -0.2549683153629303 1.0557173490524292
v 0.2872520685195923 -0.2503458261489868 1.0457030534744263
v -0.4658057987689972 -0.2560405731201172 1.0719220638275146
v -0.2889423966407776 -0.2557283043861389 1.072693943977356
v -0.11720356345176697 -0.2548990547657013 1.0697557926177979
v 0.053385429084300995 -0.2551940381526947 1.058532476425171
v 0.22114969789981842 -0.2498646378517151 1.0509141683578491
v 0.3856310248374939 -0.24677841365337372 1.038002848625183
v -0.3578961193561554 -0.2541877031326294 1.0730704069137573
v -0.1858668327331543 -0.2533014714717865 1.0709044933319092
v -0.01430523581802845 -0.25263169407844543 1.0649887323379517
v 0.15552844107151031 -0.2501513659954071 1.054202675819397
v 0.3208618760108948 -0.24595792591571808 1.0426775217056274
v -0.4269576370716095 -0.2522852420806885 1.0728094577789307
v -0.25368043780326843 -0.25106728076934814 1.0717893838882446
v -0.0814361423254013 -0.25098034739494324 1.0682625770568848
v 0.08872374147176743 -0.25045812129974365 1.0556073188781738
v 0.25619447231292725 -0.24516673386096954 1.0479129552841187
v 0.41964879631996155 -0.24378906190395355 1.0358911752700806
v -0.32215645909309387 -0.25027668476104736 1.0727006196975708
v -0.14998388290405273 -0.24954324960708618 1.070219874382019
v 0.020774871110916138 -0.24886810779571533 1.0621625185012817
v 0.18996457755565643 -0.24532414972782135 1.0523016452789307
v 0.3547307848930359 -0.2416374832391739 1.0397179126739502
v -0.3904162645339966 -0.24843382835388184 1.072948694229126
v -0.21848085522651672 -0.24740509688854218 1.0708489418029785
v -0.04606517031788826 -0.24714478850364685 1.0662888288497925
v 0.12385424226522446 -0.2461465448141098 1.05482017993927
v 0.2901899218559265 -0.24121612310409546 1.0448063611984253
v -0.4602973461151123 -0.24581710994243622 1.0717973709106445
v -0.28572964668273926 -0.2459680140018463 1.0719425678253174
v -0.11397895216941833 -0.24556927382946014 1.0689520835876465
v 0.056977592408657074 -0.24529483914375305 1.0574297904968262
v 0.22438880801200867 -0.24049144983291626 1.0501612424850464
v 0.3888297379016876 -0.23763588070869446 1.0372453927993774
v -0.35415706038475037 -0.24460369348526 1.07247793674469
v -0.18229377269744873 -0.24379287660121918 1.0702769756317139
v -0.011079583317041397 -0.2435048371553421 1.0642445087432861
v 0.15892258286476135 -0.24082793295383453 1.0534001588821411
v 0.32388201355934143 -0.23684929311275482 1.0417580604553223
v -0.4235379099845886 -0.24271531403064728 1.0726515054702759
v -0.25004756450653076 -0.24161727726459503 1.0712004899978638
v -0.0777125284075737 -0.24190650880336761 1.0674644708633423
v 0.09238943457603455 -0.24136076867580414 1.0548654794692993
v 0.2593111991882324 -0.23602290451526642 1.047093152999878
v 0.4235093891620636 -0.23433350026607513 1.0352332592010498
v -0.31821203231811523 -0.24077315628528595 1.0721614360809326
v -0.1463414430618286 -0.24019593000411987 1.069533348083496
v 0.024176768958568573 -0.2395905703306198 1.060902714729309
v 0.19327634572982788 -0.2357434183359146 1.0516974925994873
v 0.3578469753265381 -0.23267967998981476 1.0391722917556763
v -0.3864493668079376 -0.23898667097091675 1.07248055934906
v -0.214487686753273 -0.23821763694286346 1.0704553127288818
v -0.04247921705245972 -0.23805058002471924 1.0653719902038574
v 0.1272784322500229 -0.2370828241109848 1.053951621055603
v 0.29349735379219055 -0.23176947236061096 1.0439825057983398
v -0.4563743770122528 -0.23661229014396667 1.0712969303131104
v -0.28200313448905945 -0.2364215850830078 1.0714479684829712
v -0.11024685949087143 -0.2364109754562378 1.0683237314224243
v 0.06142197549343109 -0.23549579083919525 1.0556217432022095
v 0.2277618795633316 -0.23110422492027283 1.049438238143921
v 0.39238935708999634 -0.22856438159942627 1.0367155075073242
v -0.3501717746257782 -0.23529598116874695 1.0719269514083862
v -0.1785631626844406 -0.23460477590560913 1.0697664022445679
v -0.007754034828394651 -0.23418180644512177 1.0635322332382202
v 0.16212759912014008 -0.23151682317256927 1.0527726411819458
v 0.32702139019966125 -0.22767776250839233 1.0410454273223877
v -0.41983354091644287 -0.23340252041816711 1.072399377822876
v -0.24638856947422028 -0.2324373871088028 1.0707601308822632
v -0.07399915903806686 -0.233001247048378 1.0667009353637695
v 0.09591411799192429 -0.23226547241210938 1.0543681383132935
v 0.2624663710594177 -0.22682613134384155 1.0463529825210571
v 0.4273628294467926 -0.22509609162807465 1.0345591306686401
v -0.3143015205860138 -0.23135119676589966 1.0716601610183716
v -0.14268791675567627 -0.23124614357948303 1.0689376592636108
v 0.027409257367253304 -0.2192220538854599 1.0109716653823853
v 0.19662560522556305 -0.22643178701400757 1.0512007474899292
v 0.3611644506454468 -0.223697692155838 1.0387641191482544
v -0.3825511634349823 -0.22971227765083313 1.071882724761963
v -0.21083442866802216 -0.22931869328022003 1.0700337886810303
v -0.03904999792575836 -0.22916395962238312 1.064368724822998
v 0.13036826252937317 -0.2276521921157837 1.053012728691101
v 0.2966087758541107 -0.22251267731189728 1.0432355403900146
v -0.4529607594013214 -0.22744962573051453 1.0711106061935425
v -0.2784064710140228 -0.2272137552499771 1.0710082054138184
v -0.10674009472131729 -0.22760899364948273 1.0677529573440552
v 0.06420229375362396 -0.22575798630714417 1.053208351135254
v 0.23120661079883575 -0.22200153768062592 1.0487098693847656
v 0.3960283100605011 -0.21970587968826294 1.0362093448638916
v -0.34625616669654846 -0.22607330977916718 1.0713927745819092
v -0.1751442551612854 -0.22578606009483337 1.0692365169525146
v -0.00455808499827981 -0.2252674549818039 1.0627187490463257
v 0.1653607040643692 -0.22245928645133972 1.0523043870925903
v 0.33022332191467285 -0.21868103742599487 1.0404438972473145
v -0.41596686840057373 -0.2242535948753357 1.0719307661056519
v -0.24291279911994934 -0.2235247790813446 1.0703437328338623
v -0.07055763900279999 -0.22424928843975067 1.06585693359375
v 0.09172384440898895 -0.20715481042861938 0.9775687456130981
v 0.26569274067878723 -0.21771948039531708 1.0457415580749512
v 0.4310248792171478 -0.21611647307872772 1.0338859558105469
v -0.31056928634643555 -0.22206787765026093 1.0711997747421265
v -0.13915999233722687 -0.22252826392650604 1.0684239864349365
v 0.030397461727261543 -0.21037603914737701 1.009520411491394
v 0.20007158815860748 -0.2174711525440216 1.0507794618606567
v 0.36465662717819214 -0.21486981213092804 1.0383614301681519
v -0.3787410855293274 -0.22057443857192993 1.0713685750961304
v -0.20734700560569763 -0.22051315009593964 1.0696899890899658
v -0.03565480560064316 -0.22024932503700256 1.063295602798462
v 0.13332946598529816 -0.21790656447410583 1.0524988174438477
v 0.2997337877750397 -0.2134641855955124 1.0427048206329346
v -0.449317067861557 -0.2183721959590912 1.0709545612335205
v -0.27489224076271057 -0.21816810965538025 1.0707018375396729
v -0.10339128226041794 -0.2188669890165329 1.0671181678771973
v 0.06378196179866791 -0.20372693240642548 0.9937672019004822
v 0.23475919663906097 -0.21298998594284058 1.048129677772522
v 0.3995194435119629 -0.21105007827281952 1.0358071327209473
v -0.3423604965209961 -0.2168775051832199 1.0709831714630127
v -0.1717628538608551 -0.21705682575702667 1.0688142776489258
v -0.0017707081278786063 -0.21735046803951263 1.0614428520202637
v 0.1688378006219864 -0.2135583907365799 1.0520789623260498
v 0.33355048298835754 -0.20975197851657867 1.040116786956787
v -0.4121265709400177 -0.21519263088703156 1.0714895725250244
v -0.2394869178533554 -0.21472492814064026 1.0701258182525635
v -0.06713802367448807 -0.21544645726680756 1.0649378299713135
v 0.09466739743947983 -0.19683308899402618 0.9748581647872925
v 0.2690885066986084 -0.20861703157424927 1.0453057289123535
v 0.43417882919311523 -0.20727767050266266 1.0331816673278809
v -0.30703026056289673 -0.21289779245853424 1.0708101987838745
v -0.1357143074274063 -0.21396830677986145 1.0677844285964966
v 0.03366713970899582 -0.20196598768234253 1.007808804512024
v 0.2035583257675171 -0.2086973339319229 1.0504357814788818
v 0.3682105839252472 -0.2060912698507309 1.038062334060669
v -0.37495890259742737 -0.21150197088718414 1.0709162950515747
v -0.20389322936534882 -0.21169725060462952 1.0694355964660645
v -0.03221123293042183 -0.2114221304655075 1.0622398853302002
v 0.13773813843727112 -0.20882229506969452 1.0502159595489502
v 0.30292418599128723 -0.2045530527830124 1.0423896312713623
v -0.4454246461391449 -0.20938879251480103 1.0706965923309326
v -0.27140888571739197 -0.20924507081508636 1.070509433746338
v -0.09994383901357651 -0.21011412143707275 1.0662376880645752
v 0.06678814440965652 -0.19466392695903778 0.9901382327079773
v 0.23836588859558105 -0.204112246632576 1.047635555267334
v 0.40296223759651184 -0.20241521298885345 1.0354640483856201
v -0.33856046199798584 -0.20774027705192566 1.0706110000610352
v -0.1683541089296341 -0.20829465985298157 1.0682941675186157
v 0.003164775436744094 -0.19874362647533417 1.0157344341278076
v 0.17229564487934113 -0.20470981299877167 1.051963448524475
v 0.3370459973812103 -0.2009553760290146 1.0398982763290405
v -0.40826302766799927 -0.20621609687805176 1.0710593461990356
v -0.23594602942466736 -0.20604541897773743 1.0699700117111206
v -0.06374447792768478 -0.2064172476530075 1.0638808012008667
v 0.09780962765216827 -0.1884988397359848 0.973247230052948
v 0.27246564626693726 -0.1997087001800537 1.0449998378753662
v 0.4371927082538605 -0.1986348181962967 1.0325418710708618
v -0.30365651845932007 -0.20389436185359955 1.0704712867736816
v -0.13229529559612274 -0.20515766739845276 1.0670591592788696
v 0.036870911717414856 -0.1935671865940094 1.005594253540039
v 0.20709066092967987 -0.19998705387115479 1.0500884056091309
v 0.3718883693218231 -0.19736845791339874 1.0378016233444214
v -0.3712408244609833 -0.20244121551513672 1.070515751838684
v -0.20042692124843597 -0.20289644598960876 1.0691460371017456
v -0.028816543519496918 -0.20233666896820068 1.0612543821334839
v 0.1288141906261444 -0.18282921612262726 0.9562281370162964
v 0.3063146770000458 -0.19579577445983887 1.0421016216278076
v -0.44145822525024414 -0.2005452811717987 1.0704621076583862
v -0.26782098412513733 -0.20045040547847748 1.0703706741333008
v -0.09617714583873749 -0.20129646360874176 1.0649945735931396
v 0.06973721832036972 -0.1864793449640274 0.9893717765808105
v 0.24190711975097656 -0.19535031914710999 1.0472557544708252
v 0.4063679575920105 -0.193770632147789 1.0351287126541138
v -0.33488354086875916 -0.1986791491508484 1.0702974796295166
v -0.16484420001506805 -0.19944889843463898 1.067588448524475
v 0.006191739812493324 -0.190507173538208 1.0140659809112549
v 0.17573858797550201 -0.19593697786331177 1.051856517791748
v 0.3406924605369568 -0.1922953575849533 1.0397098064422607
v -0.40450331568717957 -0.19722963869571686 1.0707026720046997
v -0.23239801824092865 -0.19741500914096832 1.0698007345199585
v -0.06017397716641426 -0.19725275039672852 1.0628926753997803
v 0.10089326649904251 -0.1801121085882187 0.9722643494606018
v 0.27584007382392883 -0.19098956882953644 1.0447148084640503
v 0.4405113756656647 -0.19006876647472382 1.0317620038986206
v -0.30007484555244446 -0.194988414645195 1.0702836513519287
v -0.12887738645076752 -0.1965845823287964 1.0661602020263672
v 0.03994283080101013 -0.1845279037952423 1.003340482711792
v 0.2106676995754242 -0.19131454825401306 1.0497699975967407
v 0.37550315260887146 -0.18873432278633118 1.037499189376831
v -0.3675041198730469 -0.19336991012096405 1.070198655128479
v -0.19703760743141174 -0.19413398206233978 1.0687434673309326
v -0.025477737188339233 -0.19280831515789032 1.0607526302337646
v 0.13178834319114685 -0.174203559756279 0.9541298151016235
v 0.30983322858810425 -0.1871732920408249 1.0417777299880981
v -0.4375002086162567 -0.19174633920192719 1.0703293085098267
v -0.2642512619495392 -0.19172655045986176 1.0702404975891113
v -0.09223178029060364 -0.19223162531852722 1.0641577243804932
v 0.07275254279375076 -0.17814792692661285 0.9883362650871277
v 0.24541626870632172 -0.18671154975891113 1.0469386577606201
v 0.4098140299320221 -0.1850636899471283 1.0346630811691284
v -0.33131417632102966 -0.18961094319820404 1.070015549659729
v -0.16138941049575806 -0.19052714109420776 1.0666362047195435
v 0.010366285219788551 -0.18049660325050354 1.012980341911316
v 0.17926225066184998 -0.18735359609127045 1.0517688989639282
v 0.34434548020362854 -0.1837238073348999 1.0394331216812134
v -0.4007418155670166 -0.18824565410614014 1.0703904628753662
v -0.2289208024740219 -0.188728928565979 1.0695216655731201
v -0.04943684861063957 -0.17062661051750183 0.9548121690750122
v 0.10393119603395462 -0.17200639843940735 0.9710916876792908
v 0.2792235016822815 -0.1823837161064148 1.0443947315216064
v 0.4448692202568054 -0.18149279057979584 1.0308865308761597
v -0.29643940925598145 -0.18614491820335388 1.0701608657836914
v -0.12397180497646332 -0.18578366935253143 1.0589954853057861
v 0.043189141899347305 -0.17567607760429382 1.0009664297103882
v 0.21430730819702148 -0.18268491327762604 1.0494493246078491
v 0.3789718449115753 -0.18008780479431152 1.0371365547180176
v -0.363812655210495 -0.18430973589420319 1.069895625114441
v -0.1935788244009018 -0.18552258610725403 1.0681642293930054
v -0.020287027582526207 -0.16600768268108368 0.9591034650802612
v 0.1348366141319275 -0.1660286784172058 0.9527742862701416
v 0.3134004473686218 -0.17862793803215027 1.0414226055145264
v -0.4335889220237732 -0.18298202753067017 1.0701695680618286
v -0.2607286274433136 -0.18298521637916565 1.0700807571411133
v -0.08838943392038345 -0.18302397429943085 1.063230037689209
v 0.07592978328466415 -0.16973616182804108 0.9869025349617004
v 0.24895240366458893 -0.17809568345546722 1.0466647148132324
v 0.4132522940635681 -0.17629580199718475 1.0341460704803467
v -0.3276512324810028 -0.18061140179634094 1.0697269439697266
v -0.15747778117656708 -0.18117456138134003 1.0632678270339966
v 0.01382410991936922 -0.17051008343696594 1.0107094049453735
v 0.1826397031545639 -0.1785380095243454 1.0515995025634766
v 0.3479882776737213 -0.17504113912582397 1.0391275882720947
v -0.39700087904930115 -0.17923608422279358 1.07011079788208
v -0.22535869479179382 -0.17990784347057343 1.0690371990203857
v -0.04627244919538498 -0.15890751779079437 0.9349582195281982
v 0.1070573553442955 -0.16374647617340088 0.9697666764259338
v 0.28269103169441223 -0.17374597489833832 1.044029712677002
v -0.4714992046356201 -0.17813540995121002 1.0698931217193604
v -0.29285967350006104 -0.17723503708839417 1.070029616355896
v -0.12052137404680252 -0.17641232907772064 1.0555428266525269
v 0.04725421220064163 -0.16641749441623688 0.9971880316734314
v 0.21782734990119934 -0.17395815253257751 1.0491560697555542
v 0.38235488533973694 -0.17127008736133575 1.0367553234100342
v -0.3600981533527374 -0.17529326677322388 1.0696251392364502
v -0.18994811177253723 -0.17699262499809265 1.0674688816070557
v -0.015570844523608685 -0.1520608365535736 0.918318510055542
v 0.13771437108516693 -0.15749965608119965 0.9512486457824707
v 0.3169569969177246 -0.17006275057792664 1.0411243438720703
v -0.42975226044654846 -0.17417192459106445 1.069988489151001
v -0.25723209977149963 -0.17419324815273285 1.0699108839035034
v -0.07561279088258743 -0.15562240779399872 0.9524376392364502
v 0.07908972352743149 -0.16119754314422607 0.9851810932159424
v 0.2525761127471924 -0.16948769986629486 1.046438455581665
v 0.4166256785392761 -0.16753868758678436 1.0336580276489258
v -0.3240712881088257 -0.1716151386499405 1.0695185661315918
v -0.15244029462337494 -0.17072178423404694 1.0561118125915527
v 0.015633339062333107 -0.1465444266796112 0.9049546122550964
v 0.1860877126455307 -0.169681578874588 1.0513520240783691
v 0.3515607714653015 -0.1663053184747696 1.0387791395187378
v -0.3933052718639374 -0.1702396273612976 1.0698695182800293
v -0.2218717485666275 -0.17105695605278015 1.0683262348175049
v -0.04246418923139572 -0.14763101935386658 0.919442892074585
v 0.11013413220643997 -0.15551361441612244 0.9682877659797668
v 0.28614965081214905 -0.16512584686279297 1.043668270111084
v -0.4636346995830536 -0.1690351516008377 1.0699095726013184
v -0.289410799741745 -0.1682695895433426 1.0699524879455566
v -0.10291723906993866 -0.15058688819408417 0.9420706629753113
v 0.04576435685157776 -0.14353203773498535 0.9101263880729675
v 0.2213544249534607 -0.16528800129890442 1.0488903522491455
v 0.38570597767829895 -0.16242264211177826 1.0363318920135498
v -0.35643070936203003 -0.16631393134593964 1.0693999528884888
v -0.18414930999279022 -0.16572348773479462 1.0580575466156006
v -0.011882662773132324 -0.14024971425533295 0.8984004259109497
v 0.14050251245498657 -0.14921554923057556 0.9502121806144714
v 0.3205260634422302 -0.16144946217536926 1.040830373764038
v -0.42595764994621277 -0.16528084874153137 1.0698117017745972
v -0.2537587583065033 -0.1653222143650055 1.0696706771850586
v -0.07035837322473526 -0.1432085931301117 0.9184274673461914
v 0.08249775320291519 -0.1528940498828888 0.9816753268241882
v 0.25616976618766785 -0.1608712375164032 1.0462404489517212
v 0.4199817180633545 -0.15892553329467773 1.033205509185791
v -0.3206034004688263 -0.16262996196746826 1.0693813562393188
v -0.14846491813659668 -0.1613553911447525 1.0508801937103271
v 0.018683869391679764 -0.135951966047287 0.8929275274276733
v 0.18951313197612762 -0.1608264446258545 1.0510859489440918
v 0.3549842834472656 -0.15761689841747284 1.0384174585342407
v -0.3896350860595703 -0.1612495332956314 1.069657564163208
v -0.21850109100341797 -0.16233918070793152 1.0671221017837524
v -0.03800312802195549 -0.13621924817562103 0.9004207253456116
v 0.1131579801440239 -0.14726608991622925 0.966340184211731
v 0.2895987331867218 -0.1564982533454895 1.0433399677276611
v -0.45926758646965027 -0.1602276861667633 1.0699315071105957
v -0.2859779894351959 -0.15932022035121918 1.0698750019073486
v -0.09903360158205032 -0.13952453434467316 0.9270511865615845
v 0.04871469736099243 -0.13426554203033447 0.9011842608451843
v 0.22492936253547668 -0.15657687187194824 1.0486643314361572
v 0.389038622379303 -0.15368233621120453 1.0358827114105225
v -0.35283154249191284 -0.15743650496006012 1.069205403327942
v -0.18041002750396729 -0.15663233399391174 1.0550861358642578
v -0.008980323560535908 -0.13127735257148743 0.8914796113967896
v 0.1437232345342636 -0.1411994844675064 0.9495797157287598
v 0.3241163492202759 -0.15281178057193756 1.040582299232483
v -0.42224717140197754 -0.1563103199005127 1.0695874691009521
v -0.25034233927726746 -0.15640677511692047 1.0692555904388428
v -0.0660603865981102 -0.13310642540454865 0.905596137046814
v 0.08026354014873505 -0.1347571611404419 0.9228742122650146
v 0.2597048282623291 -0.15209756791591644 1.046044111251831
v 0.42351973056793213 -0.15036119520664215 1.032751202583313
v -0.31715184450149536 -0.15379999577999115 1.0692734718322754
v -0.14441747963428497 -0.15163330733776093 1.0437185764312744
v 0.02128387987613678 -0.12734061479568481 0.8863115310668945
v 0.19274580478668213 -0.15200968086719513 1.051100730895996
v 0.3583909571170807 -0.14900504052639008 1.0380486249923706
v -0.3859516978263855 -0.15229959785938263 1.0694221258163452
v -0.21238499879837036 -0.15201544761657715 1.059261441230774
v -0.035143353044986725 -0.12780757248401642 0.8941780924797058
v 0.11680606007575989 -0.1396062970161438 0.963645339012146
v 0.2930949032306671 -0.14780324697494507 1.0431174039840698
v -0.45542070269584656 -0.15142740309238434 1.0699872970581055
v -0.2824271321296692 -0.15046897530555725 1.0697808265686035
v -0.095492422580719 -0.1302381455898285 0.9194791913032532
v 0.05142304673790932 -0.12561112642288208 0.8953230381011963
v 0.22854745388031006 -0.1477040797472 1.0484578609466553
v 0.39241859316825867 -0.14510181546211243 1.0354266166687012
v -0.3493426442146301 -0.14869152009487152 1.0690375566482544
v -0.17690840363502502 -0.14821140468120575 1.051365613937378
v -0.006115791387856007 -0.12332544475793839 0.8881946206092834
v 0.14718039333820343 -0.13314008712768555 0.9487471580505371
v 0.32772451639175415 -0.14413872361183167 1.0403316020965576
v -0.4185244143009186 -0.1472947746515274 1.069357991218567
v -0.2470347285270691 -0.14738552272319794 1.0687673091888428
v -0.061891090124845505 -0.12347939610481262 0.8931818604469299
v 0.08323858678340912 -0.125907763838768 0.9173844456672668
v 0.2631600797176361 -0.1432376503944397 1.0458489656448364
v 0.42719516158103943 -0.14178892970085144 1.0322352647781372
v -0.3137703537940979 -0.14508506655693054 1.0692225694656372
v -0.14135155081748962 -0.1430179476737976 1.0402536392211914
v 0.023989256471395493 -0.11961907148361206 0.8837233185768127
v 0.19626960158348083 -0.14303600788116455 1.051093339920044
v 0.361745685338974 -0.14041127264499664 1.0376633405685425
v -0.3823172152042389 -0.14340507984161377 1.0692170858383179
v -0.20863081514835358 -0.14261990785598755 1.0559089183807373
v -0.031692370772361755 -0.12017782777547836 0.8902627229690552
v 0.1165219396352768 -0.1255122572183609 0.9346083402633667
v 0.2966049015522003 -0.13908296823501587 1.0429130792617798
v -0.45185714960098267 -0.14245536923408508 1.0700569152832031
v -0.27898475527763367 -0.1415894329547882 1.069664478302002
v -0.09186749160289764 -0.12141316384077072 0.9117885828018188
v 0.05441480129957199 -0.11814858764410019 0.8927769064903259
v 0.23219944536685944 -0.13867299258708954 1.048317790031433
v 0.3957209289073944 -0.13654035329818726 1.034942865371704
v -0.3459134101867676 -0.13996468484401703 1.0689847469329834
v -0.17168176174163818 -0.13872160017490387 1.040294885635376
v -0.0030749570578336716 -0.1157250627875328 0.8876714706420898
v 0.1500660926103592 -0.12496515363454819 0.9491528272628784
v 0.33113163709640503 -0.13548734784126282 1.0400705337524414
v -0.41476285457611084 -0.13823072612285614 1.0691481828689575
v -0.24378125369548798 -0.13834546506404877 1.0682917833328247
v -0.057261060923337936 -0.1130511686205864 0.8791266083717346
v 0.0868704617023468 -0.11794868111610413 0.9160162806510925
v 0.2665533423423767 -0.13438013195991516 1.045619249343872
v 0.43070679903030396 -0.13322187960147858 1.0316681861877441
v -0.31062138080596924 -0.13631172478199005 1.0691951513290405
v -0.12223932147026062 -0.1196194738149643 0.9348089694976807
v 0.02670353278517723 -0.11196320503950119 0.8807934522628784
v 0.20006440579891205 -0.13405552506446838 1.0510680675506592
v 0.36507922410964966 -0.13174395263195038 1.0372166633605957
v -0.3787318170070648 -0.13450922071933746 1.0690244436264038
v -0.2054159790277481 -0.13381750881671906 1.0531411170959473
v -0.028556404635310173 -0.10964298248291016 0.8774545788764954
v 0.1187123954296112 -0.11663094162940979 0.9272193908691406
v 0.30007997155189514 -0.13040900230407715 1.042687177658081
v -0.4481329023838043 -0.13327932357788086 1.0699635744094849
v -0.2755507826805115 -0.13269002735614777 1.0695269107818604
v -0.08582985401153564 -0.1113479882478714 0.8950763940811157
v 0.05730404704809189 -0.11017578840255737 0.8891815543174744
v 0.23580294847488403 -0.1297207772731781 1.0480901002883911
v 0.39898258447647095 -0.12798042595386505 1.0344467163085938
v -0.34251776337623596 -0.1311608850955963 1.068979263305664
v -0.16355568170547485 -0.12498193979263306 1.0083870887756348
v 0.00037197794881649315 -0.1080242246389389 0.8840916156768799
v 0.15336762368679047 -0.1164843961596489 0.9484869837760925
v 0.3344981372356415 -0.12682487070560455 1.0397651195526123
v -0.41106459498405457 -0.12911435961723328 1.0689448118209839
v -0.24033065140247345 -0.1290585994720459 1.068006992340088
v -0.05381471663713455 -0.10469028353691101 0.870988667011261
v 0.09011953324079514 -0.11080367863178253 0.9160065650939941
v 0.2698855996131897 -0.1256539672613144 1.0453824996948242
v 0.43394625186920166 -0.12456901371479034 1.0310184955596924
v -0.30728620290756226 -0.12747809290885925 1.0691415071487427
v -0.11855917423963547 -0.11140544712543488 0.9290011525154114
v 0.030083294957876205 -0.10362447798252106 0.8746218085289001
v 0.20342852175235748 -0.12506966292858124 1.0505046844482422
v 0.3684483468532562 -0.12307331711053848 1.036720871925354
v -0.3751647472381592 -0.1255190521478653 1.0688464641571045
v -0.19168050587177277 -0.11741866171360016 1.0011038780212402
v -0.025774385780096054 -0.10172411799430847 0.8728119134902954
v 0.1210022047162056 -0.10833462327718735 0.9223048090934753
v 0.3035983145236969 -0.12175171822309494 1.042395830154419
v -0.44417259097099304 -0.12401863187551498 1.0696582794189453
v -0.2720445692539215 -0.12377636879682541 1.0693912506103516
v -0.0815596655011177 -0.10214558243751526 0.8835968971252441
v 0.05970031023025513 -0.10200802981853485 0.8854146599769592
v 0.2392214983701706 -0.12095755338668823 1.0478475093841553
v 0.40236493945121765 -0.11935056746006012 1.0338788032531738
v -0.339080810546875 -0.12219773977994919 1.0689690113067627
v -0.15983830392360687 -0.11578923463821411 1.0062787532806396
v 0.003661556402221322 -0.09991499781608582 0.8789921998977661
v 0.15698941051959991 -0.10858740657567978 0.9489061832427979
v 0.3377905488014221 -0.11817806214094162 1.0393966436386108
v -0.40739768743515015 -0.11990342289209366 1.0687650442123413
v -0.2366301566362381 -0.12004359811544418 1.0674636363983154
v -0.05083021894097328 -0.09707766026258469 0.8668293952941895
v 0.09334637969732285 -0.10360094159841537 0.916181743144989
v 0.27322450280189514 -0.11703280359506607 1.0451042652130127
v 0.4371102750301361 -0.11573989689350128 1.0303312540054321
v -0.3039986491203308 -0.11849348247051239 1.069097638130188
v -0.1157916709780693 -0.10384411364793777 0.9288497567176819
v 0.03267941623926163 -0.09624403715133667 0.8722740411758423
v 0.20711375772953033 -0.11665555834770203 1.0490208864212036
v 0.37180641293525696 -0.1144489049911499 1.0361576080322266
v -0.37161141633987427 -0.11647554486989975 1.068717360496521
v -0.187874436378479 -0.10877840965986252 0.9990755319595337
v -0.02278081700205803 -0.09426518529653549 0.8698907494544983
v 0.12366563081741333 -0.10043778270483017 0.9198789596557617
v 0.30702465772628784 -0.11317068338394165 1.0420012474060059
v -0.4402773380279541 -0.11477049440145493 1.0692920684814453
v -0.26838815212249756 -0.11476398259401321 1.0693228244781494
v -0.07768943160772324 -0.0937880203127861 0.8757457733154297
v 0.06212948262691498 -0.09425152093172073 0.8827356100082397
v 0.2425907999277115 -0.11226804554462433 1.0476640462875366
v 0.4057806134223938 -0.11070501804351807 1.033265233039856
v -0.3356359302997589 -0.11321975290775299 1.0689818859100342
v -0.1567949801683426 -0.10725327581167221 1.000636339187622
v 0.00640392629429698 -0.09217941761016846 0.8763006329536438
v 0.1601085066795349 -0.10100474953651428 0.9483140707015991
v 0.3410860002040863 -0.10947326570749283 1.03887939453125
v -0.4037567675113678 -0.11075332760810852 1.068616509437561
v -0.23318995535373688 -0.11103058606386185 1.0671910047531128
v -0.0479070208966732 -0.08975546061992645 0.8644022345542908
v 0.09603966772556305 -0.09495643526315689 0.9117437601089478
v 0.27658018469810486 -0.10847591608762741 1.0447441339492798
v 0.4404280483722687 -0.10676945745944977 1.0296261310577393
v -0.30064088106155396 -0.10945270955562592 1.0690820217132568
v -0.11301566660404205 -0.09528784453868866 0.9252511262893677
v 0.035481374710798264 -0.08901454508304596 0.8726615309715271
v 0.210395947098732 -0.10749229788780212 1.049078345298767
v 0.3752128779888153 -0.10580310970544815 1.035534381866455
v -0.36804473400115967 -0.10755506902933121 1.0685837268829346
v -0.18432024121284485 -0.10025842487812042 0.9974539875984192
v -0.019491402432322502 -0.08675985038280487 0.86457359790802
v 0.12642264366149902 -0.09236013144254684 0.9175083637237549
v 0.3104301393032074 -0.10449883341789246 1.0415087938308716
v -0.4364258646965027 -0.1056261956691742 1.0689082145690918
v -0.264796644449234 -0.10584843903779984 1.069223165512085
v -0.07399798929691315 -0.08604922145605087 0.8701217174530029
v 0.06480376422405243 -0.08656658232212067 0.8776322603225708
v 0.24595868587493896 -0.10363619029521942 1.0473902225494385
v 0.4092370569705963 -0.1019882932305336 1.032605528831482
v -0.3322230279445648 -0.10431179404258728 1.0689506530761719
v -0.14290235936641693 -0.09282564371824265 0.9431368708610535
v 0.009179270826280117 -0.08524496853351593 0.8760213851928711
v 0.16333302855491638 -0.09261967241764069 0.9477576613426208
v 0.3444646894931793 -0.10067909955978394 1.0383448600769043
v -0.40013042092323303 -0.10187754780054092 1.0684049129486084
v -0.22925715148448944 -0.10238528996706009 1.0664631128311157
v -0.04506745561957359 -0.0825786367058754 0.8634111285209656
v 0.09966293722391129 -0.08707187324762344 0.913364827632904
v 0.2800273895263672 -0.09976758062839508 1.044282078742981
v 0.4449761211872101 -0.0978618711233139 1.0287667512893677
v -0.2969737946987152 -0.10044417530298233 1.0691397190093994
v -0.10654009878635406 -0.0858178436756134 0.9095191955566406
v 0.03854416683316231 -0.0821261927485466 0.875062882900238
v 0.21397338807582855 -0.09913438558578491 1.0497515201568604
v 0.3786337375640869 -0.09705828130245209 1.0350276231765747
v -0.3644791543483734 -0.09882459789514542 1.068425178527832
v -0.18101710081100464 -0.09196546673774719 0.9965459108352661
v -0.01668906770646572 -0.07952707260847092 0.8628137111663818
v 0.12889626622200012 -0.0843433141708374 0.9142971634864807
v 0.3137997090816498 -0.09574252367019653 1.0410462617874146
v -0.43272510170936584 -0.09666900336742401 1.0685184001922607
v -0.26115772128105164 -0.09687070548534393 1.0691190958023071
v -0.07080860435962677 -0.078631192445755 0.8663239479064941
v 0.06762585788965225 -0.07927354425191879 0.8771795034408569
v 0.2494550347328186 -0.09491777420043945 1.047041654586792
v 0.4126411974430084 -0.09323795884847641 1.0318526029586792
v -0.3288199007511139 -0.0954558402299881 1.0689218044281006
v -0.13869833946228027 -0.08412888646125793 0.9383538365364075
v 0.011892005801200867 -0.07854121178388596 0.8770003914833069
v 0.16596616804599762 -0.08437304198741913 0.9464131593704224
v 0.34790390729904175 -0.0918947085738182 1.037799596786499
v -0.3964610695838928 -0.09320178627967834 1.0681904554367065
v -0.21151681244373322 -0.0867256373167038 0.9964295625686646
v -0.04201221838593483 -0.07521365582942963 0.8613100051879883
v 0.1025458425283432 -0.0799885243177414 0.9141144752502441
v 0.2834954261779785 -0.0910014659166336 1.0437818765640259
v -0.47042128443717957 -0.09235093742609024 1.0683462619781494
v -0.29326996207237244 -0.09147845953702927 1.0691968202590942
v -0.10217345505952835 -0.07667636126279831 0.8996590375900269
v 0.04178132116794586 -0.07579624652862549 0.8781542181968689
v 0.21768224239349365 -0.09006792306900024 1.0495989322662354
v 0.38199394941329956 -0.08831147849559784 1.0344904661178589
v -0.36102330684661865 -0.09002712368965149 1.0682849884033203
v -0.17784515023231506 -0.08384104073047638 0.9965700507164001
v -0.013915029354393482 -0.07254252582788467 0.8634165525436401
v 0.1316942572593689 -0.07646366953849792 0.9129495024681091
v 0.31711119413375854 -0.08701401948928833 1.0404850244522095
v -0.42914822697639465 -0.08786455541849136 1.068131923675537
v -0.25754907727241516 -0.0879315435886383 1.0690107345581055
v -0.0678047463297844 -0.07128143310546875 0.8641999959945679
v 0.07067013531923294 -0.07194234430789948 0.8790932297706604
v 0.25296613574028015 -0.08618003875017166 1.0466715097427368
v 0.41602984070777893 -0.08453845232725143 1.031058669090271
v -0.3253238797187805 -0.08656304329633713 1.068906545639038
v -0.13217730820178986 -0.0740341916680336 0.9180571436882019
v 0.01545767206698656 -0.06950977444648743 0.8669269680976868
v 0.16862542927265167 -0.07648299634456635 0.9446845650672913
v 0.35122883319854736 -0.08321180939674377 1.0371967554092407
v -0.39283132553100586 -0.08452750742435455 1.067982792854309
v -0.2073264718055725 -0.07829596102237701 0.9956872463226318
v -0.039157718420028687 -0.06824420392513275 0.8603494167327881
v 0.1050330102443695 -0.07183387130498886 0.9118216037750244
v 0.28694915771484375 -0.08226405084133148 1.043197512626648
v -0.4627830684185028 -0.0832013413310051 1.0680478811264038
v -0.2896129786968231 -0.0825667604804039 1.0692229270935059
v -0.09936587512493134 -0.06875558942556381 0.8958094120025635
v 0.04431754723191261 -0.0677742287516594 0.8735589385032654
v 0.22107045352458954 -0.08118567615747452 1.048783779144287
v 0.3853739798069 -0.07951122522354126 1.033884048461914
v -0.35745489597320557 -0.08117259293794632 1.0681265592575073
v -0.1748727560043335 -0.0759042426943779 0.9975685477256775
v -0.011126436293125153 -0.0655442327260971 0.8654230833053589
v 0.1342925727367401 -0.06881622225046158 0.9117883443832397
v 0.3203633725643158 -0.07829755544662476 1.0398857593536377
v -0.4255346953868866 -0.07906192541122437 1.0678117275238037
v -0.2539477050304413 -0.07901884615421295 1.0687708854675293
v -0.06491667032241821 -0.06407782435417175 0.8634382486343384
v 0.0738050639629364 -0.06516677886247635 0.8821300864219666
v 0.2564888000488281 -0.07737459242343903 1.0462124347686768
v 0.4193718731403351 -0.0758233591914177 1.0302876234054565
v -0.32174253463745117 -0.07762181758880615 1.0688546895980835
v -0.12716056406497955 -0.06553561985492706 0.9050483703613281
v 0.018168536946177483 -0.06187429279088974 0.8614121079444885
v 0.17139802873134613 -0.06840861588716507 0.9432944655418396
v 0.35460078716278076 -0.0744752436876297 1.036620855331421
v -0.3891734182834625 -0.07575713098049164 1.0677720308303833
v -0.20363536477088928 -0.07014817744493484 0.9952515959739685
v -0.0365019366145134 -0.06118159368634224 0.8624429702758789
v 0.1085512638092041 -0.0647011250257492 0.9136465191841125
v 0.2903085947036743 -0.0734831839799881 1.0426210165023804
v -0.4586344063282013 -0.07431934773921967 1.0677846670150757
v -0.2859504520893097 -0.07369225472211838 1.0692236423492432
v -0.09681318700313568 -0.06168975681066513 0.8948495984077454
v 0.046712711453437805 -0.05950469151139259 0.8686504364013672
v 0.22455808520317078 -0.07235046476125717 1.0481033325195312
v 0.3887052834033966 -0.07067025452852249 1.0332852602005005
v -0.3538292646408081 -0.07222428917884827 1.0680079460144043
v -0.17230075597763062 -0.06812329590320587 1.0005948543548584
v -0.008302297443151474 -0.05885859578847885 0.867306113243103
v 0.13678793609142303 -0.06116950139403343 0.9099158644676208
v 0.3236433267593384 -0.06949803978204727 1.0392813682556152
v -0.42183125019073486 -0.07022857666015625 1.0676077604293823
v -0.2503495514392853 -0.07009410858154297 1.0684971809387207
v -0.06243295222520828 -0.05695740878582001 0.86589515209198
v 0.07649390399456024 -0.0578002966940403 0.8791942596435547
v 0.25993719696998596 -0.06851813942193985 1.0457210540771484
v 0.42267897725105286 -0.0670616552233696 1.0295072793960571
v -0.318138986825943 -0.06860452890396118 1.0688191652297974
v -0.12293752282857895 -0.05765604227781296 0.8976708650588989
v 0.0207012090831995 -0.054691530764102936 0.85918790102005
v 0.17470557987689972 -0.06029229238629341 0.9423360228538513
v 0.3578964173793793 -0.06565564125776291 1.0360753536224365
v -0.38559722900390625 -0.06683941185474396 1.0676236152648926
v -0.2005574256181717 -0.06205056980252266 0.995402991771698
v -0.03406020998954773 -0.05417032912373543 0.8642448782920837
v 0.11141574382781982 -0.057966455817222595 0.9126675724983215
v 0.29358306527137756 -0.0646614208817482 1.0419917106628418
v -0.4549279510974884 -0.06533782184123993 1.0676138401031494
v -0.28240591287612915 -0.06474238634109497 1.0692429542541504
v -0.09226353466510773 -0.05381200090050697 0.8860298991203308
v 0.04970688372850418 -0.05204804986715317 0.8674444556236267
v 0.22801810503005981 -0.06365003436803818 1.0477023124694824
v 0.39199134707450867 -0.06174429506063461 1.032577395439148
v -0.35020363330841064 -0.0631483942270279 1.0679574012756348
v -0.16974709928035736 -0.060456905514001846 1.002593755722046
v -0.005099007394164801 -0.05063944309949875 0.8625268936157227
v 0.13962800800800323 -0.053498875349760056 0.9095896482467651
v 0.32688120007514954 -0.06068318709731102 1.0386899709701538
v -0.4180774688720703 -0.061335016041994095 1.0675119161605835
v -0.24673965573310852 -0.06093054264783859 1.0682485103607178
v -0.059775933623313904 -0.04984321445226669 0.8670721054077148
v 0.07896693795919418 -0.049176812171936035 0.8724069595336914
v 0.2633070647716522 -0.059623394161462784 1.0451817512512207
v 0.42599284648895264 -0.05832123011350632 1.028688669204712
v -0.31458786129951477 -0.059509098529815674 1.068761944770813
v -0.11901632696390152 -0.04992615059018135 0.8929383754730225
v 0.02345043048262596 -0.04752172529697418 0.8591041564941406
v 0.17763027548789978 -0.05244849994778633 0.9424548149108887
v 0.361122727394104 -0.05678301677107811 1.0355033874511719
v -0.3819881081581116 -0.057847462594509125 1.0674982070922852
v -0.19735416769981384 -0.053980953991413116 0.9965148568153381
v -0.030518051236867905 -0.046342115849256516 0.8595489859580994
v 0.1105991080403328 -0.04728216677904129 0.8920888304710388
v 0.2968336045742035 -0.05579281225800514 1.0413767099380493
v -0.4512917101383209 -0.05629248172044754 1.0674586296081543
v -0.27884161472320557 -0.05571882054209709 1.0692408084869385
v -0.08645753562450409 -0.04564867541193962 0.8747177124023438
v 0.05264417827129364 -0.04502692073583603 0.8676433563232422
v 0.2315559834241867 -0.05484844371676445 1.0474681854248047
v 0.3952088952064514 -0.052897337824106216 1.031868577003479
v -0.3465689420700073 -0.05406421050429344 1.0679391622543335
v -0.1521032750606537 -0.047136031091213226 0.9292249083518982
v -0.0020464390981942415 -0.04349915310740471 0.861315906047821
v 0.14279702305793762 -0.04601675644516945 0.9107582569122314
v 0.33018791675567627 -0.05179476737976074 1.0380934476852417
v -0.41435882449150085 -0.05242099240422249 1.067419171333313
v -0.24311287701129913 -0.05181927606463432 1.0680607557296753
v -0.05683009326457977 -0.04233582690358162 0.8637422323226929
v 0.08166080713272095 -0.04205406829714775 0.8700085878372192
v 0.2666453719139099 -0.050666939467191696 1.0447320938110352
v 0.4293564260005951 -0.049674827605485916 1.0278961658477783
v -0.31098470091819763 -0.0504005141556263 1.0687028169631958
v -0.11576593667268753 -0.04243535175919533 0.8900979161262512
v 0.026355933398008347 -0.040164414793252945 0.8561567664146423
v 0.18118460476398468 -0.044745929539203644 0.9440101981163025
v 0.36440783739089966 -0.0480002798140049 1.0349067449569702
v -0.3782741129398346 -0.04886564239859581 1.0674047470092773
v -0.19466717541217804 -0.04564661160111427 0.9980299472808838
v -0.027598902583122253 -0.038851357996463776 0.8553362488746643
v 0.11232485622167587 -0.039499614387750626 0.8836633563041687
v 0.30010855197906494 -0.04683887958526611 1.04074227809906
v -0.4474731683731079 -0.04724891483783722 1.0672705173492432
v -0.2752978205680847 -0.04668623208999634 1.0691906213760376
v -0.08265186101198196 -0.03822550177574158 0.8696079850196838
v 0.055501602590084076 -0.03785232454538345 0.8688644170761108
v 0.2349899858236313 -0.045687947422266006 1.047284483909607
v 0.3984687328338623 -0.04421396926045418 1.0311518907546997
v -0.3428992033004761 -0.04501248896121979 1.0679326057434082
v -0.14702686667442322 -0.03876608610153198 0.9142552614212036
v 0.001055277418345213 -0.036509159952402115 0.8572640419006348
v 0.14644162356853485 -0.03857946768403053 0.9129903316497803
v 0.33356189727783203 -0.04299614951014519 1.0375378131866455
v -0.4105902314186096 -0.04347504302859306 1.0673134326934814
v -0.23953557014465332 -0.04273058846592903 1.0679402351379395
v -0.053852781653404236 -0.03492029756307602 0.8613024950027466
v 0.08425585180521011 -0.03444814309477806 0.866877555847168
v 0.2699406147003174 -0.04176484793424606 1.044249176979065
v 0.43256181478500366 -0.04109163209795952 1.0271133184432983
v -0.3074786961078644 -0.041338153183460236 1.0686317682266235
v -0.11259806156158447 -0.03486717864871025 0.8882354497909546
v 0.029073555022478104 -0.03305765986442566 0.8556292057037354
v 0.18487296998500824 -0.03633439540863037 0.9482278823852539
v 0.3677741587162018 -0.03934445232152939 1.0342897176742554
v -0.3745259940624237 -0.03987579047679901 1.0673197507858276
v -0.1908649355173111 -0.03640102967619896 0.9998637437820435
v -0.02484208159148693 -0.0317295640707016 0.8535926938056946
v 0.11467044055461884 -0.0319068469107151 0.8793236613273621
v 0.30336806178092957 -0.03804846107959747 1.0401546955108643
v -0.44346165657043457 -0.038150131702423096 1.06703519821167
v -0.27176058292388916 -0.03764582797884941 1.0691155195236206
v -0.07957915961742401 -0.030853135511279106 0.8662962317466736
v 0.058299992233514786 -0.030578691512346268 0.8662981390953064
v 0.23871396481990814 -0.036807555705308914 1.0468899011611938
v 0.40170055627822876 -0.03576956316828728 1.0304688215255737
v -0.33921515941619873 -0.03604811057448387 1.067895770072937
v -0.1414373219013214 -0.03029683604836464 0.9021242260932922
v 0.0036572248209267855 -0.028318610042333603 0.8507893085479736
v 0.14949600398540497 -0.030613886192440987 0.9106962084770203
v 0.3369148373603821 -0.03431867063045502 1.0369495153427124
v -0.40677323937416077 -0.03448852524161339 1.067129373550415
v -0.2360428124666214 -0.033863410353660583 1.0676475763320923
v -0.0501086451113224 -0.027289610356092453 0.8564451932907104
v 0.08695615828037262 -0.027106601744890213 0.8646201491355896
v 0.27319881319999695 -0.033082347363233566 1.0437101125717163
v 0.43572476506233215 -0.03258911892771721 1.02641761302948
v -0.30405035614967346 -0.03237031400203705 1.0684980154037476
v -0.1096184030175209 -0.027255915105342865 0.887092649936676
v 0.03186411038041115 -0.02573014795780182 0.8584076166152954
v 0.18959476053714752 -0.02879585698246956 0.9540325999259949
v 0.3711455166339874 -0.030819840729236603 1.0336265563964844
v -0.370781809091568 -0.030905213207006454 1.0671871900558472
v -0.17808882892131805 -0.02611374855041504 0.9536141753196716
v -0.021716900169849396 -0.023981260135769844 0.8502908945083618
v 0.11718166619539261 -0.024607351049780846 0.8771636486053467
v 0.30664077401161194 -0.029362890869379044 1.039589285850525
v -0.43957167863845825 -0.029026813805103302 1.0666834115982056
v -0.2682042121887207 -0.028687788173556328 1.0689277648925781
v -0.07673785090446472 -0.023633498698472977 0.8647160530090332
v 0.06105200573801994 -0.02317267842590809 0.8616761565208435
v 0.24229158461093903 -0.028145113959908485 1.0464527606964111
v 0.4050229787826538 -0.027309434488415718 1.0298421382904053
v -0.3355216383934021 -0.02716168761253357 1.0677986145019531
v -0.1374519169330597 -0.022552909329533577 0.8968985676765442
v 0.006423365790396929 -0.021401580423116684 0.8504335880279541
v 0.1522931605577469 -0.023159999400377274 0.9084268808364868
v 0.3403094708919525 -0.025753140449523926 1.0364028215408325
v -0.40300434827804565 -0.025447949767112732 1.0668522119522095
v -0.23246555030345917 -0.02501380443572998 1.0672266483306885
v -0.04727351665496826 -0.020183634012937546 0.8544784188270569
v 0.08973440527915955 -0.0199311301112175 0.8624936938285828
v 0.27657628059387207 -0.02435806207358837 1.0431474447250366
v 0.43922480940818787 -0.024062568321824074 1.0258287191390991
v -0.3006459176540375 -0.02344142273068428 1.068257212638855
v -0.1070161983370781 -0.019631801173090935 0.888465404510498
v 0.03501188009977341 -0.018778959289193153 0.857886016368866
v 0.1942007839679718 -0.021160075441002846 0.9585139751434326
v 0.37459316849708557 -0.02222631685435772 1.0329670906066895
v -0.36705589294433594 -0.02194012887775898 1.0669662952423096
v -0.17141322791576385 -0.018139906227588654 0.9300402402877808
v -0.01860341988503933 -0.017020538449287415 0.8484036326408386
v 0.11987929791212082 -0.017291974276304245 0.876142144203186
v 0.3099677562713623 -0.02071010135114193 1.039056420326233
v -0.4356496334075928 -0.01996977999806404 1.0662710666656494
v -0.2645954489707947 -0.019817393273115158 1.0685938596725464
v -0.07421087473630905 -0.01641351729631424 0.8652349710464478
v 0.06354508548974991 -0.015806088224053383 0.8595404624938965
v 0.2458437830209732 -0.019461819902062416 1.0462006330490112
v 0.4083589017391205 -0.018777091056108475 1.0292857885360718
v -0.33188024163246155 -0.018270203843712807 1.0675990581512451
v -0.1342453509569168 -0.015084479935467243 0.8959997296333313
v 0.009219319559633732 -0.014318352565169334 0.851686418056488
v 0.1552489995956421 -0.015680212527513504 0.9074046611785889
v 0.3436938226222992 -0.01718938536942005 1.0358988046646118
v -0.39923807978630066 -0.016407795250415802 1.066483974456787
v -0.22880662977695465 -0.016129905357956886 1.066765546798706
v -0.04480558633804321 -0.013166937045753002 0.8544978499412537
v 0.09229922294616699 -0.01278640329837799 0.8604143857955933
v 0.2800067365169525 -0.0156612116843462 1.0425323247909546
v 0.443666011095047 -0.015281128697097301 1.0251705646514893
v -0.2968280017375946 -0.014532140456140041 1.0681010484695435
v -0.10439663380384445 -0.011706463992595673 0.8896181583404541
v 0.03792668133974075 -0.011711535975337029 0.8599737286567688
v 0.19895024597644806 -0.013385419733822346 0.9616373181343079
v 0.3779735267162323 -0.013572141528129578 1.032331109046936
v -0.3634171485900879 -0.012928131967782974 1.066626787185669
v -0.16740474104881287 -0.010777554474771023 0.9234998822212219
v -0.015780162066221237 -0.01000779028981924 0.8455543518066406
v 0.1230064183473587 -0.010110139846801758 0.8772833347320557
v 0.3132687509059906 -0.01205567829310894 1.0384997129440308
v -0.4317101240158081 -0.010967173613607883 1.0657894611358643
v -0.2609529495239258 -0.010981873609125614 1.0682060718536377
v -0.07198801636695862 -0.008898316882550716 0.86747807264328
v 0.06644568592309952 -0.008583943359553814 0.8603686094284058
v 0.24937264621257782 -0.010832932777702808 1.0458875894546509
v 0.4117267429828644 -0.010129760019481182 1.0287104845046997
v -0.32828888297080994 -0.009339290671050549 1.067307710647583
v -0.13144077360630035 -0.00756232300773263 0.8982438445091248
v 0.012053214944899082 -0.007178210187703371 0.8507553339004517
v 0.1586286425590515 -0.008044155314564705 0.9074852466583252
v 0.3470357656478882 -0.008599845692515373 1.0353690385818481
v -0.39539963006973267 -0.007400640286505222 1.0660617351531982
v -0.22512024641036987 -0.007391178514808416 1.066494107246399
v -0.04174688458442688 -0.0060586282052099705 0.8522133827209473
v 0.0949133038520813 -0.005699986591935158 0.8591535091400146
v 0.2833932340145111 -0.006921258755028248 1.0418813228607178
v -0.4676736891269684 -0.005960754118859768 1.0649218559265137
v -0.29302191734313965 -0.005620275624096394 1.0678794384002686
v -0.10160509496927261 -0.003977940417826176 0.8909000754356384
v 0.040799837559461594 -0.004684021230787039 0.8605805039405823
v 0.2030586302280426 -0.005344794597476721 0.9642150402069092
v 0.38133054971694946 -0.00486221956089139 1.031686544418335
v -0.35976025462150574 -0.003941201139241457 1.0662089586257935
v -0.16361673176288605 -0.003362843533977866 0.9195568561553955
v -0.013109204359352589 -0.003049608087167144 0.8437556624412537
v 0.12677307426929474 -0.0032096747308969498 0.8825278282165527
v 0.31658923625946045 -0.0034208663273602724 1.0379310846328735
v -0.42776861786842346 -0.002085332293063402 1.0652358531951904
v -0.25727543234825134 -0.0022637771908193827 1.0677231550216675
v -0.06937121599912643 -0.0016221620608121157 0.8680181503295898
v 0.06953402608633041 -0.001398470252752304 0.8613259792327881
v 0.2528725564479828 -0.0021334916818886995 1.045303225517273
v 0.41511261463165283 -0.0015810977201908827 1.028143048286438
v -0.3246243894100189 -0.00037577448529191315 1.066936731338501
v -0.12792164087295532 -0.00031791930086910725 0.8959704637527466
v 0.014950921759009361 -0.0004960923106409609 0.8506569266319275
v 0.16246409714221954 -0.0005077956011518836 0.9093721508979797
v 0.3504495918750763 2.7402678824728355e-05 1.0347905158996582
v -0.3915621042251587 0.0014441456878557801 1.065596342086792
v -0.22140833735466003 0.0009234515600837767 1.0661301612854004
v -0.03775673732161522 0.0009861548896878958 0.8464288711547852
v 0.0976952537894249 0.0010288552148267627 0.8595845699310303
v 0.2867407500743866 0.001774884993210435 1.0412839651107788
v -0.4606839120388031 0.0027279583737254143 1.0646770000457764
v -0.2892678380012512 0.003253900445997715 1.0675618648529053
v -0.0982268825173378 0.002629391150549054 0.8884019255638123
v 0.04356275126338005 0.0021920809522271156 0.8589536547660828
v 0.207123801112175 0.0030850584153085947 0.9677872657775879
v 0.3846445679664612 0.003733511082828045 1.031090497970581
v -0.3560119867324829 0.005059617105871439 1.0657763481140137
v -0.15936975181102753 0.003965411335229874 0.9144715070724487
v -0.010408521629869938 0.003806052263826132 0.8433352112770081
v 0.13298459351062775 0.004385421052575111 0.895689845085144
v 0.3199327290058136 0.005174976773560047 1.0373592376708984
v -0.42387571930885315 0.0067094056867063046 1.0646858215332031
v -0.2536701261997223 0.0064323837868869305 1.0671567916870117
v -0.06542063504457474 0.0053823161870241165 0.863701581954956
v 0.07224022597074509 0.005295522045344114 0.8585767149925232
v 0.2562301456928253 0.006720215547829866 1.0446773767471313
v 0.4185088574886322 0.006844019517302513 1.0275570154190063
v -0.3209218382835388 0.008655993267893791 1.066535472869873
v -0.12440881878137589 0.0070313625037670135 0.8925150632858276
v 0.017786825075745583 0.006521385628730059 0.8488465547561646
v 0.1667582392692566 0.0067663551308214664 0.9144565463066101
v 0.35381844639778137 0.008586937561631203 1.0341252088546753
v -0.3878164291381836 0.01040597353130579 1.0651357173919678
v -0.1924148052930832 0.009518865495920181 0.938099205493927
v -0.035004254430532455 0.007857153192162514 0.8443272113800049
v 0.10080078989267349 0.008053008466959 0.861916184425354
v 0.2900238335132599 0.010356844402849674 1.0406464338302612
v -0.4563789963722229 0.01144255418330431 1.0639252662658691
v -0.2856457829475403 0.012179989367723465 1.0671688318252563
v -0.09273526817560196 0.0098929638043046 0.8783678412437439
v 0.046101316809654236 0.009655630216002464 0.8526685237884521
v 0.21148760616779327 0.011202918365597725 0.9722594022750854
v 0.3879203200340271 0.012230964377522469 1.0304573774337769
v -0.35225173830986023 0.014186954125761986 1.0653778314590454
v -0.15492390096187592 0.011193717829883099 0.9086685180664062
v -0.007602647878229618 0.010846078395843506 0.8432934880256653
v 0.13733325898647308 0.012005585245788097 0.9048218727111816
v 0.3231617510318756 0.013694139197468758 1.0368094444274902
v -0.4199744462966919 0.015639742836356163 1.0641695261001587
v -0.2501446008682251 0.015256473794579506 1.0665643215179443
v -0.061833709478378296 0.01240037102252245 0.8591596484184265
v 0.07523693889379501 0.012288118712604046 0.8588860630989075
v 0.25957491993904114 0.015641896054148674 1.0440709590911865
v 0.4218659996986389 0.015280943363904953 1.0268940925598145
v -0.3172207176685333 0.017710087820887566 1.066150426864624
v -0.1216176226735115 0.014538465067744255 0.8915112614631653
v 0.02052312344312668 0.013793719932436943 0.8496377468109131
v 0.18079155683517456 0.016759073361754417 0.9725736379623413
v 0.3570620119571686 0.01711164601147175 1.0334053039550781
v -0.3840457499027252 0.01934967376291752 1.0646883249282837
v -0.18772009015083313 0.016863936558365822 0.9293805956840515
v -0.032341014593839645 0.014763835817575455 0.8430649638175964
v 0.1044158861041069 0.015381870791316032 0.8686462044715881
v 0.293292760848999 0.018841547891497612 1.040016770362854
v -0.45242127776145935 0.020301930606365204 1.0632266998291016
v -0.28201061487197876 0.021095113828778267 1.0667222738265991
v -0.08976505696773529 0.016976771876215935 0.875198483467102
v 0.04860610514879227 0.016681551933288574 0.8495143055915833
v 0.22727522253990173 0.021115990355610847 1.0453269481658936
v 0.39120250940322876 0.020671894773840904 1.029827356338501
v -0.34849825501441956 0.02309555560350418 1.0649476051330566
v -0.15121778845787048 0.018761515617370605 0.9053042531013489
v -0.004692991729825735 0.017899271100759506 0.8444849252700806
v 0.1399538815021515 0.019212160259485245 0.9050008058547974
v 0.3263876438140869 0.022219611331820488 1.036252498626709
v -0.41605591773986816 0.0244276225566864 1.0636745691299438
v -0.2465347945690155 0.024274997413158417 1.065947413444519
v -0.05933275446295738 0.019346753135323524 0.8580619096755981
v 0.0786396861076355 0.019650550559163094 0.8639470934867859
v 0.2630039155483246 0.024437464773654938 1.04347825050354
v 0.4253089129924774 0.02379673160612583 1.026124119758606
v -0.31348878145217896 0.02656053565442562 1.065750002861023
v -0.11866358667612076 0.02183590643107891 0.8904196619987488
v 0.02350703813135624 0.02090405486524105 0.8528311848640442
v 0.18375559151172638 0.02470998652279377 0.9742211103439331
v 0.36022430658340454 0.025612303987145424 1.032731294631958
v -0.38010695576667786 0.028013020753860474 1.0641882419586182
v -0.18369530141353607 0.024409517645835876 0.9247023463249207
v -0.029711462557315826 0.021615423262119293 0.8427929878234863
v 0.10794540494680405 0.02292778715491295 0.8744204640388489
v 0.29654380679130554 0.02731458470225334 1.039397120475769
v -0.4486580789089203 0.029206329956650734 1.062591314315796
v -0.27833813428878784 0.029912801459431648 1.0662317276000977
v -0.08719680458307266 0.02410260960459709 0.8747481107711792
v 0.051139600574970245 0.023561634123325348 0.847823977470398
v 0.23159539699554443 0.02945869043469429 1.046399712562561
v 0.394535094499588 0.029161514714360237 1.029192328453064
v -0.34470123052597046 0.03175337612628937 1.0644919872283936
v -0.14723409712314606 0.026456216350197792 0.9013143181800842
v -0.0019248039461672306 0.024801168590784073 0.8466742634773254
v 0.14209866523742676 0.02660427801311016 0.9010592699050903
v 0.3296176493167877 0.03072085604071617 1.0356837511062622
v -0.4120931625366211 0.033136770129203796 1.0632035732269287
v -0.24282030761241913 0.03323652595281601 1.0651365518569946
v -0.05666719377040863 0.026506677269935608 0.8581821918487549
v 0.08177702873945236 0.026743168011307716 0.8662842512130737
v 0.2664259374141693 0.03312421962618828 1.0429227352142334
v 0.428626149892807 0.03234400600194931 1.0252830982208252
v -0.30984753370285034 0.03530105948448181 1.0653342008590698
v -0.11583200842142105 0.029308374971151352 0.8903082609176636
v 0.0262755136936903 0.027886921539902687 0.8511546850204468
v 0.18713459372520447 0.032274194061756134 0.9753471612930298
v 0.36334243416786194 0.034076791256666183 1.03203284740448
v -0.3762550354003906 0.03668410703539848 1.0636769533157349
v -0.17996905744075775 0.03212452679872513 0.9230773448944092
v -0.027081890031695366 0.028576167300343513 0.8436558842658997
v 0.11161525547504425 0.03075612336397171 0.8796164989471436
v 0.29972413182258606 0.03586110845208168 1.0387829542160034
v -0.4447717070579529 0.03816433623433113 1.0619620084762573
v -0.2747136056423187 0.03871598467230797 1.0656347274780273
v -0.08477367460727692 0.031342510133981705 0.8768694996833801
v 0.05402607098221779 0.030480723828077316 0.847725510597229
v 0.23537908494472504 0.03807850554585457 1.0464402437210083
v 0.39775481820106506 0.037611812353134155 1.0284513235092163
v -0.3408896327018738 0.04048798605799675 1.064051866531372
v -0.14341723918914795 0.03400247544050217 0.898033082485199
v 0.0008933881763368845 0.031850725412368774 0.8501300811767578
v 0.14517949521541595 0.03401556238532066 0.8995963931083679
v 0.33282217383384705 0.03911912068724632 1.0350431203842163
v -0.40821903944015503 0.04188799858093262 1.0627269744873047
v -0.23914609849452972 0.04212034121155739 1.064165711402893
v -0.053986962884664536 0.03399399295449257 0.8593859672546387
v 0.08491760492324829 0.03429088369011879 0.8687757253646851
v 0.26974058151245117 0.04174445942044258 1.0423378944396973
v 0.43159011006355286 0.04093669727444649 1.0244245529174805
v -0.30633264780044556 0.04413343220949173 1.0648671388626099
v -0.11305347830057144 0.03694147244095802 0.8911674618721008
v 0.029034174978733063 0.03476173058152199 0.8505872488021851
v 0.19056980311870575 0.04046157747507095 0.9762924909591675
v 0.36645957827568054 0.04254268482327461 1.0313405990600586
v -0.3723943829536438 0.04554106295108795 1.0631444454193115
v -0.17677171528339386 0.04002512991428375 0.9225526452064514
v -0.02440892904996872 0.035703256726264954 0.8460609912872314
v 0.11601128429174423 0.03880639374256134 0.887740433216095
v 0.3028915822505951 0.04448992386460304 1.0381872653961182
v -0.440656453371048 0.04714919999241829 1.0613384246826172
v -0.27106401324272156 0.04763459786772728 1.0649738311767578
v -0.08059532940387726 0.03882051631808281 0.8721144795417786
v 0.05705166608095169 0.03755572810769081 0.8498179316520691
v 0.23898348212242126 0.04692620784044266 1.0463858842849731
v 0.4009939432144165 0.04619167000055313 1.0276798009872437
v -0.33703795075416565 0.04939211905002594 1.0635987520217896
v -0.13979382812976837 0.04130418598651886 0.8937355279922485
v 0.0037577750626951456 0.038856182247400284 0.8481128215789795
v 0.14824780821800232 0.04147421941161156 0.9003762006759644
v 0.33611252903938293 0.047600798308849335 1.0343326330184937
v -0.4042983949184418 0.050819214433431625 1.062208652496338
v -0.23521915078163147 0.05115458369255066 1.0629884004592896
v -0.051122505217790604 0.041159968823194504 0.8601490259170532
v 0.08866667747497559 0.042875513434410095 0.8782469034194946
v 0.273027628660202 0.050335273146629333 1.0416862964630127
v 0.43463990092277527 0.04966362938284874 1.0234769582748413
v -0.302837073802948 0.05307749658823013 1.0643503665924072
v -0.11012467741966248 0.04444257169961929 0.893467903137207
v 0.03179683908820152 0.04190833866596222 0.8518384695053101
v 0.19470149278640747 0.049086134880781174 0.9774172902107239
v 0.36971351504325867 0.051171641796827316 1.0306466817855835
v -0.36842581629753113 0.05457860231399536 1.062573790550232
v -0.17385849356651306 0.04803827404975891 0.923255443572998
v -0.021771874278783798 0.043228309601545334 0.8496760129928589
v 0.11913655698299408 0.04569379240274429 0.8889609575271606
v 0.30609092116355896 0.05316900834441185 1.0375841856002808
v -0.4365798532962799 0.05612237751483917 1.060765266418457
v -0.26742565631866455 0.05662975087761879 1.0641480684280396
v -0.07682003825902939 0.04580719396471977 0.867601215839386
v 0.06037593260407448 0.045282889157533646 0.8559508919715881
v 0.24264289438724518 0.055874574929475784 1.0459630489349365
v 0.4042476713657379 0.05483834072947502 1.0269182920455933
v -0.3331729769706726 0.05835052207112312 1.0631436109542847
v -0.13648191094398499 0.048701539635658264 0.8922804594039917
v 0.006495214998722076 0.04569192975759506 0.847594141960144
v 0.15189899504184723 0.04924607649445534 0.9028200507164001
v 0.3394520878791809 0.05627964809536934 1.0335415601730347
v -0.4002988636493683 0.059863097965717316 1.0616580247879028
v -0.23060168325901031 0.059283528476953506 1.0610976219177246
v -0.048439785838127136 0.04861254245042801 0.8624670505523682
v 0.0916157066822052 0.04983646422624588 0.8804128766059875
v 0.27630287408828735 0.058822356164455414 1.040959119796753
v 0.4380401372909546 0.05820582062005997 1.0225203037261963
v -0.2990938425064087 0.06203416734933853 1.0638023614883423
v -0.10700684785842896 0.05173548683524132 0.8903833031654358
v 0.034594859927892685 0.04919808357954025 0.8541251420974731
v 0.19870851933956146 0.05765337124466896 0.9774779081344604
v 0.3729420304298401 0.05981737747788429 1.029891848564148
v -0.36442437767982483 0.06366821378469467 1.0619720220565796
v -0.17082181572914124 0.055996958166360855 0.9290704727172852
v -0.019083665683865547 0.05050984025001526 0.8524868488311768
v 0.1220671758055687 0.05269888415932655 0.8883100748062134
v 0.30927953124046326 0.06180684268474579 1.0368542671203613
v -0.43242377042770386 0.06507068872451782 1.0601627826690674
v -0.26377278566360474 0.06563029438257217 1.0630362033843994
v -0.0740867629647255 0.05279204249382019 0.8661637306213379
v 0.06391754001379013 0.05286330729722977 0.8622552752494812
v 0.24604110419750214 0.06461060792207718 1.045289158821106
v 0.40741461515426636 0.0633193701505661 1.0261355638504028
v -0.32938674092292786 0.06722740828990936 1.0626007318496704
v -0.13355574011802673 0.056106388568878174 0.8928990960121155
v 0.009193897247314453 0.05308866128325462 0.8501070141792297
v 0.1577075868844986 0.05768544599413872 0.9114676713943481
v 0.3427083492279053 0.06501145660877228 1.032691240310669
v -0.3962897062301636 0.06894794851541519 1.0609906911849976
v -0.22511515021324158 0.06841210275888443 1.050180196762085
v -0.04556117206811905 0.05615938454866409 0.8651779294013977
v 0.0947299599647522 0.056765567511320114 0.8789095878601074
v 0.2794843018054962 0.06732892245054245 1.0401792526245117
v 0.4426841735839844 0.06680072844028473 1.021423101425171
v -0.29546114802360535 0.07098093628883362 1.0630302429199219
v -0.10229243338108063 0.05869279056787491 0.8833032846450806
v 0.03765418380498886 0.057026442140340805 0.8584548830986023
v 0.20298288762569427 0.06658071279525757 0.981824517250061
v 0.37615635991096497 0.0685439333319664 1.0291019678115845
v -0.36052075028419495 0.0726618766784668 1.0613166093826294
v -0.1678362935781479 0.06361746788024902 0.9337501525878906
v -0.016370864585042 0.058022186160087585 0.8555644154548645
v 0.12498711794614792 0.06004367023706436 0.8875899910926819
v 0.31249579787254333 0.07046043127775192 1.0360400676727295
v -0.42832043766975403 0.07397671788930893 1.0594587326049805
v -0.2602020800113678 0.07457306981086731 1.061782956123352
v -0.07143701612949371 0.06008562445640564 0.8676937222480774
v 0.06714800745248795 0.06003190949559212 0.8648713827133179
v 0.24940483272075653 0.07318101823329926 1.04430091381073
v 0.410525918006897 0.071742482483387 1.0253428220748901
v -0.3256131112575531 0.07608263939619064 1.061933159828186
v -0.13049690425395966 0.06334798783063889 0.8922830820083618
v 0.012065105140209198 0.062040574848651886 0.8603377342224121
v 0.17856180667877197 0.07343051582574844 1.041764736175537
v 0.34592965245246887 0.07384641468524933 1.0318455696105957
v -0.39231398701667786 0.0779741182923317 1.0602411031723022
v -0.22058004140853882 0.07734107971191406 1.0459988117218018
v -0.04295020177960396 0.06361313909292221 0.8677009344100952
v 0.09754197299480438 0.06369155645370483 0.8767086267471313
v 0.2826894223690033 0.07589661329984665 1.0393940210342407
v -0.4643344283103943 0.07827315479516983 1.057658314704895
v -0.29176539182662964 0.07983627915382385 1.0620911121368408
v -0.09909127652645111 0.06563624739646912 0.8807625770568848
v 0.040821075439453125 0.06424761563539505 0.8617087602615356
v 0.21768221259117126 0.07863647490739822 1.0459327697753906
v 0.3794226348400116 0.07729075849056244 1.0283704996109009
v -0.35668274760246277 0.08149080723524094 1.060625433921814
v -0.18323256075382233 0.08053124696016312 1.027935266494751
v -0.013314326293766499 0.06580253690481186 0.8602902889251709
v 0.12808458507061005 0.06751366704702377 0.8881097435951233
v 0.3157230615615845 0.07904921472072601 1.0351524353027344
v -0.4242827892303467 0.08293602615594864 1.058658242225647
v -0.25659096240997314 0.08356073498725891 1.0598547458648682
v -0.06913832575082779 0.06779373437166214 0.8715359568595886
v 0.06984404474496841 0.06714563816785812 0.8661432862281799
v 0.25266411900520325 0.08164967596530914 1.0432988405227661
v 0.41366350650787354 0.08031804859638214 1.0245355367660522
v -0.32187601923942566 0.08486156165599823 1.0611844062805176
v -0.1274273693561554 0.07071873545646667 0.8919966220855713
v 0.014982814900577068 0.06919614970684052 0.8625615239143372
v 0.18452687561511993 0.083780437707901 1.0473259687423706
v 0.3491213917732239 0.08256389200687408 1.0310180187225342
v -0.3883877694606781 0.08684295415878296 1.0594515800476074
v -0.21611754596233368 0.08571924269199371 1.0422922372817993
v -0.039917055517435074 0.07050856202840805 0.8674403429031372
v 0.10022906959056854 0.0708804726600647 0.876714825630188
v 0.2858700454235077 0.08438820391893387 1.0385226011276245
v -0.45644018054008484 0.0876249447464943 1.0570857524871826
v -0.28804129362106323 0.0886121615767479 1.0609896183013916
v -0.09627431631088257 0.0728028193116188 0.8805518746376038
v 0.04348234459757805 0.07132367789745331 0.8597888350486755
v 0.22141997516155243 0.08724666386842728 1.045559048652649
v 0.3826755881309509 0.08593827486038208 1.0275993347167969
v -0.352914959192276 0.0901414081454277 1.0598292350769043
v -0.1599258929491043 0.07774511724710464 0.9247024655342102
v -0.0104109151288867 0.07258149981498718 0.8577995300292969
v 0.13142791390419006 0.0755242332816124 0.891463041305542
v 0.31898096203804016 0.08749059587717056 1.034118890762329
v -0.42020437121391296 0.09189572930335999 1.057829737663269
v -0.25299903750419617 0.0927756056189537 1.058282732963562
v -0.06681397557258606 0.07628623396158218 0.8802244663238525
v 0.07294996082782745 0.07505659013986588 0.8723779320716858
v 0.2559317350387573 0.09015562385320663 1.0422252416610718
v 0.4168069660663605 0.08890590816736221 1.023687481880188
v -0.31817498803138733 0.09368795901536942 1.0602829456329346
v -0.12420622259378433 0.0779755637049675 0.8900547623634338
v 0.018169425427913666 0.0755942165851593 0.8593013882637024
v 0.18876026570796967 0.09200771152973175 1.047035574913025
v 0.35221874713897705 0.09104396402835846 1.0301896333694458
v -0.38452762365341187 0.09546548128128052 1.058590292930603
v -0.21217584609985352 0.09407073259353638 1.039456844329834
v -0.036714352667331696 0.07738739997148514 0.86579829454422
v 0.10310618579387665 0.0783202201128006 0.8783318996429443
v 0.2890605628490448 0.09285669773817062 1.0376100540161133
v -0.4519546627998352 0.09645930677652359 1.056209683418274
v -0.28428196907043457 0.09745419025421143 1.0597999095916748
v -0.09378871321678162 0.08036872744560242 0.8837769627571106
v 0.04637521505355835 0.07819396257400513 0.8599376082420349
v 0.22490757703781128 0.09585955739021301 1.0450799465179443
v 0.3859211504459381 0.09436193108558655 1.026756763458252
v -0.3491508960723877 0.0988190695643425 1.0589702129364014
v -0.15689539909362793 0.08492062985897064 0.919278085231781
v -0.0075905234552919865 0.07943778485059738 0.8578876256942749
v 0.13508114218711853 0.08327316492795944 0.8936697244644165
v 0.3222435414791107 0.09590421617031097 1.0330619812011719
v -0.41620466113090515 0.10059893876314163 1.0568816661834717
v -0.2494887411594391 0.10177768021821976 1.0569039583206177
v -0.06454956531524658 0.08446662873029709 0.8856073617935181
v 0.07676667720079422 0.08347579091787338 0.8809170722961426
v 0.25913694500923157 0.0986354872584343 1.0411967039108276
v 0.419988751411438 0.09735381603240967 1.0228317975997925
v -0.31455084681510925 0.10254763811826706 1.0593012571334839
v -0.12122384458780289 0.08531240373849869 0.8902531862258911
v 0.021035434678196907 0.08224917948246002 0.8580756187438965
v 0.19289951026439667 0.10042472183704376 1.0466580390930176
v 0.355344295501709 0.0994330495595932 1.0293775796890259
v -0.38068315386772156 0.10400663316249847 1.05767822265625
v -0.20831622183322906 0.10234924405813217 1.0364875793457031
v -0.033175211399793625 0.08425598591566086 0.8633020520210266
v 0.10695034265518188 0.08663488179445267 0.884101390838623
v 0.29225894808769226 0.10130792111158371 1.0367045402526855
v -0.44785434007644653 0.10519934445619583 1.0552350282669067
v -0.2803930640220642 0.10633236169815063 1.058625340461731
v -0.09215138107538223 0.0893593579530716 0.8930772542953491
v 0.049390971660614014 0.0852646455168724 0.8615335822105408
v 0.2283034771680832 0.1044796034693718 1.0443942546844482
v 0.38915908336639404 0.10267162322998047 1.025881052017212
v -0.34541499614715576 0.10755522549152374 1.058101773262024
v -0.153657928109169 0.09317226707935333 0.919075608253479
v -0.004738328978419304 0.08673018962144852 0.8603553771972656
v 0.13895483314990997 0.09104295074939728 0.8956356048583984
v 0.32550618052482605 0.10429884493350983 1.0320051908493042
v -0.41228145360946655 0.10919296741485596 1.0558958053588867
v -0.24564041197299957 0.11035727709531784 1.0551183223724365
v -0.06148548796772957 0.09094182401895523 0.8836116790771484
v 0.0815422385931015 0.09127464890480042 0.8872498869895935
v 0.2622729241847992 0.10709594190120697 1.0402268171310425
v 0.42316707968711853 0.10556138306856155 1.021965742111206
v -0.3110172152519226 0.11141542345285416 1.0582728385925293
v -0.11883475631475449 0.09315495938062668 0.8934417366981506
v 0.023949014022946358 0.0891338586807251 0.8579172492027283
v 0.19666463136672974 0.10916564613580704 1.0463556051254272
v 0.3584730625152588 0.1077616885304451 1.0285248756408691
v -0.37687283754348755 0.11253228783607483 1.0567339658737183
v -0.20420673489570618 0.11059103906154633 1.0328878164291382
v -0.030675245448946953 0.09144702553749084 0.8638404607772827
v 0.11055945605039597 0.09446235746145248 0.8885152339935303
v 0.29540303349494934 0.10967684537172318 1.0357680320739746
v -0.44407403469085693 0.11392121762037277 1.0541969537734985
v -0.2765102684497833 0.1150597557425499 1.0574877262115479
v -0.09021223336458206 0.09833285957574844 0.9037047624588013
v 0.05262070149183273 0.09270000457763672 0.8649227023124695
v 0.23150892555713654 0.11303527653217316 1.0436197519302368
v 0.3923761546611786 0.11096595227718353 1.0249948501586914
v -0.3417244553565979 0.11634260416030884 1.0572394132614136
v -0.15167297422885895 0.10140325129032135 0.9230785965919495
v -0.0019247479503974319 0.09448534995317459 0.8656661510467529
v 0.1438692808151245 0.09925983846187592 0.9001582860946655
v 0.32860374450683594 0.11262153834104538 1.0309617519378662
v -0.4084489345550537 0.11769863218069077 1.0549038648605347
v -0.23859484493732452 0.1179795041680336 1.0489609241485596
v -0.05868371203541756 0.09809748083353043 0.8845545649528503
v 0.08481014519929886 0.09890751540660858 0.8902733325958252
v 0.2654351592063904 0.11549895256757736 1.0392553806304932
v 0.42617297172546387 0.11370266228914261 1.0211976766586304
v -0.3075825870037079 0.12020879983901978 1.0572210550308228
v -0.11697439849376678 0.10188809037208557 0.9019728899002075
v 0.026928529143333435 0.09621238708496094 0.8593523502349854
v 0.20038560032844543 0.11787666380405426 1.0456953048706055
v 0.3616628646850586 0.11608140170574188 1.0275896787643433
v -0.3730628490447998 0.12109068036079407 1.0557821989059448
v -0.20006093382835388 0.1188984215259552 1.0292229652404785
v -0.028242379426956177 0.09919242560863495 0.870489239692688
v 0.11376457661390305 0.10178058594465256 0.8888479471206665
v 0.29853200912475586 0.11802982538938522 1.0347034931182861
v -0.4401872158050537 0.12270913273096085 1.0530815124511719
v -0.27268171310424805 0.1236664429306984 1.0563535690307617
v -0.08775947988033295 0.10604557394981384 0.9069385528564453
v 0.05630425736308098 0.10086268186569214 0.872824490070343
v 0.2347184270620346 0.12153758108615875 1.0427751541137695
v 0.39556363224983215 0.11926523596048355 1.0241509675979614
v -0.3380443751811981 0.1250387281179428 1.056396245956421
v -0.16641007363796234 0.12206030637025833 1.025991678237915
v 0.0007698200643062592 0.10299546271562576 0.8737708330154419
v 0.15014247596263885 0.10832785815000534 0.9154002666473389
v 0.33164182305336 0.12092649936676025 1.0299873352050781
v -0.40458598732948303 0.12618817389011383 1.0538969039916992
v -0.23200498521327972 0.12474498152732849 1.0352708101272583
v -0.055973514914512634 0.10608319938182831 0.8884865641593933
v 0.08732117712497711 0.10653765499591827 0.8906129598617554
v 0.2685656249523163 0.12390051037073135 1.0382170677185059
v 0.4290113151073456 0.12182058393955231 1.020449161529541
v -0.30398404598236084 0.1288541853427887 1.056264042854309
v -0.11480838060379028 0.11033804714679718 0.9070743918418884
v 0.02979828603565693 0.1039113849401474 0.8643378019332886
v 0.20386886596679688 0.12668289244174957 1.044919490814209
v 0.36487606167793274 0.12435358762741089 1.0266262292861938
v -0.3693017363548279 0.12965093553066254 1.0548843145370483
v -0.195996955037117 0.12718558311462402 1.0258334875106812
v -0.026617294177412987 0.1100420281291008 0.8876934051513672
v 0.1175953596830368 0.10987110435962677 0.8909449577331543
v 0.30173009634017944 0.12640626728534698 1.033564567565918
v -0.43618568778038025 0.13145150244235992 1.0519540309906006
v -0.2688398063182831 0.13219809532165527 1.0552548170089722
v -0.08543054759502411 0.11406372487545013 0.9119159579277039
v 0.059745050966739655 0.1097429096698761 0.8832724690437317
v 0.2379535436630249 0.12997373938560486 1.0418879985809326
v 0.39867281913757324 0.1275588572025299 1.0233246088027954
v -0.33437687158584595 0.13362766802310944 1.0555835962295532
v -0.16209591925144196 0.13027921319007874 1.0238295793533325
v 0.0034721021074801683 0.11310146003961563 0.8892111778259277
v 0.1717323213815689 0.13198576867580414 1.0468693971633911
v 0.33468297123908997 0.12919580936431885 1.0289843082427979
v -0.40079575777053833 0.13466157019138336 1.0529472827911377
v -0.22728723287582397 0.13251997530460358 1.0293641090393066
v -0.05322401598095894 0.11458840221166611 0.894873321056366
v 0.09025361388921738 0.113894023001194 0.8902553915977478
v 0.2716515064239502 0.1322692185640335 1.0370545387268066
v 0.43190550804138184 0.1299847960472107 1.0197070837020874
v -0.3001287877559662 0.1373898833990097 1.0553714036941528
v -0.11297634243965149 0.11989839375019073 0.9190831184387207
v 0.0330483615398407 0.11239825934171677 0.8723089694976807
v 0.20729152858257294 0.13539999723434448 1.0440967082977295
v 0.3680119812488556 0.13257163763046265 1.0256171226501465
v -0.3655588626861572 0.13815483450889587 1.054025650024414
v -0.1920536905527115 0.1352348029613495 1.022663950920105
v -0.023549389094114304 0.1175304502248764 0.8924012780189514
v 0.12235606461763382 0.11951932311058044 0.899044394493103
v 0.30487060546875 0.13473756611347198 1.032382845878601
v -0.4322940409183502 0.1400539129972458 1.050926923751831
v -0.26497694849967957 0.14078597724437714 1.0542426109313965
v -0.0827241763472557 0.12215375900268555 0.915291428565979
v 0.06375948339700699 0.11946958303451538 0.8943214416503906
v 0.24109944701194763 0.13834737241268158 1.040854811668396
v 0.40160924196243286 0.13583233952522278 1.0224239826202393
v -0.330761581659317 0.14212682843208313 1.0547733306884766
v -0.1581810563802719 0.13851700723171234 1.0217050313949585
v 0.006543207447975874 0.11973710358142853 0.8890469670295715
v 0.1755586713552475 0.14032162725925446 1.0462590456008911
v 0.3377579152584076 0.13747434318065643 1.0279481410980225
v -0.3970743715763092 0.14315073192119598 1.0520685911178589
v -0.22306963801383972 0.14019526541233063 1.024196743965149
v -0.050182826817035675 0.12239111214876175 0.8978593945503235
v 0.0937318503856659 0.1218750849366188 0.8918317556381226
v 0.27471187710762024 0.1406203955411911 1.0358123779296875
v 0.4350976347923279 0.1381887048482895 1.0188066959381104
v -0.2962716817855835 0.14590801298618317 1.0544459819793701
v -0.11057798564434052 0.12921655178070068 0.9215987920761108
v 0.037197764962911606 0.12376731634140015 0.8971847891807556
v 0.21070058643817902 0.14412124454975128 1.0432618856430054
v 0.37104740738868713 0.14076697826385498 1.0245596170425415
v -0.3618553578853607 0.14666835963726044 1.0532389879226685
v -0.18805861473083496 0.14346566796302795 1.0200124979019165
v -0.020787637680768967 0.12630261480808258 0.9007844924926758
v 0.12787844240665436 0.13027776777744293 0.9191766977310181
v 0.3080079257488251 0.14309605956077576 1.0311715602874756
v -0.4283900260925293 0.14858318865299225 1.0499680042266846
v -0.2610984742641449 0.14946772158145905 1.0532854795455933
v -0.07990588247776031 0.13173384964466095 0.9260686039924622
v 0.06685672700405121 0.12653186917304993 0.8935550451278687
v 0.24416670203208923 0.1466977596282959 1.039670467376709
v 0.4045395851135254 0.14411798119544983 1.0214807987213135
v -0.3271581828594208 0.15063633024692535 1.0539815425872803
v -0.1541425883769989 0.14663179218769073 1.0200024843215942
v 0.009772436693310738 0.12677882611751556 0.8896350264549255
v 0.17932085692882538 0.14927679300308228 1.0451598167419434
v 0.34086382389068604 0.14578397572040558 1.026875615119934
v -0.39333802461624146 0.15166392922401428 1.0513038635253906
v -0.22676758468151093 0.15400752425193787 1.0522704124450684
v -0.047284603118896484 0.12992385029792786 0.8996192812919617
v 0.09820886701345444 0.13151170313358307 0.9007611274719238
v 0.27777448296546936 0.14897415041923523 1.0346007347106934
v 0.43969008326530457 0.14689353108406067 1.0179046392440796
v -0.29231828451156616 0.15444494783878326 1.0535023212432861
v -0.1083969846367836 0.13891154527664185 0.9335196614265442
v 0.04082504287362099 0.13460245728492737 0.9129335284233093
v 0.21405646204948425 0.15280498564243317 1.0423005819320679
v 0.37414121627807617 0.14900511503219604 1.0234514474868774
v -0.3581016957759857 0.15529629588127136 1.0524991750717163
v -0.18398120999336243 0.15169616043567657 1.0180778503417969
v -0.018471721559762955 0.13562507927417755 0.9113898873329163
v 0.14756332337856293 0.1539476215839386 1.046665906906128
v 0.3111327886581421 0.15150082111358643 1.029940128326416
v -0.42452535033226013 0.15711143612861633 1.0491080284118652
v -0.2571835219860077 0.1581510603427887 1.0523109436035156
v -0.07677911967039108 0.1409052610397339 0.9325605630874634
v 0.07030849158763885 0.13511070609092712 0.89694744348526
v 0.24720555543899536 0.15507453680038452 1.0383734703063965
v 0.4075150191783905 0.1524357944726944 1.0203813314437866
v -0.3234991133213043 0.1592639535665512 1.053160309791565
v -0.15042102336883545 0.15543214976787567 1.01801598072052
v 0.012743588536977768 0.1347682923078537 0.8926582336425781
v 0.18286651372909546 0.15816861391067505 1.0440658330917358
v 0.34402284026145935 0.15415272116661072 1.0258172750473022
v -0.38949358463287354 0.16032551229000092 1.0505796670913696
v -0.22241605818271637 0.16244563460350037 1.0514845848083496
v -0.044784702360630035 0.1384299099445343 0.9061219692230225
v 0.1026759147644043 0.1429138034582138 0.9209412336349487
v 0.28076282143592834 0.1573874056339264 1.0333722829818726
v -0.4590045213699341 0.16207115352153778 1.0482875108718872
v -0.2882923185825348 0.16314581036567688 1.0525506734848022
v -0.11842753738164902 0.16319097578525543 1.0519055128097534
v 0.0430641733109951 0.14416566491127014 0.9226587414741516
v 0.21724644303321838 0.16137894988059998 1.0412144660949707
v 0.3772200644016266 0.1572929471731186 1.0222747325897217
v -0.35444000363349915 0.1640969216823578 1.0518275499343872
v -0.18672944605350494 0.1661960482597351 1.0502771139144897
v -0.015052597038447857 0.1429460197687149 0.9093092083930969
v 0.15145592391490936 0.1627729833126068 1.0463285446166992
v 0.3142506778240204 0.16005189716815948 1.0287165641784668
v -0.42061835527420044 0.16578549146652222 1.0482861995697021
v -0.2532042860984802 0.16672639548778534 1.0513414144515991
v -0.07392097264528275 0.14846111834049225 0.9304050803184509
v 0.07410688698291779 0.144597589969635 0.9026229381561279
v 0.25022563338279724 0.16351643204689026 1.036987066268921
v 0.41063550114631653 0.16079846024513245 1.0190728902816772
v -0.3197852671146393 0.1680726706981659 1.0522792339324951
v -0.146785169839859 0.1653866022825241 1.0186350345611572
v 0.015895409509539604 0.14416922628879547 0.9023878574371338
v 0.1862928867340088 0.16688719391822815 1.0429179668426514
v 0.34714290499687195 0.1625804752111435 1.0247324705123901
v -0.385593444108963 0.1690855473279953 1.0498391389846802
v -0.21834668517112732 0.1707604080438614 1.0503994226455688
v -0.042760998010635376 0.14986225962638855 0.9174416065216064
v 0.11999852955341339 0.1678236573934555 1.0480650663375854
v 0.28381744027137756 0.16594335436820984 1.0321044921875
v -0.4513530433177948 0.17090804874897003 1.0472543239593506
v -0.28430837392807007 0.17187683284282684 1.0516467094421387
v -0.1156771257519722 0.17277950048446655 1.0533803701400757
v 0.04689651355147362 0.1529996693134308 0.9332476854324341
v 0.2202400118112564 0.16982300579547882 1.0399086475372314
v 0.38031265139579773 0.16566301882266998 1.021074652671814
v -0.3507656753063202 0.17294692993164062 1.0510762929916382
v -0.1830054372549057 0.1752173751592636 1.0505200624465942
v -0.011713935993611813 0.1500091701745987 0.9085323214530945
v 0.15510258078575134 0.17210251092910767 1.0454236268997192
v 0.3173350989818573 0.16863295435905457 1.027565598487854
v -0.41662266850471497 0.1745205670595169 1.0474437475204468
v -0.24933093786239624 0.17520827054977417 1.05040442943573
v -0.07112820446491241 0.1566198468208313 0.9302053451538086
v 0.07812152802944183 0.15544788539409637 0.9151442050933838
v 0.25325480103492737 0.1720329225063324 1.035615086555481
v 0.4138658344745636 0.1691909283399582 1.0175950527191162
v -0.31599801778793335 0.17690953612327576 1.0513813495635986
v -0.14757651090621948 0.17874343693256378 1.0534745454788208
v 0.019744087010622025 0.15672841668128967 0.9254156947135925
v 0.18973301351070404 0.17556266486644745 1.0418524742126465
v 0.35029837489128113 0.17114397883415222 1.0236101150512695
v -0.3817082345485687 0.17785824835300446 1.049001693725586
v -0.21447086334228516 0.17910152673721313 1.0494637489318848
v -0.03928348422050476 0.15720275044441223 0.9179917573928833
v 0.12349733710289001 0.17738720774650574 1.0471652746200562
v 0.2869265675544739 0.1745387464761734 1.0308862924575806
v -0.44698065519332886 0.17945550382137299 1.0462613105773926
v -0.2804245948791504 0.1804889440536499 1.05075204372406
v -0.11244552582502365 0.18149983882904053 1.0527756214141846
v 0.05179508030414581 0.1615770012140274 0.9368845224380493
v 0.22316153347492218 0.17815621197223663 1.038449764251709
v 0.383364200592041 0.17408743500709534 1.0198273658752441
v -0.3469198942184448 0.18176451325416565 1.0502727031707764
v -0.17902801930904388 0.18373291194438934 1.0501768589019775
v -0.008525332435965538 0.15759152173995972 0.9086534976959229
v 0.1584695279598236 0.18126416206359863 1.0442049503326416
v 0.32040098309516907 0.17721840739250183 1.0264158248901367
v -0.4125741720199585 0.18321140110492706 1.0466296672821045
v -0.24555115401744843 0.18369746208190918 1.0495368242263794
v -0.06814409047365189 0.16503264009952545 0.9318721890449524
v 0.09205131977796555 0.18270602822303772 1.0490001440048218
v 0.2562381625175476 0.1805395632982254 1.0342998504638672
v 0.41701018810272217 0.17755097150802612 1.0160369873046875
v -0.3121753931045532 0.1856340616941452 1.0504181385040283
v -0.14386941492557526 0.18744438886642456 1.0518280267715454
v 0.023079171776771545 0.1658126562833786 0.9324073791503906
v 0.19294853508472443 0.18407712876796722 1.0405263900756836
v 0.35332897305488586 0.1796901375055313 1.0224148035049438
v -0.37775719165802 0.1865696907043457 1.0481109619140625
v -0.2105722278356552 0.18765121698379517 1.0487357378005981
v -0.03617340326309204 0.16540749371051788 0.9194427132606506
v 0.1272459626197815 0.18647418916225433 1.046316146850586
v 0.29000240564346313 0.18308396637439728 1.0296300649642944
v -0.4431511163711548 0.18797902762889862 1.0452446937561035
v -0.2766262888908386 0.18896281719207764 1.049869418144226
v -0.108609139919281 0.19024443626403809 1.052074670791626
v 0.05966472998261452 0.1868196427822113 1.0441566705703735
v 0.22612133622169495 0.18638111650943756 1.036935806274414
v 0.3863863945007324 0.1825653612613678 1.018447756767273
v -0.34289127588272095 0.1904841512441635 1.0494134426116943
v -0.17519687116146088 0.1919822096824646 1.0496398210525513
v -0.005666239187121391 0.1664794534444809 0.9118376970291138
v 0.16174918413162231 0.18992571532726288 1.042891502380371
v 0.3233015239238739 0.18567560613155365 1.0252017974853516
v -0.408501535654068 0.19177941977977753 1.0457550287246704
v -0.24181289970874786 0.19222357869148254 1.0488225221633911
v -0.06493454426527023 0.17443899810314178 0.9381110072135925
v 0.09569607675075531 0.19212397933006287 1.0482643842697144
v 0.25916123390197754 0.1890077143907547 1.032964825630188
v 0.419950932264328 0.18587620556354523 1.0144530534744263
v -0.30838102102279663 0.19418156147003174 1.0494153499603271
v -0.13991793990135193 0.19595034420490265 1.0510491132736206
v 0.026195762678980827 0.17476379871368408 0.9345018863677979
v 0.19595232605934143 0.19242358207702637 1.039076805114746
v 0.35623985528945923 0.18822899460792542 1.0211762189865112
v -0.37367838621139526 0.195241317152977 1.0471690893173218
v -0.20673559606075287 0.19626903533935547 1.0481867790222168
v -0.03315452113747597 0.17531737685203552 0.9265627861022949
v 0.13077852129936218 0.1953234225511551 1.0453603267669678
v 0.29301488399505615 0.19157853722572327 1.0282750129699707
v -0.43951794505119324 0.19647841155529022 1.0442843437194824
v -0.27290934324264526 0.197389617562294 1.049038052558899
v -0.10481704026460648 0.1989467442035675 1.0511236190795898
v 0.06319506466388702 0.1969333291053772 1.0479621887207031
v 0.22902673482894897 0.19463708996772766 1.0354336500167847
v 0.38929983973503113 0.19101223349571228 1.0170347690582275
v -0.3388209640979767 0.1990903615951538 1.0485010147094727
v -0.17164763808250427 0.20046646893024445 1.0491867065429688
v -0.002397155622020364 0.1776197999715805 0.9256224036216736
v 0.16501015424728394 0.19829364120960236 1.041486382484436
v 0.3262093961238861 0.19413457810878754 1.0239804983139038
v -0.404458612203598 0.20033815503120422 1.0448302030563354
v -0.23806539177894592 0.2006996124982834 1.0481427907943726
v -0.06988343596458435 0.20129381120204926 1.050195336341858
v 0.09926825016736984 0.20126397907733917 1.0473253726959229
v 0.262052983045578 0.19740328192710876 1.0315996408462524
v 0.42281848192214966 0.1940930336713791 1.0128475427627563
v -0.3042987883090973 0.20260117948055267 1.0485408306121826
v -0.13616546988487244 0.20444510877132416 1.050110936164856
v 0.02945546619594097 0.18404607474803925 0.9364702701568604
v 0.19897033274173737 0.20071664452552795 1.0376604795455933
v 0.3590441644191742 0.19664788246154785 1.0199499130249023
v -0.36954617500305176 0.2038542926311493 1.0461863279342651
v -0.20291121304035187 0.2048128843307495 1.0476534366607666
v -0.030150748789310455 0.18610872328281403 0.9406923651695251
v 0.13420194387435913 0.20401011407375336 1.0439130067825317
v 0.29605719447135925 0.20005515217781067 1.0268871784210205
v -0.43567588925361633 0.2051428109407425 1.04318106174469
v -0.2691819965839386 0.2058131992816925 1.048230528831482
v -0.1010180339217186 0.2075517177581787 1.0500236749649048
v 0.06708036363124847 0.20633797347545624 1.0482953786849976
v 0.23185847699642181 0.20295904576778412 1.033959150314331
v 0.39220550656318665 0.19941826164722443 1.0155664682388306
v -0.3347480595111847 0.2075708955526352 1.047528862953186
v -0.1679392009973526 0.2089066356420517 1.0484726428985596
v 0.0011753058061003685 0.18906711041927338 0.9370032548904419
v 0.16827337443828583 0.20642630755901337 1.0400280952453613
v 0.3290664255619049 0.20252829790115356 1.0227605104446411
v -0.400412380695343 0.2089376449584961 1.043848991394043
v -0.23429730534553528 0.20911036431789398 1.0474658012390137
v -0.06604188680648804 0.2099284678697586 1.0493141412734985
v 0.10268471390008926 0.21004213392734528 1.046237587928772
v 0.26503026485443115 0.2057323008775711 1.0301047563552856
v 0.42544254660606384 0.20204173028469086 1.011283040046692
v -0.30033570528030396 0.21094420552253723 1.0475947856903076
v -0.13250933587551117 0.21269772946834564 1.0491201877593994
v 0.03344852849841118 0.19430655241012573 0.9429969191551208
v 0.20197071135044098 0.20886830985546112 1.0361480712890625
v 0.3618772327899933 0.20500005781650543 1.0186845064163208
v -0.36542850732803345 0.21241804957389832 1.0452642440795898
v -0.19903242588043213 0.21313993632793427 1.0471795797348022
v -0.03074481338262558 0.21316365897655487 1.0497711896896362
v 0.137379989027977 0.21231918036937714 1.0423667430877686
v 0.298943430185318 0.20839591324329376 1.0254850387573242
v -0.43148273229599 0.2134016454219818 1.0422923564910889
v -0.26542603969573975 0.2141883373260498 1.047467827796936
v -0.09733980894088745 0.21601592004299164 1.0489388704299927
v 0.07089338451623917 0.21537885069847107 1.047818899154663
v 0.2347305715084076 0.21125933527946472 1.0324560403823853
v 0.3949474096298218 0.20762474834918976 1.0142343044281006
v -0.3306589424610138 0.21589455008506775 1.0465013980865479
v -0.16410420835018158 0.21707674860954285 1.0477790832519531
v 0.0027898221742361784 0.21597734093666077 1.0525389909744263
v 0.17144936323165894 0.21446172893047333 1.0385353565216064
v 0.33188483119010925 0.21086855232715607 1.021519422531128
v -0.39639174938201904 0.21762172877788544 1.0428333282470703
v -0.2304641753435135 0.2174368053674698 1.0468357801437378
v -0.06236664950847626 0.218812957406044 1.0481222867965698
v 0.10599301010370255 0.21839888393878937 1.044871211051941
v 0.2680831551551819 0.2139294296503067 1.0285388231277466
v 0.42801785469055176 0.20976665616035461 1.0096166133880615
v -0.29642078280448914 0.21927323937416077 1.04659903049469
v -0.1288059949874878 0.22085140645503998 1.0482139587402344
v 0.03944401443004608 0.2202891707420349 1.0499547719955444
v 0.20494166016578674 0.2169012427330017 1.0346331596374512
v 0.36464723944664 0.2133033573627472 1.0174115896224976
v -0.3613756597042084 0.22098013758659363 1.0443551540374756
v -0.19514930248260498 0.22135834395885468 1.0466669797897339
v -0.02734379470348358 0.22251179814338684 1.0479888916015625
v 0.14049288630485535 0.22045034170150757 1.0408732891082764
v 0.3018258512020111 0.21674807369709015 1.024124264717102
v -0.4274114966392517 0.2217477411031723 1.0413318872451782
v -0.26154547929763794 0.2225673943758011 1.0467758178710938
v -0.09374762326478958 0.2244858741760254 1.047876238822937
v 0.07451708614826202 0.2241852879524231 1.0468536615371704
v 0.2375553697347641 0.2195170521736145 1.030988097190857
v 0.3976605236530304 0.21577762067317963 1.012932538986206
v -0.3266834020614624 0.22430826723575592 1.0454021692276
v -0.16013319790363312 0.22520387172698975 1.0470308065414429
v 0.006947198882699013 0.22574584186077118 1.049660325050354
v 0.17449353635311127 0.22253942489624023 1.0371053218841553
v 0.3346717953681946 0.21917924284934998 1.020350694656372
v -0.39234185218811035 0.22601550817489624 1.0420739650726318
v -0.22657707333564758 0.2257818579673767 1.0462908744812012
v -0.0589766651391983 0.22755083441734314 1.0467931032180786
v 0.10929327458143234 0.22662433981895447 1.0432511568069458
v 0.271282821893692 0.2221519649028778 1.0268762111663818
v 0.43079331517219543 0.21770626306533813 1.0079710483551025
v -0.29253843426704407 0.2276638150215149 1.0455806255340576
v -0.12505319714546204 0.22905224561691284 1.047379493713379
v 0.043261826038360596 0.2293480932712555 1.0490376949310303
v 0.20789210498332977 0.22499148547649384 1.0331941843032837
v 0.36749735474586487 0.22168965637683868 1.0160223245620728
v -0.35750308632850647 0.22978802025318146 1.043296217918396
v -0.19138053059577942 0.22962698340415955 1.046023964881897
v -0.023867176845669746 0.2311100959777832 1.046460509300232
v 0.14368009567260742 0.22863732278347015 1.0393750667572021
v 0.30478525161743164 0.22512571513652802 1.0227408409118652
v -0.4233720302581787 0.23023471236228943 1.0403070449829102
v -0.2577057182788849 0.2310653179883957 1.0460683107376099
v -0.09032989293336868 0.2330903559923172 1.0466848611831665
v 0.07809878140687943 0.23290883004665375 1.0455029010772705
v 0.24060380458831787 0.2278139442205429 1.0295082330703735
v 0.4005430340766907 0.22401335835456848 1.0114786624908447
v -0.3230319023132324 0.23297306895256042 1.0441617965698242
v -0.15645259618759155 0.23356105387210846 1.0461407899856567
v 0.01066359132528305 0.23478323221206665 1.0476981401443481
v 0.17749303579330444 0.23086747527122498 1.035565733909607
v 0.33766838908195496 0.22763842344284058 1.0190151929855347
v -0.3883466422557831 0.23464335501194 1.0412421226501465
v -0.2229396402835846 0.23430275917053223 1.045597791671753
v -0.05554330348968506 0.23647455871105194 1.0452314615249634
v 0.112572580575943 0.2349102646112442 1.0415767431259155
v 0.2746925354003906 0.2305181622505188 1.0251437425613403
v 0.43520814180374146 0.22617046535015106 1.0058752298355103
v -0.28892943263053894 0.23639409244060516 1.0444391965866089
v -0.12151525914669037 0.23752927780151367 1.0463385581970215
v 0.0466696061193943 0.2386973649263382 1.0474718809127808
v 0.21099433302879333 0.23336240649223328 1.031692624092102
v 0.37050893902778625 0.23014897108078003 1.014523983001709
v -0.35369980335235596 0.23839904367923737 1.0424058437347412
v -0.18804802000522614 0.23815618455410004 1.0451977252960205
v -0.02030375599861145 0.24009287357330322 1.0453320741653442
v 0.14686249196529388 0.23701943457126617 1.0379160642623901
v 0.3080064654350281 0.23339839279651642 1.0213156938552856
v -0.4195014238357544 0.23889772593975067 1.0393236875534058
v -0.2540637254714966 0.23971179127693176 1.0453155040740967
v -0.08699922263622284 0.24175263941287994 1.0454800128936768
v 0.0815017819404602 0.2415837198495865 1.044021487236023
v 0.24366119503974915 0.2361174374818802 1.0279244184494019
v 0.4037259817123413 0.23220139741897583 1.0100059509277344
v -0.31970298290252686 0.24175964295864105 1.0428776741027832
v -0.15305109322071075 0.24198564887046814 1.0453224182128906
v 0.014569015242159367 0.24380704760551453 1.0468332767486572
v 0.18042422831058502 0.23923563957214355 1.0339679718017578
v 0.3407352566719055 0.23585867881774902 1.0177632570266724
v -0.3842156231403351 0.243275985121727 1.0405642986297607
v -0.2194313257932663 0.24279949069023132 1.044884443283081
v -0.052104316651821136 0.2451527714729309 1.044077754020691
v 0.11577781289815903 0.24305401742458344 1.0401580333709717
v 0.27818891406059265 0.2387647032737732 1.0234951972961426
v -0.4650576412677765 0.24480701982975006 1.0406157970428467
v -0.28511589765548706 0.24498260021209717 1.0435726642608643
v -0.11791889369487762 0.24582026898860931 1.0455087423324585
v 0.0500137060880661 0.24730688333511353 1.0459671020507812
v 0.21397127211093903 0.24165599048137665 1.0304174423217773
v 0.3734840750694275 0.23828472197055817 1.0133306980133057
v -0.34991005063056946 0.2469184547662735 1.0415695905685425
v -0.1844404637813568 0.24661098420619965 1.0445741415023804
v -0.01683400198817253 0.24877877533435822 1.044535517692566
v 0.14983834326267242 0.24524903297424316 1.0367714166641235
v 0.31107908487319946 0.2414240688085556 1.020124077796936
v -0.4157952070236206 0.24763840436935425 1.03860604763031
v -0.2505909502506256 0.24844728410243988 1.0447160005569458
v -0.0836339220404625 0.2502589821815491 1.0445693731307983
v 0.08463167399168015 0.24993711709976196 1.0425984859466553
v 0.24683637917041779 0.2446168214082718 1.0266059637069702
v 0.40700653195381165 0.2402573823928833 1.0086299180984497
v -0.316678911447525 0.2509722113609314 1.0415747165679932
v -0.14956775307655334 0.2507593333721161 1.0446839332580566
v 0.01790042594075203 0.2529798150062561 1.0458214282989502
v 0.18342578411102295 0.24802017211914062 1.0326623916625977
v 0.343623548746109 0.24454602599143982 1.016826868057251
v -0.3805309534072876 0.2531804144382477 1.0397677421569824
v -0.21577291190624237 0.2527840733528137 1.0443326234817505
v -0.048863597214221954 0.25492939352989197 1.043004035949707
v 0.11849425733089447 0.25234365463256836 1.0391819477081299
v 0.28139641880989075 0.24839411675930023 1.021917700767517
v -0.45794421434402466 0.2692495286464691 1.0385499000549316
v -0.2815053164958954 0.25792720913887024 1.0418506860733032
v -0.11466961354017258 0.2575056552886963 1.044486165046692
v 0.05287832021713257 0.2584463655948639 1.044209599494934
v 0.2162589281797409 0.25361111760139465 1.0290504693984985
v 0.3766098618507385 0.2495763599872589 1.0121568441390991
