v -0.4343152940273285 -0.23057019710540771 0.8893872499465942
v -0.3369918763637543 -0.2879085838794708 1.139935851097107
v -0.13161136209964752 -0.2627967298030853 1.0771020650863647
v 0.05828861519694328 -0.27749869227409363 1.1376460790634155
v 0.2432355135679245 -0.2637179493904114 1.0695831775665283
v 0.3856968879699707 -0.23679371178150177 0.9669442176818848
v -0.3542948365211487 -0.2357693463563919 0.9740282297134399
v -0.19847522675991058 -0.25112465023994446 1.0408602952957153
v -0.02051212079823017 -0.27775606513023376 1.1429818868637085
v 0.1728137582540512 -0.26546046137809753 1.1035290956497192
v 0.34844404458999634 -0.25584912300109863 1.0575923919677734
v -0.4022637605667114 -0.22237861156463623 0.9305131435394287
v -0.28222742676734924 -0.2686803936958313 1.101585030555725
v -0.094576895236969 -0.2624768912792206 1.1015807390213013
v 0.09868239611387253 -0.2697293758392334 1.1335268020629883
v 0.28113090991973877 -0.25557735562324524 1.0701886415481567
v 0.40517759323120117 -0.22099949419498444 0.9251840114593506
v -0.3757214844226837 -0.27836811542510986 1.1439208984375
v -0.16481006145477295 -0.25135868787765503 1.0632052421569824
v 0.021886246278882027 -0.2696320712566376 1.1407042741775513
v 0.20674550533294678 -0.2529083788394928 1.0703567266464233
v 0.3636486232280731 -0.23496942222118378 0.9895588755607605
v -0.3772456645965576 -0.22445625066757202 0.955510675907135
v -0.23786412179470062 -0.24895693361759186 1.0570873022079468
v -0.05642658844590187 -0.2652168571949005 1.1322637796401978
v 0.13913318514823914 -0.26424598693847656 1.1300463676452637
v 0.31806352734565735 -0.24938903748989105 1.065989375114441
v -0.4233131408691406 -0.21181225776672363 0.9051671624183655
v -0.33150777220726013 -0.2706082761287689 1.1320759057998657
v -0.128450408577919 -0.25194981694221497 1.0828477144241333
v 0.06259465962648392 -0.2653927803039551 1.1397216320037842
v 0.24820640683174133 -0.25071588158607483 1.073127031326294
v 0.38721412420272827 -0.223441943526268 0.9619179368019104
v -0.3514416515827179 -0.22629842162132263 0.9772523045539856
v -0.195625901222229 -0.24075256288051605 1.0447551012039185
v -0.01576138287782669 -0.26377594470977783 1.1410502195358276
v 0.1761634796857834 -0.2535151541233063 1.0999271869659424
v 0.3523057699203491 -0.24468207359313965 1.0586539506912231
v -0.4004501700401306 -0.21385429799556732 0.9350600838661194
v -0.2671927809715271 -0.24160289764404297 1.0489691495895386
v -0.09143099188804626 -0.25308987498283386 1.1055660247802734
v 0.10278879106044769 -0.2597406804561615 1.1350531578063965
v 0.28494614362716675 -0.24526990950107574 1.0717995166778564
v 0.4068017899990082 -0.21088555455207825 0.9222455620765686
v -0.365593820810318 -0.26205700635910034 1.1307857036590576
v -0.16158850491046906 -0.24256254732608795 1.0680612325668335
v 0.02594747394323349 -0.2593647837638855 1.1418561935424805
v 0.20970168709754944 -0.2422986924648285 1.0665779113769531
v 0.365444540977478 -0.22461703419685364 0.9877854585647583
v -0.3752817213535309 -0.2158273309469223 0.9588139057159424
v -0.2362520396709442 -0.2402978539466858 1.0677176713943481
v -0.052485011518001556 -0.2555064260959625 1.1351594924926758
v 0.14347678422927856 -0.2543962597846985 1.130983829498291
v 0.3217991292476654 -0.23985718190670013 1.0676413774490356
v -0.42113444209098816 -0.20294487476348877 0.9127109050750732
v -0.3237222731113434 -0.25323808193206787 1.1156883239746094
v -0.1253778487443924 -0.24299898743629456 1.0875585079193115
v 0.06670032441616058 -0.2551862597465515 1.1409616470336914
v 0.25160491466522217 -0.240981325507164 1.0762720108032227
v 0.38920363783836365 -0.21339599788188934 0.9592127799987793
v -0.3492100238800049 -0.21762454509735107 0.9803280830383301
v -0.1926194280385971 -0.23188121616840363 1.0484097003936768
v -0.011158899404108524 -0.25261157751083374 1.1418848037719727
v 0.17910312116146088 -0.24238203465938568 1.0957152843475342
v 0.35618510842323303 -0.23473821580410004 1.0605448484420776
v -0.39858466386795044 -0.20595300197601318 0.9387982487678528
v -0.2641608417034149 -0.23021231591701508 1.0489248037338257
v -0.08761362731456757 -0.2440977394580841 1.1134077310562134
v 0.10692086070775986 -0.24957449734210968 1.1367619037628174
v 0.28891125321388245 -0.235254168510437 1.073118805885315
v 0.4085882008075714 -0.20162110030651093 0.9194179773330688
v -0.35910558700561523 -0.2470618337392807 1.122703194618225
v -0.1582767367362976 -0.233669251203537 1.072671890258789
v 0.029988808557391167 -0.2491307109594345 1.143541932106018
v 0.21299166977405548 -0.23172754049301147 1.0627164840698242
v 0.36770376563072205 -0.21484477818012238 0.9863350987434387
v -0.37312424182891846 -0.2073439508676529 0.9621596932411194
v -0.2342483103275299 -0.2328357696533203 1.0795854330062866
v -0.04861887916922569 -0.24574311077594757 1.1385669708251953
v 0.14784179627895355 -0.2439090758562088 1.1311826705932617
v 0.3260096609592438 -0.23009532690048218 1.069324016571045
v -0.4193488657474518 -0.19500839710235596 0.9171406030654907
v -0.2991791367530823 -0.22607147693634033 1.055619716644287
v -0.12169267237186432 -0.2340220808982849 1.0926636457443237
v 0.07092995941638947 -0.2448030263185501 1.1426793336868286
v 0.256190687417984 -0.23085632920265198 1.0808266401290894
v 0.39114946126937866 -0.20378537476062775 0.9546312093734741
v -0.3467418849468231 -0.20916365087032318 0.9833885431289673
v -0.18944232165813446 -0.22304797172546387 1.052092432975769
v -0.007039917167276144 -0.2427336871623993 1.1440222263336182
v 0.18226319551467896 -0.23144464194774628 1.0915697813034058
v 0.3612963855266571 -0.22473038733005524 1.0623975992202759
v -0.39665284752845764 -0.19813215732574463 0.942375123500824
v -0.26311808824539185 -0.22259439527988434 1.0601575374603271
v -0.08382236957550049 -0.23560991883277893 1.1220227479934692
v 0.11132612079381943 -0.23957620561122894 1.1387081146240234
v 0.29295089840888977 -0.2253783941268921 1.0740866661071777
v 0.41076311469078064 -0.19241653382778168 0.9165752530097961
v -0.35299646854400635 -0.23519043624401093 1.1157114505767822
v -0.15504485368728638 -0.22485198080539703 1.077498435974121
v 0.034080348908901215 -0.23920384049415588 1.1457138061523438
v 0.21574504673480988 -0.22101669013500214 1.0591366291046143
v 0.36895692348480225 -0.2031736820936203 0.9764795899391174
v -0.3710259199142456 -0.199249267578125 0.9655274152755737
v -0.2193065881729126 -0.21264714002609253 1.0295215845108032
v -0.044627610594034195 -0.23625974357128143 1.1418005228042603
v 0.15126286447048187 -0.2333945333957672 1.1292757987976074
v 0.33054378628730774 -0.2208288609981537 1.071131706237793
v -0.41803935170173645 -0.18757198750972748 0.9206540584564209
v -0.2913244068622589 -0.21268804371356964 1.0392628908157349
v -0.11830731481313705 -0.2252839356660843 1.0982698202133179
v 0.07505179941654205 -0.23498103022575378 1.1445300579071045
v 0.2663702368736267 -0.22647185623645782 1.118221402168274
v 0.3933756649494171 -0.19427645206451416 0.9500781297683716
v -0.34421244263648987 -0.2007843405008316 0.9863590002059937
v -0.18640533089637756 -0.21446603536605835 1.0557907819747925
v -0.002796471817418933 -0.23314879834651947 1.1461247205734253
v 0.18538501858711243 -0.2211899757385254 1.0875983238220215
v 0.36735033988952637 -0.21518562734127045 1.065571665763855
v -0.39475923776626587 -0.1902383416891098 0.9455188512802124
v -0.26196447014808655 -0.2154330164194107 1.0718543529510498
v -0.08025778830051422 -0.22662104666233063 1.127273440361023
v 0.11569524556398392 -0.2296804040670395 1.140486717224121
v 0.29714128375053406 -0.21600694954395294 1.0751389265060425
v 0.41316914558410645 -0.18364493548870087 0.9138020277023315
v -0.3377019166946411 -0.21590353548526764 1.0830771923065186
v -0.1518719494342804 -0.21609698235988617 1.0823845863342285
v 0.03826083242893219 -0.229491725564003 1.148190975189209
v 0.22051574289798737 -0.21298855543136597 1.0655667781829834
v 0.3718498945236206 -0.19390912353992462 0.9741523861885071
v -0.36888134479522705 -0.19120784103870392 0.9689034223556519
v -0.21590128540992737 -0.20434580743312836 1.0326604843139648
v -0.04062001034617424 -0.22678972780704498 1.144942283630371
v 0.15462204813957214 -0.22273960709571838 1.1259163618087769
v 0.3349156975746155 -0.2115551084280014 1.0722236633300781
v -0.4166383445262909 -0.18023023009300232 0.9240250587463379
v -0.2894931733608246 -0.20455706119537354 1.0462919473648071
v -0.11502131819725037 -0.21644973754882812 1.104109764099121
v 0.07912329584360123 -0.22500069439411163 1.1465368270874023
v 0.2776780426502228 -0.22261866927146912 1.1510179042816162
v 0.3955773413181305 -0.18504180014133453 0.94588303565979
v -0.3416704535484314 -0.192429319024086 0.9894444346427917
v -0.18336604535579681 -0.20575080811977386 1.0594898462295532
v 0.0007036288152448833 -0.2230033129453659 1.1491985321044922
v 0.18826371431350708 -0.2106361836194992 1.0831226110458374
v 0.371497243642807 -0.20521819591522217 1.0688608884811401
v -0.39267051219940186 -0.18207712471485138 0.9486404061317444
v -0.2609786093235016 -0.20810887217521667 1.0832042694091797
v -0.07665830105543137 -0.21739783883094788 1.1319875717163086
v 0.1200251653790474 -0.21979916095733643 1.1426067352294922
v 0.3014475405216217 -0.2067384272813797 1.076564908027649
v 0.4153038263320923 -0.17511457204818726 0.9110563397407532
v -0.31860706210136414 -0.19701215624809265 1.0363656282424927
v -0.14873996376991272 -0.20709846913814545 1.0872101783752441
v 0.042540013790130615 -0.2196921557188034 1.1507980823516846
v 0.20378075540065765 -0.18716633319854736 0.9618421792984009
v 0.3742733299732208 -0.1850929856300354 0.9727472066879272
v -0.3666515052318573 -0.18327194452285767 0.9723668694496155
v -0.21312648057937622 -0.19597643613815308 1.0369938611984253
v -0.03660494089126587 -0.2170095592737198 1.1480004787445068
v 0.15803208947181702 -0.21179021894931793 1.12093186378479
v 0.33911362290382385 -0.20236240327358246 1.0729681253433228
v -0.4148446321487427 -0.17264223098754883 0.9272330403327942
v -0.28853732347488403 -0.19729375839233398 1.0586814880371094
v -0.11164943128824234 -0.2075553983449936 1.110251545906067
v 0.08336535841226578 -0.21498073637485504 1.148850440979004
v 0.2792356610298157 -0.21311137080192566 1.144900918006897
v 0.39743572473526 -0.17585904896259308 0.9420254230499268
v -0.33918410539627075 -0.18391399085521698 0.992303192615509
v -0.18023258447647095 -0.19685061275959015 1.0630877017974854
v 0.004862654488533735 -0.2132767289876938 1.152207612991333
v 0.19120559096336365 -0.20022694766521454 1.0776700973510742
v 0.3671031594276428 -0.19299884140491486 1.0459526777267456
v -0.39046189188957214 -0.17413876950740814 0.9517818093299866
v -0.2598971724510193 -0.20032401382923126 1.0940618515014648
v -0.0728268027305603 -0.20810142159461975 1.1362841129302979
v 0.12423574179410934 -0.21006236970424652 1.1449278593063354
v 0.30559420585632324 -0.19721107184886932 1.0778311491012573
v 0.4172195792198181 -0.1667507290840149 0.9085092544555664
v -0.3139050602912903 -0.18797703087329865 1.0351399183273315
v -0.1455109864473343 -0.1981041133403778 1.0920329093933105
v 0.04673369601368904 -0.20973370969295502 1.1533141136169434
v 0.20707523822784424 -0.1768086552619934 0.9642912745475769
v 0.3766264021396637 -0.1760300099849701 0.9706184267997742
v -0.36439815163612366 -0.1752082258462906 0.9759411811828613
v -0.210459366440773 -0.1871083825826645 1.0406384468078613
v -0.0323118232190609 -0.20714664459228516 1.1504871845245361
v 0.16135486960411072 -0.20099730789661407 1.1146492958068848
v 0.34429195523262024 -0.19350935518741608 1.075613021850586
v -0.4128096103668213 -0.1649213284254074 0.9302811622619629
v -0.2877799868583679 -0.1897221952676773 1.0710405111312866
v -0.10806190222501755 -0.19848594069480896 1.1166672706604004
v 0.08779101073741913 -0.20501674711704254 1.1514277458190918
v 0.2754223346710205 -0.19685415923595428 1.1030476093292236
v 0.399284303188324 -0.16666649281978607 0.9380025267601013
v -0.33675217628479004 -0.1753089427947998 0.9953223466873169
v -0.1769755482673645 -0.1878741979598999 1.066449522972107
v 0.009354598820209503 -0.20358681678771973 1.1549872159957886
v 0.19301003217697144 -0.1903718262910843 1.070702075958252
v 0.34939470887184143 -0.17321079969406128 0.980906069278717
v -0.3881615996360779 -0.1661170870065689 0.9549210071563721
v -0.25861361622810364 -0.1922643780708313 1.1045260429382324
v -0.0688663125038147 -0.19868995249271393 1.140257477760315
v 0.1282281130552292 -0.20011980831623077 1.1461799144744873
v 0.3091640770435333 -0.18783558905124664 1.077684998512268
v 0.4193027913570404 -0.15844304859638214 0.9059158563613892
v -0.31572356820106506 -0.18108484148979187 1.053497314453125
v -0.14215236902236938 -0.18916648626327515 1.0967991352081299
v 0.050892751663923264 -0.1996621936559677 1.1558412313461304
v 0.21105346083641052 -0.1676511913537979 0.9663683176040649
v 0.3786906898021698 -0.16691851615905762 0.9673799276351929
v -0.3619413673877716 -0.1671045869588852 0.9792237877845764
v -0.207296684384346 -0.1779707372188568 1.0417417287826538
v -0.028249070048332214 -0.1974714696407318 1.1532279253005981
v 0.16437245905399323 -0.19009529054164886 1.1070656776428223
v 0.34979116916656494 -0.18441636860370636 1.07975172996521
v -0.4106770157814026 -0.15704306960105896 0.9331032037734985
v -0.2874801754951477 -0.1821090131998062 1.084651231765747
v -0.10444625467061996 -0.18932530283927917 1.1221948862075806
v 0.09219515323638916 -0.19499973952770233 1.1534770727157593
v 0.27380576729774475 -0.18161657452583313 1.0750114917755127
v 0.401080846786499 -0.15755243599414825 0.9337618947029114
v -0.3341899812221527 -0.16662408411502838 0.9983212947845459
v -0.17350678145885468 -0.1786653846502304 1.0687795877456665
v 0.013555138371884823 -0.19408130645751953 1.1582547426223755
v 0.18417835235595703 -0.16650566458702087 0.9949742555618286
v 0.3500007390975952 -0.16317905485630035 0.9741669297218323
v -0.3857725262641907 -0.15811799466609955 0.9579762816429138
v -0.2571795880794525 -0.1839865893125534 1.1149369478225708
v -0.06499040871858597 -0.18878208100795746 1.1439640522003174
v 0.13213667273521423 -0.18987612426280975 1.1458768844604492
v 0.31168439984321594 -0.17794181406497955 1.0745158195495605
v 0.4216929078102112 -0.15009081363677979 0.9026327729225159
v -0.31716930866241455 -0.17410635948181152 1.0707356929779053
v -0.13868021965026855 -0.18016719818115234 1.1011358499526978
v 0.055056750774383545 -0.18968379497528076 1.1582868099212646
v 0.21485434472560883 -0.15843035280704498 0.9680285453796387
v 0.38051310181617737 -0.1577254831790924 0.963214635848999
v -0.35958173871040344 -0.15885452926158905 0.9818525314331055
v -0.20456448197364807 -0.16853012144565582 1.0429794788360596
v -0.024105310440063477 -0.1878853589296341 1.156152606010437
v 0.16704276204109192 -0.17959970235824585 1.0986614227294922
v 0.3544937074184418 -0.1744183599948883 1.083817720413208
v -0.4083675444126129 -0.14919248223304749 0.9358004331588745
v -0.2876362204551697 -0.17459352314472198 1.1000583171844482
v -0.10082384943962097 -0.18009628355503082 1.1270595788955688
v 0.09666672348976135 -0.1849871724843979 1.1555840969085693
v 0.2764449119567871 -0.17160861194133759 1.0703009366989136
v 0.40299665927886963 -0.14870765805244446 0.929904043674469
v -0.33118149638175964 -0.15810821950435638 1.0018059015274048
v -0.16996777057647705 -0.16935798525810242 1.070917010307312
v 0.01764645241200924 -0.18425142765045166 1.1612024307250977
v 0.18831627070903778 -0.1581769585609436 0.9988827109336853
v 0.352017879486084 -0.1538035273551941 0.9704474210739136
v -0.38345351815223694 -0.15003758668899536 0.9606433510780334
v -0.25603410601615906 -0.17570674419403076 1.1262487173080444
v -0.06112058088183403 -0.1791067272424698 1.1477172374725342
v 0.13630609214305878 -0.17967075109481812 1.1456716060638428
v 0.31299319863319397 -0.16674186289310455 1.0654892921447754
v -0.43130606412887573 -0.1418948620557785 0.9123280644416809
v -0.31865444779396057 -0.1671024113893509 1.0876781940460205
v -0.1352369487285614 -0.17086613178253174 1.10580313205719
v 0.059308625757694244 -0.17971035838127136 1.160807728767395
v 0.21885935962200165 -0.14997483789920807 0.9698975682258606
v 0.3823603391647339 -0.14862298965454102 0.9584773182868958
v -0.3573811948299408 -0.15066692233085632 0.9846872687339783
v -0.20152245461940765 -0.15820041298866272 1.0421831607818604
v -0.019643699750304222 -0.17887502908706665 1.1598155498504639
v 0.16040340065956116 -0.15696069598197937 1.0244667530059814
v 0.31826111674308777 -0.14850091934204102 0.9660147428512573
v -0.40592560172080994 -0.14129763841629028 0.9383357763290405
v -0.288362056016922 -0.16722296178340912 1.1169474124908447
v -0.09709005057811737 -0.17086420953273773 1.1314014196395874
v 0.1010819524526596 -0.17502538859844208 1.1578196287155151
v 0.2784910202026367 -0.16130048036575317 1.0645214319229126
v 0.4048721492290497 -0.13990682363510132 0.9262150526046753
v -0.3285665214061737 -0.14993686974048615 1.0045300722122192
v -0.16645750403404236 -0.16009125113487244 1.07353937625885
v 0.021505016833543777 -0.17465518414974213 1.1640582084655762
v 0.19239471852779388 -0.14961852133274078 1.0022976398468018
v 0.354155033826828 -0.14478525519371033 0.9667447209358215
v -0.38107830286026 -0.14194995164871216 0.9630254507064819
v -0.2552609443664551 -0.16742627322673798 1.138887882232666
v -0.05728473141789436 -0.16950102150440216 1.151373028755188
v 0.14054560661315918 -0.16969034075737 1.1465785503387451
v 0.3140830993652344 -0.155936598777771 1.0561929941177368
v -0.4277273416519165 -0.1339564472436905 0.9175113439559937
v -0.3207600712776184 -0.15976636111736298 1.1067811250686646
v -0.13169772922992706 -0.16170358657836914 1.1105687618255615
v 0.06371308118104935 -0.16983164846897125 1.1629743576049805
v 0.2232591062784195 -0.14188987016677856 0.9716834425926208
v 0.3839884102344513 -0.1394248604774475 0.9534240365028381
v -0.3550240099430084 -0.14236775040626526 0.9872733354568481
v -0.19820164144039154 -0.14936894178390503 1.0509328842163086
v -0.01525175105780363 -0.16961699724197388 1.1680099964141846
v 0.1639970988035202 -0.14823034405708313 1.0265167951583862
v 0.31877392530441284 -0.13798047602176666 0.9571632146835327
v -0.4035660922527313 -0.13353848457336426 0.9409916400909424
v -0.2894953489303589 -0.15981432795524597 1.1359013319015503
v -0.09338928759098053 -0.16158069670200348 1.1361806392669678
v 0.10536100715398788 -0.1650553047657013 1.160000205039978
v 0.2801552414894104 -0.14892637729644775 1.05636727809906
v 0.40654945373535156 -0.13126277923583984 0.9226779937744141
v -0.3255150616168976 -0.1419946253299713 1.0079193115234375
v -0.16316580772399902 -0.15116022527217865 1.0774236917495728
v 0.025714442133903503 -0.1646747589111328 1.1668249368667603
v 0.19639824330806732 -0.14087837934494019 1.0051372051239014
v 0.3558349013328552 -0.13575853407382965 0.9618858098983765
v -0.3785583972930908 -0.1336502879858017 0.9649912714958191
v -0.25540873408317566 -0.1594003289937973 1.1587544679641724
v -0.053486213088035583 -0.15994037687778473 1.1551283597946167
v 0.1442917436361313 -0.15971289575099945 1.1461620330810547
v 0.3176663815975189 -0.14484111964702606 1.0539151430130005
v -0.42531219124794006 -0.126203715801239 0.9201253652572632
v -0.32526695728302 -0.15287166833877563 1.1334125995635986
v -0.12811656296253204 -0.15256711840629578 1.1154284477233887
v 0.06818293035030365 -0.16015993058681488 1.165073037147522
v 0.22773239016532898 -0.13352574408054352 0.9751214981079102
v 0.38562604784965515 -0.1301574558019638 0.9480333924293518
v -0.3523745834827423 -0.13408991694450378 0.9893889427185059
v -0.2148529440164566 -0.1558273434638977 1.169797420501709
v -0.00943266972899437 -0.1549428552389145 1.1338963508605957
v 0.16840232908725739 -0.1397324800491333 1.031273365020752
v 0.320546418428421 -0.12860792875289917 0.9511866569519043
v -0.4012256860733032 -0.12560348212718964 0.9433307647705078
v -0.2919306457042694 -0.151811882853508 1.1644763946533203
v -0.08972597867250443 -0.15220262110233307 1.1407873630523682
v 0.1096213161945343 -0.1552584320306778 1.162105917930603
v 0.29172390699386597 -0.14097121357917786 1.085213541984558
v 0.40853384137153625 -0.1226472333073616 0.9194255471229553
v -0.32144787907600403 -0.13377167284488678 1.0130759477615356
v -0.1598251461982727 -0.14212584495544434 1.0813732147216797
v 0.030879192054271698 -0.15463192760944366 1.1681734323501587
v 0.20045627653598785 -0.13193996250629425 1.0076169967651367
v 0.3566950857639313 -0.12610910832881927 0.9545052647590637
v -0.3759579062461853 -0.12553969025611877 0.9664736986160278
v -0.2564937472343445 -0.15235483646392822 1.184607744216919
v -0.049690939486026764 -0.1502884179353714 1.1588733196258545
v 0.14629055559635162 -0.14890335500240326 1.1364938020706177
v 0.32583776116371155 -0.13741804659366608 1.0697710514068604
v -0.42269760370254517 -0.11824977397918701 0.9219449162483215
v -0.3303854465484619 -0.14628155529499054 1.1703412532806396
v -0.12443857640028 -0.1432032436132431 1.1203033924102783
v 0.07269865274429321 -0.15059655904769897 1.1671514511108398
v 0.23256118595600128 -0.12476766109466553 0.9806668758392334
v 0.38730868697166443 -0.12103398889303207 0.9424624443054199
v -0.34911859035491943 -0.12547793984413147 0.9910544753074646
v -0.21078428626060486 -0.14721223711967468 1.17387056350708
v -0.005636496935039759 -0.144016832113266 1.1280462741851807
v 0.17280413210391998 -0.13070859014987946 1.0356178283691406
v 0.3222199082374573 -0.12028918415307999 0.9452918171882629
v -0.3985179364681244 -0.11759526282548904 0.9444578886032104
v -0.2954001724720001 -0.14407978951931 1.1951804161071777
v -0.08598107099533081 -0.14251606166362762 1.1452741622924805
v 0.11385083943605423 -0.1455666422843933 1.1636614799499512
v 0.2945592403411865 -0.13162989914417267 1.0841058492660522
v 0.4105908274650574 -0.11402003467082977 0.9161863327026367
v -0.3195788562297821 -0.12337128818035126 1.0154119729995728
v -0.15665365755558014 -0.13323071599006653 1.0857077836990356
v 0.03564352169632912 -0.1451137661933899 1.1705299615859985
v 0.20462407171726227 -0.12295728176832199 1.009714126586914
v 0.3568570613861084 -0.11619226634502411 0.9452449679374695
v -0.37313103675842285 -0.11735456436872482 0.9676831960678101
v -0.2503105700016022 -0.14059306681156158 1.1767396926879883
v -0.04589753970503807 -0.14050930738449097 1.1629801988601685
v 0.142587348818779 -0.12775735557079315 1.0582573413848877
v 0.3274080753326416 -0.1284853219985962 1.0594241619110107
v -0.420001745223999 -0.11017313599586487 0.9232921600341797
v -0.32961079478263855 -0.13761954009532928 1.186505913734436
v -0.12073106318712234 -0.1336563527584076 1.1250910758972168
v 0.07721813768148422 -0.14077350497245789 1.1693596839904785
v 0.23679447174072266 -0.11556174606084824 0.9811856746673584
v 0.388187974691391 -0.1119108498096466 0.9363923668861389
v -0.34588539600372314 -0.11663372069597244 0.9923720955848694
v -0.20603683590888977 -0.1376485973596573 1.1764540672302246
v -0.0023362410720437765 -0.13450337946414948 1.128557562828064
v 0.17720289528369904 -0.12168960273265839 1.0394630432128906
v 0.3216352164745331 -0.10977931320667267 0.9329780340194702
v -0.39571768045425415 -0.10948924720287323 0.9450762867927551
v -0.2920852303504944 -0.13524894416332245 1.1948659420013428
v -0.08214238286018372 -0.1325547993183136 1.150085687637329
v 0.11831069737672806 -0.13562554121017456 1.1632028818130493
v 0.2982504963874817 -0.12304416298866272 1.08381986618042
v 0.4121139645576477 -0.1052841916680336 0.912101149559021
v -0.28760647773742676 -0.10621043294668198 0.9182846546173096
v -0.15340782701969147 -0.12442009150981903 1.0903685092926025
v 0.03989507630467415 -0.13525383174419403 1.172492265701294
v 0.2088317722082138 -0.11403833329677582 1.0110440254211426
v 0.35595226287841797 -0.1059495061635971 0.9329922199249268
v -0.3700467348098755 -0.10888996720314026 0.9689064025878906
v -0.24582475423812866 -0.12945134937763214 1.1742926836013794
v -0.04230577126145363 -0.13074380159378052 1.1672989130020142
v 0.1470344066619873 -0.11883927136659622 1.0620416402816772
v 0.28994134068489075 -0.10290289670228958 0.9291049838066101
v -0.41743481159210205 -0.10208351910114288 0.9248921871185303
v -0.262793630361557 -0.10671403259038925 0.9474424719810486
v -0.11701376736164093 -0.12403661012649536 1.1299755573272705
v 0.08199500292539597 -0.13025404512882233 1.1703441143035889
v 0.2688470780849457 -0.1196957379579544 1.1025277376174927
v 0.386661171913147 -0.10185651481151581 0.9246368408203125
v -0.3082965314388275 -0.09797565639019012 0.8908490538597107
v -0.18497443199157715 -0.1142125278711319 1.068414568901062
v 0.0008573479717597365 -0.123259536921978 1.1282678842544556
v 0.18177413940429688 -0.11270693689584732 1.0430318117141724
v 0.3179176151752472 -0.09852682054042816 0.9119713306427002
v -0.3931097090244293 -0.10118730366230011 0.9471772313117981
v -0.2852582037448883 -0.12305641174316406 1.1835582256317139
v -0.07835525274276733 -0.12276127934455872 1.1545697450637817
v 0.12210869789123535 -0.12437449395656586 1.1626149415969849
v 0.3023790121078491 -0.11473650485277176 1.085650086402893
v 0.4134671092033386 -0.09645496308803558 0.9078415036201477
v -0.2839127480983734 -0.09611102938652039 0.9178085327148438
v -0.14995643496513367 -0.11553535610437393 1.095726728439331
v 0.039816319942474365 -0.11333848536014557 1.0752898454666138
v 0.21285049617290497 -0.10521109402179718 1.010692834854126
v 0.35035398602485657 -0.09369244426488876 0.9075973629951477
v -0.36719539761543274 -0.10014936327934265 0.9670252203941345
v -0.24338854849338531 -0.11867424100637436 1.1794805526733398
v -0.038769569247961044 -0.1213667243719101 1.169979453086853
v 0.15224605798721313 -0.11021479964256287 1.0646475553512573
v 0.2806074917316437 -0.0915466696023941 0.8787128925323486
v -0.4149477183818817 -0.09391157329082489 0.9267880916595459
v -0.2589509189128876 -0.09592791646718979 0.9456706643104553
v -0.1135484129190445 -0.11430434882640839 1.1347289085388184
v 0.07670018821954727 -0.10687552392482758 1.0497925281524658
v 0.2719290256500244 -0.10960653424263 1.1033352613449097
v 0.37893280386924744 -0.08978702872991562 0.8968645334243774
v -0.3050196170806885 -0.08874377608299255 0.8910743594169617
v -0.18150694668293 -0.1049511656165123 1.0641157627105713
v 0.005420602858066559 -0.1053943932056427 1.0588515996932983
v 0.18630103766918182 -0.1035979762673378 1.0464049577713013
v 0.3148842751979828 -0.08651968091726303 0.893661379814148
v -0.3903365731239319 -0.09271372854709625 0.9496496319770813
v -0.2760220766067505 -0.10998080670833588 1.1664619445800781
v -0.07443149387836456 -0.11343488842248917 1.1596524715423584
v 0.11428137868642807 -0.10057494044303894 1.040130853652954
v 0.3059394955635071 -0.10548106580972672 1.0873523950576782
v 0.41607558727264404 -0.08736349642276764 0.9054051041603088
v -0.28093940019607544 -0.08734016865491867 0.918788731098175
v -0.13818740844726562 -0.10006653517484665 1.0329015254974365
v 0.04295764118432999 -0.101058728992939 1.0493663549423218
v 0.21665850281715393 -0.09631305932998657 1.008740782737732
v 0.3460407257080078 -0.083614781498909 0.8883571028709412
v -0.324737012386322 -0.08174893260002136 0.8646827340126038
v -0.24054379761219025 -0.10797428339719772 1.1874436140060425
v -0.034981243312358856 -0.1100238710641861 1.1588858366012573
v 0.1523103266954422 -0.09783492237329483 1.04559326171875
v 0.2736862599849701 -0.080450139939785 0.849783182144165
v -0.4126637578010559 -0.08568176627159119 0.9287983179092407
v -0.25560224056243896 -0.08659622818231583 0.9457997679710388
v -0.10989947617053986 -0.10473111271858215 1.1395106315612793
v 0.0785883367061615 -0.09378567337989807 1.0234498977661133
v 0.27411940693855286 -0.09928827732801437 1.099564790725708
v 0.3755563497543335 -0.08046829700469971 0.8802042007446289
v -0.30221056938171387 -0.08024895191192627 0.8926693797111511
v -0.17814752459526062 -0.09510095417499542 1.0667682886123657
v 0.008277012966573238 -0.09301555901765823 1.036635398864746
v 0.1907699704170227 -0.0942142903804779 1.0494167804718018
v 0.34191450476646423 -0.08555126190185547 0.9638897180557251
v -0.3876573145389557 -0.0846252515912056 0.9504528045654297
v -0.2278136909008026 -0.08617031574249268 0.9725755453109741
v -0.07090480625629425 -0.1041320264339447 1.164062261581421
v 0.1162976324558258 -0.08934088051319122 1.0251840353012085
v 0.26657676696777344 -0.08092815428972244 0.9245352149009705
v 0.4170115292072296 -0.07869309186935425 0.9011019468307495
v -0.2780320644378662 -0.0790834128856659 0.9202592968940735
v -0.13503222167491913 -0.08962109684944153 1.0389727354049683
v 0.045348215848207474 -0.08896733820438385 1.027966022491455
v 0.22020143270492554 -0.08708423376083374 1.0079909563064575
v 0.3468638062477112 -0.07515686005353928 0.8837814331054688
v -0.32137414813041687 -0.07321888953447342 0.8650725483894348
v -0.23179097473621368 -0.0946197360754013 1.1647636890411377
v -0.02599647268652916 -0.08861085027456284 1.051551103591919
v 0.15456199645996094 -0.08739078044891357 1.0357768535614014
v 0.27114036679267883 -0.07040320336818695 0.8325546383857727
v -0.40999120473861694 -0.07723583281040192 0.9302388429641724
v -0.25254103541374207 -0.0778842642903328 0.9466947317123413
v -0.10649838298559189 -0.09525306522846222 1.143990397453308
v 0.08125746995210648 -0.08304975181818008 1.0119496583938599
v 0.2759506106376648 -0.08995334059000015 1.0962293148040771
v 0.3773421049118042 -0.0701269879937172 0.8758788108825684
v -0.2995261549949646 -0.07234901189804077 0.8945769667625427
v -0.17538058757781982 -0.08585269004106522 1.069954752922058
v 0.0117887482047081 -0.08304876834154129 1.0276837348937988
v 0.1951759308576584 -0.08475644141435623 1.0519554615020752
v 0.35214748978614807 -0.07739409059286118 0.973446249961853
v -0.34049421548843384 -0.06747807562351227 0.841327965259552
v -0.22486896812915802 -0.07678356021642685 0.972798228263855
v -0.06236911192536354 -0.08668467402458191 1.0887662172317505
v 0.11899783462285995 -0.08000510931015015 1.017554759979248
v 0.26435673236846924 -0.07138088345527649 0.9101008772850037
v 0.41842710971832275 -0.07066438347101212 0.8942656517028809
v -0.27523425221443176 -0.07095092535018921 0.922105073928833
v -0.1320866048336029 -0.08042767643928528 1.0458927154541016
v 0.04862561449408531 -0.0776548758149147 1.0072168111801147
v 0.2238457351922989 -0.07801166921854019 1.008352279663086
v 0.3782183527946472 -0.07194241881370544 0.9523880481719971
v -0.31881654262542725 -0.06536666303873062 0.8669862747192383
v -0.2192486971616745 -0.08192425966262817 1.1249717473983765
v -0.022066451609134674 -0.07765396684408188 1.0338430404663086
v 0.1573001742362976 -0.07725712656974792 1.0283490419387817
v 0.27055680751800537 -0.06171313300728798 0.8225183486938477
v -0.4072190523147583 -0.06864167004823685 0.9316917657852173
v -0.24959945678710938 -0.06952418386936188 0.9479488730430603
v -0.10311861336231232 -0.08571550250053406 1.1477168798446655
v 0.0844140499830246 -0.07347648590803146 1.0057146549224854
v 0.2511293292045593 -0.07039998471736908 0.9748033881187439
v 0.4009653329849243 -0.06675031036138535 0.9273523688316345
v -0.2968735694885254 -0.0644816979765892 0.8963539004325867
v -0.1728687435388565 -0.0761469379067421 1.0733997821807861
v 0.015384890139102936 -0.0731508806347847 1.0167373418807983
v 0.19925417006015778 -0.07523238658905029 1.052613377571106
v 0.3504982888698578 -0.06751477718353271 0.9618895053863525
v -0.3369483947753906 -0.05882909521460533 0.8408406376838684
v -0.2217693328857422 -0.0679219588637352 0.9742364883422852
v -0.05697755888104439 -0.07404787838459015 1.0610179901123047
v 0.1218920573592186 -0.07068894803524017 1.0112948417663574
v 0.2631623148918152 -0.062233928591012955 0.8946911692619324
v -0.4307703673839569 -0.06129183620214462 0.9080396890640259
v -0.27248716354370117 -0.06294511258602142 0.923797070980072
v -0.1291748434305191 -0.07153739035129547 1.0525500774383545
v 0.051398005336523056 -0.06716939061880112 0.9944930076599121
v 0.22882825136184692 -0.06912780553102493 1.0144332647323608
v 0.3784354627132416 -0.06290117651224136 0.9458885788917542
v -0.31634044647216797 -0.05759778618812561 0.8685991764068604
v -0.19133181869983673 -0.06598123162984848 1.0020166635513306
v -0.01807316765189171 -0.0677037462592125 1.02346670627594
v 0.1598198562860489 -0.06714280694723129 1.0205224752426147
v 0.27088725566864014 -0.053375255316495895 0.8145897388458252
v -0.4051497280597687 -0.06005048751831055 0.9330399036407471
v -0.24666732549667358 -0.06118367984890938 0.9494518637657166
v -0.09374593198299408 -0.07009509205818176 1.0861709117889404
v 0.08756541460752487 -0.06321878731250763 0.9953680038452148
v 0.25106653571128845 -0.06116551160812378 0.9626266956329346
v 0.40158510208129883 -0.05824241787195206 0.9211488366127014
v -0.2940969467163086 -0.05662286654114723 0.8978651762008667
v -0.17077729105949402 -0.06662751734256744 1.0834975242614746
v 0.019638104364275932 -0.06167632341384888 0.9958924651145935
v 0.20283403992652893 -0.0657186508178711 1.0520727634429932
v 0.3491958677768707 -0.05891791731119156 0.9514163732528687
v -0.33391863107681274 -0.050964608788490295 0.8410358428955078
v -0.2189134806394577 -0.05920511856675148 0.9766876101493835
v -0.05123846232891083 -0.06182892248034477 1.0283377170562744
v 0.12393859028816223 -0.059705864638090134 0.9978747963905334
v 0.2594599425792694 -0.05239669978618622 0.868708610534668
v -0.42649346590042114 -0.05344398319721222 0.9118620753288269
v -0.26975017786026 -0.05490975081920624 0.9252597093582153
v -0.12655237317085266 -0.06249109283089638 1.0609890222549438
v 0.05437905713915825 -0.05754496529698372 0.9867035746574402
v 0.2337634116411209 -0.05930626764893532 1.0220630168914795
v 0.3801248073577881 -0.05443713441491127 0.9423313736915588
v -0.3135131895542145 -0.04980520159006119 0.8697825074195862
v -0.1884012371301651 -0.05682031437754631 1.0038278102874756
v -0.014378169551491737 -0.05818050727248192 1.0147792100906372
v 0.16271965205669403 -0.05750003457069397 1.015548586845398
v 0.2720511853694916 -0.04466943070292473 0.8078176975250244
v -0.35271456837654114 -0.0452505461871624 0.8197818398475647
v -0.24368900060653687 -0.05282367020845413 0.9513158798217773
v -0.08899253606796265 -0.05887655168771744 1.0654993057250977
v 0.09072308987379074 -0.05402010679244995 0.9893618822097778
v 0.25130975246429443 -0.05206955969333649 0.9511603713035583
v 0.40159040689468384 -0.04967920109629631 0.9127376675605774
v -0.291231632232666 -0.04864443838596344 0.898963451385498
v -0.16738668084144592 -0.056964557617902756 1.089259147644043
v 0.022752413526177406 -0.052101459354162216 0.9860078692436218
v 0.20590849220752716 -0.0560060478746891 1.049070119857788
v 0.34804102778434753 -0.04992866888642311 0.9388748407363892
v -0.3308926224708557 -0.043457746505737305 0.8411458134651184
v -0.21602091193199158 -0.050453681498765945 0.979569137096405
v -0.04739367589354515 -0.05202997103333473 1.0178998708724976
v 0.12657968699932098 -0.05044764652848244 0.9911233186721802
v 0.25556695461273193 -0.04257236421108246 0.8419543504714966
v -0.4241502285003662 -0.045255232602357864 0.9143951535224915
v -0.26699182391166687 -0.04678831994533539 0.9266486763954163
v -0.12388662248849869 -0.05298342555761337 1.0717233419418335
v 0.05755818635225296 -0.048211704939603806 0.9797502756118774
v 0.23648840188980103 -0.05008427053689957 1.0162729024887085
v 0.38245493173599243 -0.04591770097613335 0.9403023719787598
v -0.3105526566505432 -0.04193771630525589 0.870451807975769
v -0.18574149906635284 -0.04775092750787735 1.007041573524475
v -0.010527148842811584 -0.04831754043698311 1.0039478540420532
v 0.1660325825214386 -0.048265404999256134 1.0136500597000122
v 0.277342826128006 -0.03549114987254143 0.8109385371208191
v -0.34801438450813293 -0.03798529505729675 0.8157656192779541
v -0.2406941056251526 -0.04426541551947594 0.9535608291625977
v -0.08254332840442657 -0.04721285030245781 1.0411757230758667
v 0.09396599978208542 -0.045166075229644775 0.9840284585952759
v 0.25041842460632324 -0.04299226403236389 0.9343464970588684
v 0.40071725845336914 -0.040954507887363434 0.9023414850234985
v -0.2882493734359741 -0.040552083402872086 0.8998400568962097
v -0.1631147563457489 -0.04661645367741585 1.0895862579345703
v 0.026158317923545837 -0.04278803989291191 0.9768856763839722
v 0.20818661153316498 -0.04632716625928879 1.0437119007110596
v 0.34883245825767517 -0.0402187779545784 0.9304234981536865
v -0.3277960419654846 -0.035930607467889786 0.8412920832633972
v -0.21303460001945496 -0.041636958718299866 0.9823101758956909
v -0.04406212270259857 -0.043072063475847244 1.0137521028518677
v 0.12957288324832916 -0.04150715097784996 0.9869307279586792
v 0.2528388202190399 -0.03404916822910309 0.8231229782104492
v -0.42286112904548645 -0.036048244684934616 0.9157214164733887
v -0.2642264664173126 -0.03829953819513321 0.9278196692466736
v -0.12140421569347382 -0.0430983230471611 1.0819566249847412
v 0.060785941779613495 -0.038858622312545776 0.97309809923172
v 0.23908942937850952 -0.04072358459234238 1.011173963546753
v 0.3829697072505951 -0.037246741354465485 0.9326090812683105
v -0.3074902892112732 -0.03401990979909897 0.8707126379013062
v -0.18269823491573334 -0.03857196122407913 1.0098161697387695
v -0.006378809455782175 -0.03780514374375343 0.9900546073913574
v 0.16992582380771637 -0.03912996128201485 1.0130492448806763
v 0.34621602296829224 -0.041792094707489014 1.0075260400772095
v -0.34406304359436035 -0.0304176677018404 0.8130399584770203
v -0.23773443698883057 -0.03560866042971611 0.9558299779891968
v -0.07700154185295105 -0.036924686282873154 1.0226258039474487
v 0.09687351435422897 -0.03561944141983986 0.9779441356658936
v 0.2485528290271759 -0.03390689566731453 0.9135046601295471
v 0.398720383644104 -0.03195163980126381 0.8890843391418457
v -0.2851790189743042 -0.03224869817495346 0.9004496335983276
v -0.14967463910579681 -0.035513985902071 1.0363410711288452
v 0.029507530853152275 -0.03355417773127556 0.9693300724029541
v 0.2110365927219391 -0.03706430643796921 1.03943932056427
v 0.3529203236103058 -0.03244267776608467 0.9331233501434326
v -0.32455065846443176 -0.028443962335586548 0.841178297996521
v -0.21004551649093628 -0.03274683281779289 0.9850565791130066
v -0.040149807929992676 -0.03358910605311394 1.0058690309524536
v 0.13279345631599426 -0.03269178047776222 0.9848739504814148
v 0.25369513034820557 -0.02656480297446251 0.814301609992981
v -0.36137616634368896 -0.024629021063447 0.7905075550079346
v -0.26150208711624146 -0.029785796999931335 0.9289584755897522
v -0.11792127788066864 -0.03337060287594795 1.0846095085144043
v 0.0640568658709526 -0.029963294044137 0.96971195936203
v 0.2395499348640442 -0.03110520727932453 0.9993494749069214
v 0.3822704255580902 -0.028718549758195877 0.9213763475418091
v -0.3041997253894806 -0.026127146556973457 0.870588481426239
v -0.17985956370830536 -0.029690394178032875 1.013817548751831
v -0.0027944170869886875 -0.028577895835042 0.9823965430259705
v 0.17468532919883728 -0.03017907217144966 1.0164176225662231
v 0.32734033465385437 -0.02793661132454872 0.9482408761978149
v -0.33985045552253723 -0.023003092035651207 0.8101536631584167
v -0.23495729267597198 -0.026985693722963333 0.95794278383255
v -0.07264257222414017 -0.027598300948739052 1.0171061754226685
v 0.10000299662351608 -0.026904044672846794 0.975534975528717
v 0.24559862911701202 -0.025140494108200073 0.8906237483024597
v 0.39738887548446655 -0.02282322384417057 0.876157283782959
v -0.2821340262889862 -0.02410551905632019 0.9008786678314209
v -0.14611127972602844 -0.0255048256367445 1.0346812009811401
v 0.0327657125890255 -0.02474331296980381 0.9655526280403137
v 0.22405117750167847 -0.027187898755073547 1.0747805833816528
v 0.3583366274833679 -0.024425944313406944 0.9374326467514038
v -0.321119487285614 -0.02092032879590988 0.8406844139099121
v -0.2070707231760025 -0.02382812835276127 0.9879006743431091
v -0.03456230089068413 -0.023301508277654648 0.9896050095558167
v 0.13626523315906525 -0.024016907438635826 0.9847919344902039
v 0.25781282782554626 -0.019772207364439964 0.8126497864723206
v -0.354847252368927 -0.01765923760831356 0.7826110124588013
v -0.2586105167865753 -0.02144801802933216 0.9304074048995972
v -0.11378057301044464 -0.024029435589909554 1.0778019428253174
v 0.06761667132377625 -0.02129295840859413 0.9690570831298828
v 0.23956042528152466 -0.022035766392946243 0.9849598407745361
v 0.3803098201751709 -0.01974230632185936 0.9074749946594238
v -0.3007108271121979 -0.018414927646517754 0.8699554800987244
v -0.17699168622493744 -0.020791852846741676 1.0190801620483398
v 0.0010626575676724315 -0.01960383914411068 0.977270245552063
v 0.18039222061634064 -0.021666577085852623 1.0277316570281982
v 0.322498619556427 -0.018262825906276703 0.9230343103408813
v -0.3358920216560364 -0.01568792201578617 0.8078634738922119
v -0.23219285905361176 -0.018354233354330063 0.9601439833641052
v -0.06944188475608826 -0.018782122060656548 1.016987919807434
v 0.10337994247674942 -0.018125463277101517 0.9741630554199219
v 0.24109382927417755 -0.016618315130472183 0.8608924746513367
v 0.40208935737609863 -0.014290417544543743 0.8745425939559937
v -0.27893733978271484 -0.016048138961195946 0.9010840654373169
v -0.14251405000686646 -0.01624496653676033 1.0357911586761475
v 0.03611119091510773 -0.015954505652189255 0.9635517001152039
v 0.22772495448589325 -0.017652716487646103 1.0751056671142578
v 0.36224254965782166 -0.016060160472989082 0.9377457499504089
v -0.31734469532966614 -0.013343604281544685 0.8393324613571167
v -0.20409458875656128 -0.014916415326297283 0.9909457564353943
v -0.031076259911060333 -0.014593360014259815 0.9839865565299988
v 0.1398802399635315 -0.015225251205265522 0.9864097833633423
v 0.31435200572013855 -0.015499013476073742 0.9959470629692078
v -0.3504432737827301 -0.010574365966022015 0.7795740962028503
v -0.25560247898101807 -0.013123762793838978 0.9318499565124512
v -0.10870999842882156 -0.015183218754827976 1.066161870956421
v 0.071259044110775 -0.012646875344216824 0.9689698815345764
v 0.23880140483379364 -0.013108222745358944 0.9678362607955933
v 0.3787175714969635 -0.010419407859444618 0.8950116038322449
v -0.2971470057964325 -0.010744496248662472 0.8689377307891846
v -0.1743031144142151 -0.011313635855913162 1.0248829126358032
v 0.0045591420494019985 -0.010742655955255032 0.973656952381134
v 0.18696966767311096 -0.012611952610313892 1.0437729358673096
v 0.3261805474758148 -0.009983528405427933 0.9249235391616821
v -0.33189070224761963 -0.008171641267836094 0.8054804801940918
v -0.2292521446943283 -0.009653789922595024 0.9622366428375244
v -0.0663740485906601 -0.009767221286892891 1.0175138711929321
v 0.10652950406074524 -0.009160502813756466 0.9715362191200256
v 0.23657940328121185 -0.007962819188833237 0.830480694770813
v 0.448074072599411 -0.01229109987616539 0.9512242078781128
v -0.2756098806858063 -0.007914802059531212 0.9009653329849243
v -0.1396006941795349 -0.006926302332431078 1.041467547416687
v 0.039564091712236404 -0.007260776124894619 0.96282559633255
v 0.22840994596481323 -0.008191308006644249 1.071794033050537
v 0.35988104343414307 -0.007327619474381208 0.9242796301841736
v -0.3134081959724426 -0.0056948051787912846 0.8371774554252625
v -0.20119303464889526 -0.006079062819480896 0.9941262602806091
v -0.027623238041996956 -0.005838728044182062 0.9794184565544128
v 0.14376288652420044 -0.006365907844156027 0.9887001514434814
v 0.3139111399650574 -0.00547358114272356 0.9841553568840027
v -0.3463672697544098 -0.003459615632891655 0.7771113514900208
v -0.2524344027042389 -0.0046889884397387505 0.9330276250839233
v -0.09982218593358994 -0.003974947612732649 1.0313655138015747
v 0.0744979977607727 -0.0039032588247209787 0.9657602310180664
v 0.23711471259593964 -0.004194502253085375 0.9459876418113708
v 0.3837558925151825 -0.002034256001934409 0.8983435034751892
v -0.2936984896659851 -0.0029213428497314453 0.8680711388587952
v -0.17161737382411957 -0.0024031910579651594 1.031229019165039
v 0.008194399997591972 -0.002130590844899416 0.9707356691360474
v 0.1876142919063568 -0.00291500985622406 1.0291779041290283
v 0.340188205242157 -0.0001866116072051227 0.9613192081451416
v -0.32789525389671326 -0.0007069960702210665 0.8030480742454529
v -0.22622042894363403 -0.0010418979218229651 0.96429443359375
v -0.06280679255723953 -0.0005885501159355044 1.0094887018203735
v 0.10977058112621307 -0.000534163904376328 0.96994549036026
v 0.23652498424053192 -0.00035335312713868916 0.8214406967163086
v 0.4595203399658203 -0.0010731666116043925 0.9632470607757568
v -0.27221977710723877 0.00028003667830489576 0.9005876183509827
v -0.13695330917835236 0.0016628577141091228 1.0502324104309082
v 0.04301071912050247 0.0012678403872996569 0.9632300734519958
v 0.2287391573190689 0.0011017202632501721 1.0504038333892822
v 0.3568184971809387 0.001217078068293631 0.9072740077972412
v -0.3095892667770386 0.0020276077557355165 0.8348084688186646
v -0.1982835829257965 0.0026420026551932096 0.9976375699043274
v -0.024105431511998177 0.002917518839240074 0.9749246835708618
v 0.14910754561424255 0.002860922133550048 0.9969400763511658
v 0.31501179933547974 0.003035734174773097 0.9763559103012085
v -0.3427126407623291 0.0036048281472176313 0.7752391695976257
v -0.24924083054065704 0.003788512432947755 0.934080958366394
v -0.09533607959747314 0.005002239719033241 1.0176923274993896
v 0.07776378840208054 0.0047454205341637135 0.9627842903137207
v 0.23458898067474365 0.00430998345836997 0.9217767715454102
v 0.4231416583061218 0.006176511291414499 0.9748604893684387
v -0.29014477133750916 0.004903442692011595 0.8666297793388367
v -0.16872243583202362 0.0068597206845879555 1.037482500076294
v 0.011801671236753464 0.006411422044038773 0.9682842493057251
v 0.18952636420726776 0.006192786153405905 1.0215954780578613
v 0.34151405096054077 0.00685054250061512 0.9520052075386047
v -0.32428640127182007 0.006703885272145271 0.8015555143356323
v -0.22311283648014069 0.00757885305210948 0.9662097692489624
v -0.05720410495996475 0.008483772166073322 0.9926262497901917
v 0.11311349272727966 0.007979166693985462 0.9693110585212708
v 0.24023988842964172 0.006770225707441568 0.8223667144775391
v 0.47277212142944336 0.008728843182325363 0.9706442356109619
v -0.268746554851532 0.008515608496963978 0.8997107744216919
v -0.13408513367176056 0.010535716079175472 1.057614803314209
v 0.04650767147541046 0.009855881333351135 0.9638386964797974
v 0.22920818626880646 0.010414271615445614 1.0372132062911987
v 0.3757205009460449 0.010590111836791039 0.9460311532020569
v -0.30588969588279724 0.009671633131802082 0.8327129483222961
v -0.19526012241840363 0.011542907916009426 1.001171588897705
v -0.020590675994753838 0.011543412692844868 0.9728071689605713
v 0.15484711527824402 0.011992216110229492 1.0064830780029297
v 0.3182119131088257 0.011533845216035843 0.97458416223526
v -0.33918315172195435 0.010691768489778042 0.7737428545951843
v -0.2459813952445984 0.012391996569931507 0.9348920583724976
v -0.0910680741071701 0.0138469897210598 1.0097620487213135
v 0.08093294501304626 0.013337750919163227 0.9612089395523071
v 0.23089109361171722 0.012361451983451843 0.8949938416481018
v 0.4273604154586792 0.015555139631032944 0.972693681716919
v -0.2866615951061249 0.012688706628978252 0.8650170564651489
v -0.16601835191249847 0.01636875420808792 1.0411324501037598
v 0.015237262472510338 0.014937430620193481 0.966572642326355
v 0.19239826500415802 0.01544945314526558 1.018262505531311
v 0.3384875953197479 0.014863708056509495 0.9300360083580017
v -0.32087188959121704 0.013912461698055267 0.8005117177963257
v -0.21998639404773712 0.016380570828914642 0.9679977893829346
v -0.05245920643210411 0.017197808250784874 0.9841576814651489
v 0.11651702970266342 0.016603106632828712 0.9697290062904358
v 0.29007190465927124 0.016574285924434662 0.9839656352996826
v -0.3589194416999817 0.015892433002591133 0.7547948360443115
v -0.2652282118797302 0.016707507893443108 0.8982671499252319
v -0.13168488442897797 0.019842026755213737 1.0606495141983032
v 0.04993053898215294 0.01845298893749714 0.9624983072280884
v 0.22936172783374786 0.01949622482061386 1.0201243162155151
v 0.3768613934516907 0.019371002912521362 0.9385597109794617
v -0.3022422790527344 0.01714666374027729 0.830612063407898
v -0.19230397045612335 0.020672043785452843 1.0044817924499512
v -0.01704496331512928 0.02028626576066017 0.9723877906799316
v 0.15843835473060608 0.020813824608922005 1.0058454275131226
v 0.32131993770599365 0.019773749634623528 0.9747030138969421
v -0.33565327525138855 0.017743296921253204 0.7726987600326538
v -0.2427273541688919 0.02095082402229309 0.935356616973877
v -0.08714786171913147 0.022892098873853683 1.0056275129318237
v 0.08447836339473724 0.02199063077569008 0.9616262912750244
v 0.22526048123836517 0.019528811797499657 0.8573040962219238
v 0.43787717819213867 0.024574045091867447 0.9864941239356995
v -0.2832890450954437 0.020400112494826317 0.8636801242828369
v -0.16299349069595337 0.025773828849196434 1.045384407043457
v 0.018627360463142395 0.023462563753128052 0.9623720645904541
v 0.19607050716876984 0.02471267431974411 1.0182212591171265
v 0.3485639691352844 0.02414884604513645 0.9473612308502197
v -0.31732913851737976 0.02115093357861042 0.7992544174194336
v -0.21694445610046387 0.025198688730597496 0.9696389436721802
v -0.048585642129182816 0.025825411081314087 0.9808123111724854
v 0.12039238214492798 0.025550439953804016 0.9725338816642761
v 0.29291754961013794 0.025621691718697548 0.9809284806251526
v -0.35257571935653687 0.022005360573530197 0.7536070346832275
v -0.26176944375038147 0.02483193948864937 0.8968598246574402
v -0.1252661943435669 0.029513344168663025 1.0422210693359375
v 0.053433556109666824 0.026933088898658752 0.9586272239685059
v 0.2286086082458496 0.028234995901584625 1.0004119873046875
v 0.3784961998462677 0.026604022830724716 0.9334475994110107
v -0.29860737919807434 0.02451532892882824 0.8281263113021851
v -0.18923135101795197 0.029909946024417877 1.0073758363723755
v -0.013440552167594433 0.02885468862950802 0.9729341864585876
v 0.16197556257247925 0.02971797063946724 1.004773497581482
v 0.3185647428035736 0.028674950823187828 0.9507941603660583
v -0.33228060603141785 0.02478824183344841 0.7724705934524536
v -0.23947454988956451 0.029354309663176537 0.935600757598877
v -0.08317393809556961 0.031907353550195694 1.0027031898498535
v 0.08817842602729797 0.03057023324072361 0.9633499383926392
v 0.22253161668777466 0.02636983059346676 0.8371511697769165
v 0.4471556842327118 0.03377040475606918 1.0002788305282593
v -0.2796880602836609 0.02812184952199459 0.8617684841156006
v -0.15998081862926483 0.03542645648121834 1.0498675107955933
v 0.022016244009137154 0.03198732063174248 0.960783839225769
v 0.2003859430551529 0.034101180732250214 1.0211673974990845
v 0.34982073307037354 0.032310061156749725 0.9435522556304932
v -0.3139830231666565 0.028307341039180756 0.7983052134513855
v -0.21382619440555573 0.03389398381114006 0.9711925387382507
v -0.04514829069375992 0.03469322621822357 0.9799191355705261
v 0.123970627784729 0.03428550064563751 0.9730376601219177
v 0.2963602542877197 0.034095194190740585 0.9789282083511353
v -0.3488479256629944 0.028333639726042747 0.752777099609375
v -0.25855928659439087 0.032942261546850204 0.8962403535842896
v -0.11988958716392517 0.038725677877664566 1.0303406715393066
v 0.05662453919649124 0.03527619689702988 0.9537146687507629
v 0.22721980512142181 0.03625542297959328 0.9802885055541992
v 0.37992534041404724 0.034265171736478806 0.9290376901626587
v -0.29508933424949646 0.031860966235399246 0.8260806798934937
v -0.18613454699516296 0.03903285786509514 1.0101077556610107
v -0.00949553120881319 0.03762751817703247 0.9686630964279175
v 0.16567590832710266 0.03879646211862564 1.0040333271026611
v 0.32447221875190735 0.03844115138053894 0.9576166272163391
v -0.3291360139846802 0.03166922554373741 0.772708535194397
v -0.2361275553703308 0.03781316056847572 0.9358636736869812
v -0.07931819558143616 0.040734075009822845 1.000770092010498
v 0.09208610653877258 0.039201587438583374 0.9644970893859863
v 0.22568279504776 0.034035950899124146 0.8408749103546143
v 0.45174726843833923 0.042591776698827744 1.0030370950698853
v -0.275875985622406 0.03585062548518181 0.859425961971283
v -0.1565990447998047 0.04502490162849426 1.0543569326400757
v 0.02559416927397251 0.040680427104234695 0.9615635275840759
v 0.20629151165485382 0.0440618097782135 1.0285390615463257
v 0.35147756338119507 0.04023387283086777 0.9406723976135254
v -0.3108278810977936 0.03546130657196045 0.7981017827987671
v -0.2106296867132187 0.04266497492790222 0.9726126790046692
v -0.04093927517533302 0.043199870735406876 0.9747347831726074
v 0.1272914707660675 0.04288721829652786 0.971948504447937
v 0.2986566126346588 0.04329989477992058 0.9754025340080261
v -0.34558990597724915 0.034889474511146545 0.7525100708007812
v -0.25537165999412537 0.041115835309028625 0.8956770896911621
v -0.11529074609279633 0.047940537333488464 1.0254311561584473
v 0.05990080535411835 0.04365214705467224 0.9517611265182495
v 0.2247491031885147 0.04363720864057541 0.9579482674598694
v 0.3809821605682373 0.042322561144828796 0.9248169660568237
v -0.29123398661613464 0.039148226380348206 0.823315441608429
v -0.18292094767093658 0.04824920371174812 1.0128364562988281
v -0.0058462959714233875 0.046426206827163696 0.9638089537620544
v 0.16959555447101593 0.047923460602760315 1.0047787427902222
v 0.3259185254573822 0.04621832072734833 0.9542675018310547
v -0.3262210190296173 0.038524143397808075 0.7731759548187256
v -0.23278619349002838 0.04639668017625809 0.9360886812210083
v -0.07566186040639877 0.0496969074010849 1.0003565549850464
v 0.09617580473423004 0.04794163256883621 0.9667722582817078
v 0.2577632963657379 0.04820255935192108 0.9451058506965637
v 0.45615607500076294 0.05128185823559761 1.0002654790878296
v -0.2716868817806244 0.04367316886782646 0.8558458089828491
v -0.15338866412639618 0.05471000075340271 1.0589215755462646
v 0.029185878112912178 0.04947943985462189 0.9624656438827515
v 0.21205635368824005 0.05376506596803665 1.0356653928756714
v 0.35346049070358276 0.04839511588215828 0.9378136396408081
v -0.30722054839134216 0.04253536835312843 0.7966887950897217
v -0.2073907107114792 0.05161774531006813 0.9738818407058716
v -0.03714732080698013 0.05187293142080307 0.9685937762260437
v 0.13094447553157806 0.05147218331694603 0.9719168543815613
v 0.29943200945854187 0.05252111330628395 0.9663058519363403
v -0.34267285466194153 0.04161371663212776 0.7526198625564575
v -0.25161367654800415 0.04911346733570099 0.8940157294273376
v -0.11118558049201965 0.057137615978717804 1.0260052680969238
v 0.06336065381765366 0.05212376266717911 0.9515373110771179
v 0.21877676248550415 0.0493634007871151 0.9193305969238281
v 0.3822347819805145 0.05072985962033272 0.9208365678787231
v -0.28714174032211304 0.04650421440601349 0.8202110528945923
v -0.1796383112668991 0.057620514184236526 1.0155305862426758
v -0.0022968314588069916 0.05497386306524277 0.9616689682006836
v 0.17342880368232727 0.057078391313552856 1.0067903995513916
v 0.32737594842910767 0.05465465411543846 0.9514755606651306
v -0.32318562269210815 0.04533723369240761 0.7732515335083008
v -0.2293931245803833 0.05497637763619423 0.936259388923645
v -0.07194653153419495 0.059080906212329865 1.0002068281173706
v 0.09961436688899994 0.056606195867061615 0.9661896228790283
v 0.26106223464012146 0.058185067027807236 0.9451054930686951
v 0.45999589562416077 0.060781072825193405 0.998407781124115
v -0.2674282491207123 0.051418352872133255 0.8521643877029419
v -0.15019410848617554 0.06436869502067566 1.0631483793258667
v 0.03262033686041832 0.058056462556123734 0.9604040384292603
v 0.21534833312034607 0.06274768710136414 1.034846544265747
v 0.3554338216781616 0.057136230170726776 0.9354528188705444
v -0.3032900393009186 0.04960191622376442 0.7940165400505066
v -0.20407119393348694 0.06063847988843918 0.9750882983207703
v -0.03373589366674423 0.0602223202586174 0.96543288230896
v 0.13451221585273743 0.06012610346078873 0.9724146723747253
v 0.3013734221458435 0.06134192273020744 0.9611548185348511
v -0.3397575914859772 0.04835192486643791 0.7528717517852783
v -0.24745677411556244 0.056883521378040314 0.890613853931427
v -0.10746339708566666 0.06658492237329483 1.0280861854553223
v 0.06692977249622345 0.06080157309770584 0.9528231024742126
v 0.21035021543502808 0.055098745971918106 0.8622166514396667
v 0.38230204582214355 0.058600421994924545 0.9117469787597656
v -0.2832682430744171 0.053842943161726 0.8177971839904785
v -0.17630425095558167 0.06706827133893967 1.0181238651275635
v 0.0011435593478381634 0.06353544443845749 0.9608228802680969
v 0.17760032415390015 0.06627260893583298 1.0097534656524658
v 0.32953718304634094 0.06388331949710846 0.9430379271507263
v -0.3193647265434265 0.0521925687789917 0.7712126970291138
v -0.22598302364349365 0.06337262690067291 0.9356052279472351
v -0.0684925839304924 0.06816717982292175 0.9990836381912231
v 0.1029745489358902 0.06525936722755432 0.9654892683029175
v 0.2663118839263916 0.06745606660842896 0.9534487128257751
v 0.4639405906200409 0.07118383049964905 0.998931348323822
v -0.2631016671657562 0.05903130769729614 0.8484528660774231
v -0.14698733389377594 0.07405839115381241 1.067007303237915
v 0.03607877716422081 0.0666334480047226 0.9589859843254089
v 0.21562261879444122 0.07139558345079422 1.024712085723877
v 0.3550374209880829 0.06698226183652878 0.9307621717453003
v -0.2994868755340576 0.05664350464940071 0.7918215990066528
v -0.2006877362728119 0.06956782937049866 0.9759464263916016
v -0.030258899554610252 0.0688188299536705 0.9639713168144226
v 0.13822151720523834 0.06909292936325073 0.9747329354286194
v 0.2474984973669052 0.053843069821596146 0.7815426588058472
v -0.33610254526138306 0.05511876940727234 0.7518200874328613
v -0.24310454726219177 0.06467255204916 0.8862614035606384
v -0.10250575840473175 0.07496857643127441 1.0182470083236694
v 0.07053250074386597 0.06975024938583374 0.9559895396232605
v 0.2130657285451889 0.06278469413518906 0.8644368648529053
v 0.3432023227214813 0.046864621341228485 0.7781283855438232
v -0.27949073910713196 0.061193861067295074 0.815778374671936
v -0.17296545207500458 0.07634615153074265 1.0205581188201904
v 0.004652974661439657 0.07230304926633835 0.961521327495575
v 0.18118414282798767 0.07550106197595596 1.0115554332733154
v 0.2642500102519989 0.05355846509337425 0.746617317199707
v -0.3157479166984558 0.05913739651441574 0.7697198987007141
v -0.22235172986984253 0.07165271788835526 0.9333781003952026
v -0.06460440903902054 0.07678674906492233 0.9963271021842957
v 0.10646671056747437 0.07385248690843582 0.9663399457931519
v 0.22907979786396027 0.06091124936938286 0.8069813847541809
v 0.4717842638492584 0.0830802470445633 1.001961588859558
v -0.25884467363357544 0.0666162520647049 0.8444890975952148
v -0.1437617540359497 0.0837351530790329 1.0700435638427734
v 0.039486173540353775 0.07551349699497223 0.9603933095932007
v 0.1980971395969391 0.07230140268802643 0.9210997819900513
v 0.27908822894096375 0.052266739308834076 0.7106926441192627
v -0.29587656259536743 0.0636850893497467 0.7900313138961792
v -0.19717328250408173 0.07834327220916748 0.9766052961349487
v -0.026827339082956314 0.07765211910009384 0.9642125964164734
v 0.14253269135951996 0.07851816713809967 0.9802297353744507
v 0.2454688549041748 0.06029755622148514 0.7653979063034058
v -0.3322003185749054 0.06212129071354866 0.7504382729530334
v -0.2383473515510559 0.0723935142159462 0.8804507255554199
v -0.09794770181179047 0.08345676213502884 1.008337378501892
v 0.07436845451593399 0.07908312231302261 0.9613245725631714
v 0.2424234002828598 0.08193051069974899 0.9690097570419312
v 0.2980816662311554 0.05410010367631912 0.6897306442260742
v -0.27566343545913696 0.06848262995481491 0.8137059807777405
v -0.16950973868370056 0.08564119040966034 1.0226725339889526
v 0.0082393204793334 0.08140359818935394 0.9638879299163818
v 0.1850767284631729 0.08475524932146072 1.012616515159607
v 0.2616879642009735 0.06011783331632614 0.7322608232498169
v -0.3122357130050659 0.06614012271165848 0.768530547618866
v -0.21808701753616333 0.07975434511899948 0.9296107292175293
v -0.06065012887120247 0.08579181134700775 0.9937739968299866
v 0.11015928536653519 0.08298863470554352 0.9693956971168518
v 0.22683942317962646 0.06744963675737381 0.7879722714424133
v 0.4861629903316498 0.09728182107210159 1.0096993446350098
v -0.25448858737945557 0.07403931021690369 0.8404526114463806
v -0.14028935134410858 0.09342873841524124 1.0724729299545288
v 0.043212905526161194 0.08474939316511154 0.9648159742355347
v 0.19303041696548462 0.0771755501627922 0.8899417519569397
v 0.27481091022491455 0.05909455940127373 0.6943747997283936
v -0.29229629039764404 0.07067464292049408 0.7884466648101807
v -0.1935311108827591 0.08723990619182587 0.977283775806427
v -0.023459874093532562 0.0866871178150177 0.9660469889640808
v 0.14769676327705383 0.08855359256267548 0.9897007942199707
v 0.24372415244579315 0.0662371963262558 0.7514046430587769
v -0.32897064089775085 0.0693417489528656 0.7496492862701416
v -0.23353560268878937 0.07997497916221619 0.8745682835578918
v -0.09394144266843796 0.09200666844844818 1.0034606456756592
v 0.07877372205257416 0.08908512443304062 0.9698941707611084
v 0.21396809816360474 0.07615328580141068 0.8393300771713257
v 0.2890194356441498 0.05702291429042816 0.6615779399871826
v -0.27173227071762085 0.07557429373264313 0.8113179206848145
v -0.1658373475074768 0.09511062502861023 1.0243878364562988
v 0.011843640357255936 0.0903216227889061 0.9648246169090271
v 0.18587689101696014 0.09298359602689743 1.0121128559112549
v 0.2582448422908783 0.06582827866077423 0.715266227722168
v -0.3088950216770172 0.07306019216775894 0.7676992416381836
v -0.21330973505973816 0.08763603866100311 0.9239304065704346
v -0.056555263698101044 0.09466579556465149 0.9895051717758179
v 0.11408200860023499 0.09209820628166199 0.9743261933326721
v 0.22598803043365479 0.07344785332679749 0.7734479308128357
v 0.5045433044433594 0.11438968032598495 1.0218727588653564
v -0.2500974237918854 0.081341452896595 0.8364166021347046
v -0.13697412610054016 0.10307029634714127 1.07368803024292
v 0.0468890555202961 0.09366096556186676 0.9659767746925354
v 0.19389420747756958 0.08459873497486115 0.8888070583343506
v 0.2698999047279358 0.06452672928571701 0.6768244504928589
v -0.2887534201145172 0.07764394581317902 0.7869924902915955
v -0.18973472714424133 0.0960603877902031 0.9770894646644592
v -0.020042408257722855 0.0961400717496872 0.9701623916625977
v 0.15354855358600616 0.09877344965934753 1.00030517578125
v 0.24246177077293396 0.07183925062417984 0.7392958402633667
v -0.326095849275589 0.07670248299837112 0.7493389844894409
v -0.22882668673992157 0.08747362345457077 0.8686798810958862
v -0.09010186046361923 0.10094045847654343 1.0008574724197388
v 0.08285655826330185 0.09806021302938461 0.9748866558074951
v 0.2107214629650116 0.08177404850721359 0.8145790100097656
v 0.284656822681427 0.06307657808065414 0.6484957933425903
v -0.2677263021469116 0.0826731026172638 0.8089309930801392
v -0.16214661300182343 0.10455816239118576 1.0257261991500854
v 0.015413097105920315 0.09878619015216827 0.9627003073692322
v 0.17417989671230316 0.0946272686123848 0.9199415445327759
v 0.25318706035614014 0.0708591490983963 0.6936492323875427
v -0.30566927790641785 0.08013727515935898 0.7666862607002258
v -0.20799854397773743 0.09527546912431717 0.9157583117485046
v -0.05277828499674797 0.10357280820608139 0.9876207113265991
v 0.1184380054473877 0.10193994641304016 0.9807849526405334
v 0.22526271641254425 0.07898368686437607 0.7606722712516785
v -0.4068621098995209 0.08709627389907837 0.8428491353988647
v -0.24580051004886627 0.08850910514593124 0.8323798179626465
v -0.13275641202926636 0.11317898333072662 1.071906566619873
v 0.05026424676179886 0.10241390019655228 0.9646444320678711
v 0.22396010160446167 0.10599206387996674 0.994096577167511
v 0.26551419496536255 0.0697588175535202 0.6613182425498962
v -0.2853016257286072 0.08462823927402496 0.7857174873352051
v -0.1856311559677124 0.10471396148204803 0.9749886989593506
v -0.016529567539691925 0.10539419203996658 0.9724695086479187
v 0.15839917957782745 0.10862211883068085 1.0081430673599243
v 0.2397838681936264 0.07702536880970001 0.7223023176193237
v -0.32335254549980164 0.08426576107740402 0.749333381652832
v -0.22415903210639954 0.09480936080217361 0.8628785014152527
v -0.08630634844303131 0.11002873629331589 0.9993535280227661
v 0.08684838563203812 0.1069934144616127 0.9790225625038147
v 0.20916485786437988 0.08732974529266357 0.7959792613983154
v 0.2823055684566498 0.06888707727193832 0.6384819746017456
v -0.26378342509269714 0.08973079174757004 0.8066105842590332
v -0.1585804969072342 0.1139599084854126 1.026918888092041
v 0.01879146695137024 0.10741688311100006 0.962765097618103
v 0.1773507297039032 0.10353551059961319 0.9270846247673035
v 0.24885378777980804 0.07552123814821243 0.6748210191726685
v -0.3026445806026459 0.08737439662218094 0.765447199344635
v -0.20218053460121155 0.10254647582769394 0.9048171043395996
v -0.04929303005337715 0.11265163868665695 0.9879686832427979
v 0.12284459918737411 0.1116124838590622 0.9872841238975525
v 0.2242712676525116 0.08409460633993149 0.7494475841522217
v -0.39894768595695496 0.09812439978122711 0.8502068519592285
v -0.24170084297657013 0.09551386535167694 0.828606903553009
v -0.1284792572259903 0.12279743701219559 1.0666377544403076
v 0.05368931218981743 0.11105453968048096 0.9645706415176392
v 0.19647371768951416 0.09873435646295547 0.8585528135299683
v 0.26212388277053833 0.07458911091089249 0.6473385095596313
v -0.282034695148468 0.09160914272069931 0.7843371629714966
v -0.18009811639785767 0.1125846728682518 0.9652860164642334
v -0.013039959594607353 0.11391372978687286 0.9718161225318909
v 0.15850573778152466 0.11720935255289078 0.997064471244812
v 0.23412013053894043 0.08162259310483932 0.6951663494110107
v -0.37273749709129333 0.10230060666799545 0.8634178042411804
v -0.2195369303226471 0.10194473713636398 0.8574554324150085
v -0.08252530544996262 0.119164377450943 0.9995465874671936
v 0.09068303555250168 0.11666049063205719 0.9832339286804199
v 0.2078079730272293 0.09245394170284271 0.7782880067825317
v 0.28200769424438477 0.07489393651485443 0.6298480033874512
v -0.26002758741378784 0.09664728492498398 0.8044013381004333
v -0.15513597428798676 0.12297804653644562 1.0273418426513672
v 0.022259581834077835 0.11623244732618332 0.9635453820228577
v 0.20083360373973846 0.12540799379348755 1.0193073749542236
v 0.24529898166656494 0.07986916601657867 0.6585853099822998
v -0.29999101161956787 0.09517741948366165 0.7641699314117432
v -0.19648224115371704 0.1095479428768158 0.8937024474143982
v -0.045699819922447205 0.12165697664022446 0.9881589412689209
v 0.12739361822605133 0.1215151995420456 0.994483232498169
v 0.22151494026184082 0.08872956037521362 0.7307077646255493
v -0.3961763083934784 0.10681755095720291 0.8537958860397339
v -0.23772692680358887 0.1024005115032196 0.8252614736557007
v -0.12499839812517166 0.1327459216117859 1.0655614137649536
v 0.05727801471948624 0.12004721164703369 0.9663986563682556
v 0.1941787153482437 0.10383863747119904 0.8350381255149841
v 0.2592264413833618 0.07944448292255402 0.6337682008743286
v -0.2786717116832733 0.09883267432451248 0.7831881046295166
v -0.17402033507823944 0.11948899924755096 0.9493390321731567
v -0.009566745720803738 0.12285856902599335 0.9731242060661316
v 0.16413770616054535 0.1277245283126831 1.0013257265090942
v 0.22939608991146088 0.08560014516115189 0.673067569732666
v -0.37059876322746277 0.11112028360366821 0.8697018623352051
v -0.21497967839241028 0.1089751273393631 0.8523383736610413
v -0.07881570607423782 0.12852109968662262 1.0014101266860962
v 0.09498120099306107 0.1264936923980713 0.9903219938278198
v 0.20613665878772736 0.09725984930992126 0.762007474899292
v 0.28546440601348877 0.08224648982286453 0.6272232532501221
v -0.2563426196575165 0.10343587398529053 0.8021772503852844
v -0.14973245561122894 0.13120470941066742 1.0164659023284912
v 0.025733202695846558 0.1253964751958847 0.9652632474899292
v 0.20401380956172943 0.13377170264720917 1.0227296352386475
v 0.24180082976818085 0.08409111946821213 0.6432206034660339
v -0.2983739376068115 0.10320606082677841 0.7673873901367188
v -0.19103091955184937 0.1162145584821701 0.8843986988067627
v -0.04210607707500458 0.13082784414291382 0.9889775514602661
v 0.13213913142681122 0.13253313302993774 1.0038057565689087
v 0.21586614847183228 0.09247848391532898 0.7023252248764038
v -0.3940563201904297 0.11513198167085648 0.8570029735565186
v -0.23367172479629517 0.10926277935504913 0.8220794200897217
v -0.12057684361934662 0.142121359705925 1.0658960342407227
v 0.06101138889789581 0.1294766515493393 0.9698193669319153
v 0.19319146871566772 0.1088772863149643 0.8155050873756409
v 0.25691473484039307 0.0843357965350151 0.6221222877502441
v -0.27498379349708557 0.10634554177522659 0.7819507122039795
v -0.16767805814743042 0.12590090930461884 0.9316849708557129
v -0.006253681145608425 0.13242031633853912 0.9773516654968262
v 0.17184045910835266 0.14040438830852509 1.0228444337844849
v 0.2256644368171692 0.08960139751434326 0.6547561287879944
v -0.3676908314228058 0.1196323037147522 0.8722750544548035
v -0.21055786311626434 0.11596789956092834 0.8476125001907349
v -0.0753079354763031 0.1379350870847702 1.0052158832550049
v 0.09921257942914963 0.13657814264297485 0.998664379119873
v 0.20407088100910187 0.10173086822032928 0.745671272277832
v 0.3471195101737976 0.10745169967412949 0.7782359719276428
v -0.2517010569572449 0.11062342673540115 0.7983214259147644
v -0.14314323663711548 0.13790227472782135 0.9947103261947632
v 0.02929876372218132 0.13487926125526428 0.968483567237854
v 0.18298746645450592 0.1255292445421219 0.8986231088638306
v 0.2384180873632431 0.08859404176473618 0.6285884380340576
v -0.34095972776412964 0.122980035841465 0.8812453746795654
v -0.18604017794132233 0.12347979843616486 0.8780944347381592
v -0.03877073526382446 0.1401694267988205 0.9930920004844666
v 0.13911375403404236 0.14520218968391418 1.021636962890625
v 0.21179360151290894 0.09576470404863358 0.6796088814735413
v -0.3920659124851227 0.12306179851293564 0.8596842885017395
v -0.2297060191631317 0.11624801158905029 0.8189519047737122
v -0.11379297077655792 0.1497068554162979 1.051932454109192
v 0.06481362134218216 0.1391219049692154 0.9753730893135071
v 0.1918283849954605 0.11346925050020218 0.7956030368804932
v 0.25598958134651184 0.09010107070207596 0.6136409044265747
v -0.27177613973617554 0.11443204432725906 0.7809176445007324
v -0.16181938350200653 0.13225901126861572 0.9156432151794434
v -0.002631204668432474 0.14241410791873932 0.983892560005188
v 0.1767052412033081 0.15082533657550812 1.031455636024475
v 0.22305288910865784 0.0935148224234581 0.6411089897155762
v -0.36561742424964905 0.12788134813308716 0.8749328851699829
v -0.20639510452747345 0.12272308766841888 0.8433253765106201
v -0.07197865843772888 0.14545360207557678 1.0043275356292725
v 0.10366781055927277 0.1474105268716812 1.008865237236023
v 0.20116238296031952 0.10506025701761246 0.7254356145858765
v 0.3288450241088867 0.10361086577177048 0.722123920917511
v -0.24769599735736847 0.11856187880039215 0.7947939038276672
v -0.135991171002388 0.14318926632404327 0.9654303193092346
v 0.032771967351436615 0.1444399505853653 0.9734511971473694
v 0.17906039953231812 0.128828227519989 0.868084728717804
v 0.23623649775981903 0.0925959125161171 0.6173922419548035
v -0.3384030759334564 0.1317325234413147 0.8828265070915222
v -0.1820819079875946 0.1309177279472351 0.8744617104530334
v -0.035305120050907135 0.14999930560588837 1.0000327825546265
v 0.14434045553207397 0.1571638435125351 1.036285638809204
v 0.2082970291376114 0.09910847991704941 0.6596834659576416
v -0.3897717297077179 0.13102342188358307 0.8621871471405029
v -0.22589710354804993 0.12410538643598557 0.8158462047576904
v -0.10668585449457169 0.15545253455638885 1.0283381938934326
v 0.06911338120698929 0.14940354228019714 0.984194815158844
v 0.19013233482837677 0.11775804311037064 0.776869535446167
v 0.2582017779350281 0.09713966399431229 0.6102403402328491
v -0.298176109790802 0.1315271407365799 0.8649945259094238
v -0.15655572712421417 0.1386842429637909 0.9032569527626038
v 0.0008873049519024789 0.15252365171909332 0.991000235080719
v 0.18070271611213684 0.16036128997802734 1.035629391670227
v 0.2210051715373993 0.09740401804447174 0.6299179792404175
v -0.3638289272785187 0.1362197995185852 0.8776010274887085
v -0.20247085392475128 0.13023440539836884 0.8388783931732178
v -0.06200182065367699 0.14033478498458862 0.9054690003395081
v 0.11372135579586029 0.16423319280147552 1.041540503501892
v 0.19457097351551056 0.1070038303732872 0.6887651085853577
v 0.3300016224384308 0.11149897426366806 0.7168264389038086
v -0.24606120586395264 0.12857812643051147 0.7978194952011108
v -0.12925970554351807 0.14822034537792206 0.9401021003723145
v 0.03659951686859131 0.15445145964622498 0.9815357327461243
v 0.17792150378227234 0.13329192996025085 0.8453400135040283
v 0.23518244922161102 0.09697499871253967 0.6098836660385132
v -0.3335917592048645 0.13917618989944458 0.8775386214256287
v -0.17833596467971802 0.1381736397743225 0.8701490163803101
v -0.03127843886613846 0.15353506803512573 0.9654718041419983
v 0.1478099822998047 0.1663658767938614 1.0399625301361084
v 0.20536011457443237 0.10258147865533829 0.6423760652542114
v -0.387198269367218 0.13894985616207123 0.8639861941337585
v -0.2222900688648224 0.13313883543014526 0.8141933679580688
v -0.09956226497888565 0.15895697474479675 0.9850592017173767
v 0.074069544672966 0.16050125658512115 0.9976831078529358
v 0.18836350739002228 0.12140584737062454 0.760201632976532
v 0.31619060039520264 0.1204918846487999 0.7508298754692078
v -0.29428935050964355 0.13970467448234558 0.8615692853927612
v -0.15171754360198975 0.1454017609357834 0.8938065767288208
v 0.004929098300635815 0.16270343959331512 0.9993228912353516
v 0.16764412820339203 0.1545189619064331 0.9392353296279907
v 0.21936674416065216 0.10145581513643265 0.6201916933059692
v -0.36177170276641846 0.14450231194496155 0.879330039024353
v -0.19821679592132568 0.13824577629566193 0.8346979022026062
v -0.05730687826871872 0.1451217085123062 0.8875976204872131
v 0.11767585575580597 0.17522172629833221 1.051041841506958
v 0.18931244313716888 0.10882359743118286 0.660045862197876
v 0.33350712060928345 0.11840985715389252 0.7169612646102905
v -0.28457561135292053 0.15258142352104187 0.9334115386009216
v -0.12305185198783875 0.15397843718528748 0.919508695602417
v 0.040716201066970825 0.16413655877113342 0.9914143085479736
v 0.17702122032642365 0.13724863529205322 0.8241899609565735
v 0.2362263947725296 0.1026998832821846 0.6031426191329956
v -0.32712578773498535 0.14692969620227814 0.8739522099494934
v -0.17471042275428772 0.1461397111415863 0.8656330108642578
v -0.024916764348745346 0.15293888747692108 0.909792959690094
v 0.14749294519424438 0.17212194204330444 1.013530969619751
v 0.20312505960464478 0.10613659024238586 0.6289824843406677
v -0.3842475414276123 0.14684683084487915 0.8643995523452759
v -0.264960378408432 0.16111773252487183 0.9852692484855652
v -0.09303763508796692 0.1635243445634842 0.9599739909172058
v 0.0785302147269249 0.17156434059143066 1.0118039846420288
v 0.18323838710784912 0.12256203591823578 0.7309345006942749
v 0.3115709722042084 0.12521600723266602 0.730140745639801
v -0.29140588641166687 0.14796169102191925 0.8627058863639832
v -0.14730608463287354 0.15310069918632507 0.8854219317436218
v 0.007426220923662186 0.1592397540807724 0.9243039488792419
v 0.1641804277896881 0.15671372413635254 0.9063093066215515
v 0.21782079339027405 0.10579273849725723 0.6103900671005249
v -0.35885778069496155 0.15236885845661163 0.8794078826904297
v -0.19596925377845764 0.14837123453617096 0.8370383977890015
v -0.0538172610104084 0.1533658504486084 0.8873268365859985
v 0.1200362890958786 0.18439970910549164 1.0504838228225708
v 0.18675312399864197 0.11179964244365692 0.6431174278259277
v 0.33685263991355896 0.12545068562030792 0.7170714735984802
v -0.2896747589111328 0.16687464714050293 0.9603275060653687
v -0.11760972440242767 0.1616944819688797 0.9112941026687622
v 0.04016522690653801 0.1557309329509735 0.8934750556945801
v 0.17576654255390167 0.14030708372592926 0.8030692338943481
v 0.23735272884368896 0.10970889031887054 0.59981369972229
v -0.32548683881759644 0.1556137353181839 0.8773687481880188
v -0.17102231085300446 0.1550278514623642 0.8612213730812073
v -0.020750021561980247 0.15500332415103912 0.8770639300346375
v 0.1484125703573227 0.17831586301326752 1.0003491640090942
v 0.20123076438903809 0.1098099872469902 0.6175491809844971
v -0.381499707698822 0.15503907203674316 0.8656959533691406
v -0.26024600863456726 0.17374074459075928 0.9814320206642151
v -0.09078323841094971 0.17372353374958038 0.9704221487045288
v 0.08456232398748398 0.18363730609416962 1.0276210308074951
v 0.17184466123580933 0.119432732462883 0.667754054069519
v 0.3070874810218811 0.12918570637702942 0.7123351097106934
v -0.2900400161743164 0.15642809867858887 0.8659940361976624
v -0.14333565533161163 0.16307124495506287 0.8855828642845154
v 0.011867663823068142 0.15785957872867584 0.8715722560882568
v 0.16328120231628418 0.15970851480960846 0.8840945363044739
v 0.21711277961730957 0.11091216653585434 0.6014125347137451
v -0.356062650680542 0.16076865792274475 0.8802584409713745
v -0.19507914781570435 0.15871870517730713 0.8414456248283386
v -0.05178208276629448 0.16510429978370667 0.899850606918335
v 0.12299496680498123 0.19365477561950684 1.0483790636062622
v 0.1847589612007141 0.11521879583597183 0.6290290355682373
v 0.3418480455875397 0.13262183964252472 0.7174086570739746
v -0.28298744559288025 0.1750638782978058 0.9503681659698486
v -0.13575981557369232 0.19225700199604034 1.0744850635528564
v 0.04440909996628761 0.1677977293729782 0.9181914925575256
v 0.16022589802742004 0.13144665956497192 0.7131596803665161
v 0.33184751868247986 0.1488306075334549 0.8307608366012573
v -0.3261192739009857 0.16630876064300537 0.8865526914596558
v -0.16794653236865997 0.16561581194400787 0.8616856932640076
v -0.017782125622034073 0.161396786570549 0.8666492700576782
v 0.14869651198387146 0.1839940994977951 0.984503448009491
v 0.19968414306640625 0.11409144848585129 0.6076958179473877
v -0.3791743814945221 0.1635213941335678 0.8678234815597534
v -0.2538820505142212 0.18127478659152985 0.968392550945282
v -0.09900671243667603 0.20825974643230438 1.107275366783142
v 0.08026579767465591 0.17479193210601807 0.9393473267555237
v 0.16781941056251526 0.1216055303812027 0.642519474029541
v 0.30638009309768677 0.13295571506023407 0.7041109800338745
v -0.2887851595878601 0.1652529090642929 0.871586263179779
v -0.16287988424301147 0.19203630089759827 1.0264432430267334
v 0.014982527121901512 0.16954880952835083 0.8886088132858276
v 0.14363498985767365 0.14324328303337097 0.7542389035224915
v 0.2191774845123291 0.11855033040046692 0.5980905294418335
v -0.3533554971218109 0.16954730451107025 0.8821184039115906
v -0.224690243601799 0.18890754878520966 0.9960405826568604
v -0.049748025834560394 0.1767968386411667 0.9115861654281616
v 0.1257667988538742 0.20258484780788422 1.0402721166610718
v 0.1830499768257141 0.11897781491279602 0.6169692277908325
v -0.4047665297985077 0.16606825590133667 0.8531763553619385
v -0.2795991003513336 0.1840716302394867 0.9496840238571167
v -0.1420416384935379 0.21540504693984985 1.1339036226272583
v 0.04934912919998169 0.18420012295246124 0.9483314752578735
v 0.1510699987411499 0.1290389597415924 0.6628361344337463
v 0.33419713377952576 0.16004517674446106 0.8263349533081055
v -0.32357731461524963 0.1748020052909851 0.8894439339637756
v -0.1936967521905899 0.19815994799137115 1.0256677865982056
v -0.014437170699238777 0.17689375579357147 0.9082332849502563
v 0.11720921099185944 0.1437765508890152 0.7399923205375671
v 0.19892866909503937 0.11975525319576263 0.5989538431167603
v -0.3774382472038269 0.17233262956142426 0.8714467287063599
v -0.25061386823654175 0.1910012662410736 0.9704455137252808
v -0.09502478688955307 0.22014954686164856 1.1069283485412598
v 0.0876479372382164 0.19177542626857758 0.9649595618247986
v 0.16570748388767242 0.12504152953624725 0.6288887858390808
v 0.30847933888435364 0.13928961753845215 0.7020530700683594
v -0.2895672023296356 0.17533330619335175 0.8799634575843811
v -0.15839427709579468 0.20419466495513916 1.024311900138855
v 0.01882082037627697 0.2022354006767273 1.0100198984146118
v 0.1329289972782135 0.13610896468162537 0.6826066970825195
v 0.30514246225357056 0.160551518201828 0.8321033716201782
v -0.35103532671928406 0.1788027286529541 0.8852131366729736
v -0.22069187462329865 0.19853819906711578 0.9961290955543518
v -0.0555388480424881 0.2200920432806015 1.0875707864761353
v 0.090943843126297 0.1457616090774536 0.7351334095001221
v 0.1821223497390747 0.12335465103387833 0.6065852642059326
v -0.4003354012966156 0.17464064061641693 0.856793999671936
v -0.2776913046836853 0.19446063041687012 0.9540480971336365
v -0.13342024385929108 0.2258760780096054 1.1170674562454224
v 0.053248751908540726 0.19319194555282593 0.9486161470413208
v 0.1478135883808136 0.13083839416503906 0.6401020288467407
v 0.33579838275909424 0.16886146366596222 0.8211164474487305
v -0.3211888372898102 0.1831812709569931 0.8916318416595459
v -0.18839098513126373 0.2060527801513672 1.0161441564559937
v -0.012451957911252975 0.21369673311710358 1.0359550714492798
v 0.11168046295642853 0.14072641730308533 0.6869508028030396
v 0.20093025267124176 0.12829166650772095 0.5983092784881592
v -0.3762813210487366 0.1817724108695984 0.8768039345741272
v -0.24868102371692657 0.20210139453411102 0.9761677384376526
v -0.0910334661602974 0.22982440888881683 1.1065508127212524
v 0.06556553393602371 0.1463896632194519 0.7227983474731445
v 0.16477826237678528 0.12916652858257294 0.6181958913803101
v 0.31076502799987793 0.14607582986354828 0.7004048824310303
v -0.2877032160758972 0.184564471244812 0.8837978839874268
v -0.15475699305534363 0.2141597419977188 1.0255861282348633
v 0.02229536883533001 0.2146061509847641 1.0171411037445068
v 0.12922894954681396 0.1366768330335617 0.6519861221313477
v 0.30638623237609863 0.17001241445541382 0.8235058784484863
v -0.3492279052734375 0.18851004540920258 0.8907354474067688
v -0.21743449568748474 0.20819474756717682 0.994867742061615
v -0.0515139065682888 0.23214730620384216 1.0921862125396729
v 0.08804377168416977 0.1444602906703949 0.6894104480743408
v 0.18301767110824585 0.1311337947845459 0.6041830778121948
v -0.3978523910045624 0.18334805965423584 0.8605871200561523
v -0.2789304554462433 0.20960940420627594 0.9719944596290588
v -0.12674464285373688 0.23458731174468994 1.1098389625549316
v 0.05797070637345314 0.20476940274238586 0.957019031047821
v 0.14637935161590576 0.133664071559906 0.6254359483718872
v 0.33499714732170105 0.17501094937324524 0.8121297359466553
v -0.3190310299396515 0.1918327808380127 0.8937586545944214
v -0.18371304869651794 0.21499647200107574 1.0087419748306274
v -0.009908728301525116 0.22401218116283417 1.0342018604278564
v 0.10945523530244827 0.14171601831912994 0.6599942445755005
v 0.30923527479171753 0.19273602962493896 0.9006698131561279
v -0.377857506275177 0.19535788893699646 0.8912788033485413
v -0.24758924543857574 0.21445228159427643 0.9848945140838623
v -0.08697454631328583 0.2384232133626938 1.1070936918258667
v 0.06660765409469604 0.15012122690677643 0.6988507509231567
v 0.16663292050361633 0.13568127155303955 0.6135327816009521
v 0.3130854666233063 0.15359538793563843 0.6980003118515015
v -0.2851330637931824 0.19365662336349487 0.8853495717048645
v -0.15026070177555084 0.2232942283153534 1.0257271528244019
v 0.026403110474348068 0.22502239048480988 1.019127607345581
v 0.1279524266719818 0.13920214772224426 0.6350615620613098
v 0.3037683963775635 0.1784750074148178 0.8123384118080139
v -0.3547332286834717 0.20312827825546265 0.9110103249549866
v -0.21402205526828766 0.21835704147815704 0.992861270904541
v -0.048436831682920456 0.242123544216156 1.0939946174621582
v 0.08764390647411346 0.147074893116951 0.6670787334442139
v 0.2702094614505768 0.1919107586145401 0.8739913702011108
v -0.3963773250579834 0.19258518517017365 0.8643077611923218
v -0.28370392322540283 0.22864973545074463 1.0031477212905884
v -0.11572806537151337 0.23166465759277344 1.0449659824371338
v 0.062187209725379944 0.21902413666248322 0.9741108417510986
v 0.14596201479434967 0.13792334496974945 0.613203763961792
v 0.3358403444290161 0.18282143771648407 0.8069941997528076
v -0.31686097383499146 0.20077171921730042 0.8956627249717712
v -0.1809161901473999 0.22729343175888062 1.0119013786315918
v -0.006618035025894642 0.23228143155574799 1.0290971994400024
v 0.10874457657337189 0.1444551795721054 0.6432748436927795
v 0.3144935667514801 0.20711228251457214 0.8956604599952698
v -0.3862270712852478 0.21329088509082794 0.9198821783065796
v -0.247599795460701 0.22966980934143066 1.0000663995742798
v -0.08113384991884232 0.24481619894504547 1.083786129951477
v 0.06762760132551193 0.15455159544944763 0.6824355125427246
v 0.23791417479515076 0.20010966062545776 0.8840447664260864
v 0.3150555491447449 0.16221606731414795 0.6963127851486206
v -0.281179815530777 0.20276175439357758 0.886070966720581
v -0.1466655731201172 0.2332528531551361 1.026611566543579
v 0.030831139534711838 0.23494559526443481 1.0216588973999023
v 0.12764157354831696 0.14257097244262695 0.6243658065795898
v 0.3071036636829376 0.18852858245372772 0.8109207153320312
v -0.35641181468963623 0.21731439232826233 0.9257367253303528
v -0.2090524584054947 0.22832849621772766 0.9896500706672668
v -0.04383206367492676 0.24700050055980682 1.07173490524292
v 0.08776014298200607 0.1501176357269287 0.6519834995269775
v 0.2712400555610657 0.20276086032390594 0.8696383237838745
v -0.3950967490673065 0.20288290083408356 0.867829442024231
v -0.2830325663089752 0.2442958503961563 1.0113821029663086
v -0.11185981333255768 0.2419450581073761 1.0439283847808838
v 0.04190495237708092 0.16450722515583038 0.7059695720672607
v 0.1477084904909134 0.1446298062801361 0.6047343015670776
v 0.3375467360019684 0.19015738368034363 0.8056999444961548
v -0.3143078684806824 0.20922477543354034 0.8969270586967468
v -0.17872779071331024 0.23978963494300842 1.0193880796432495
v -0.0028019296005368233 0.24061638116836548 1.0247132778167725
v 0.10844137519598007 0.14727960526943207 0.6309189200401306
v 0.309781938791275 0.2088424265384674 0.8688234090805054
v -0.3835984468460083 0.22339975833892822 0.9185975193977356
v -0.24946445226669312 0.2462068647146225 1.0219882726669312
v -0.07585488259792328 0.24919553101062775 1.056819200515747
v 0.0682900995016098 0.15798766911029816 0.6702924966812134
v 0.24565759301185608 0.21573399007320404 0.8899951577186584
v 0.3682613968849182 0.19155076146125793 0.7891800403594971
v -0.2771212160587311 0.21278700232505798 0.8858966827392578
v -0.1441471427679062 0.24478678405284882 1.0313249826431274
v 0.0347047857940197 0.24463239312171936 1.0254533290863037
v 0.126724973320961 0.14602260291576385 0.6142251491546631
v 0.3102535009384155 0.1975286602973938 0.8085125684738159
v -0.3526596128940582 0.22776636481285095 0.927383542060852
v -0.21206042170524597 0.24732044339179993 1.0214990377426147
v -0.036510009318590164 0.2471233606338501 1.0234049558639526
v 0.08729313313961029 0.15338091552257538 0.6380206346511841
v 0.2744233012199402 0.21388468146324158 0.8691428899765015
v -0.39841848611831665 0.22144316136837006 0.8765154480934143
v -0.2853541970252991 0.26532062888145447 1.0168299674987793
v -0.10920055210590363 0.25505000352859497 1.0459880828857422
v 0.04123431071639061 0.167798712849617 0.6724692583084106
v 0.1834133118391037 0.21382158994674683 0.830373227596283
v 0.3408672511577606 0.20107834041118622 0.8035238981246948
